{"glyphs":{"0":{"ha":804,"x_min":69,"x_max":735,"o":"m 635 997 q 547 936 635 958 q 403 914 458 914 q 229 946 293 914 q 192 970 215 953 q 168 997 168 988 l 168 1065 q 255 1139 168 1111 q 403 1167 342 1167 q 487 1158 436 1167 q 586 1124 538 1149 q 635 1065 635 1099 l 635 997 m 735 771 l 733 99 q 701 0 733 42 q 616 -62 669 -42 q 510 -91 563 -82 q 403 -100 458 -100 q 295 -91 347 -100 q 189 -62 243 -82 q 102 0 135 -42 q 69 99 69 42 l 69 771 q 85 823 69 800 q 115 856 100 846 q 167 883 131 865 q 214 907 203 900 l 214 935 q 279 900 239 911 q 344 888 319 889 q 418 886 369 886 q 589 933 557 886 l 589 907 q 620 893 596 904 q 655 876 644 882 q 684 859 665 871 q 711 836 703 847 q 727 808 719 825 q 735 771 735 790 m 613 1029 l 613 1065 q 535 1128 613 1106 q 403 1151 458 1151 q 269 1129 346 1151 q 192 1065 192 1107 l 192 1029 q 403 963 233 963 q 613 1029 561 963 m 689 782 q 670 815 689 800 q 615 845 651 829 q 575 863 578 861 q 389 815 522 815 q 229 864 278 815 q 206 855 225 863 q 179 844 186 847 q 156 832 172 840 q 134 816 140 824 q 122 796 128 808 q 115 769 115 783 l 117 99 q 147 20 117 53 q 225 -28 176 -12 q 318 -49 274 -43 q 408 -54 363 -54 q 496 -48 453 -54 q 585 -26 539 -42 q 659 22 631 -10 q 688 99 688 54 l 689 782 m 531 1088 q 519 1079 531 1079 q 508 1088 508 1079 q 519 1097 508 1097 q 531 1088 531 1097 m 490 1121 q 479 1113 490 1113 q 468 1121 468 1113 q 479 1131 468 1131 q 490 1121 490 1131 m 451 1094 q 440 1085 451 1085 q 431 1094 433 1085 q 440 1103 435 1103 q 450 1099 442 1103 q 451 1094 450 1096 m 413 1126 q 403 1119 406 1119 q 392 1126 392 1119 q 403 1138 392 1138 q 413 1126 410 1138 m 413 1057 q 403 1047 413 1047 q 392 1057 393 1047 q 403 1067 397 1067 q 409 1063 406 1067 q 413 1057 413 1058 m 375 1094 q 363 1085 375 1085 q 351 1094 353 1085 q 363 1103 357 1103 q 372 1099 368 1103 q 375 1094 372 1097 m 335 1121 q 324 1113 335 1113 q 313 1121 313 1113 q 324 1131 313 1131 q 335 1121 335 1131 m 296 1088 q 285 1079 296 1079 q 274 1088 274 1079 q 285 1097 274 1097 q 296 1088 296 1097 m 671 792 q 592 747 671 782 q 501 713 513 713 l 281 713 l 140 781 l 133 792 l 139 801 l 153 803 q 222 767 160 799 q 286 736 285 736 l 494 736 q 651 803 501 736 q 665 801 658 806 q 671 792 671 797 m 650 72 q 571 18 650 63 l 558 18 l 553 29 l 558 40 l 624 81 l 624 596 q 624 617 624 597 q 624 644 625 636 q 619 665 622 651 q 608 685 617 679 q 586 690 600 690 q 558 675 571 690 q 538 657 544 660 l 529 660 l 526 676 q 590 714 554 714 q 625 703 611 714 q 644 668 639 692 q 649 631 649 644 q 650 592 650 618 l 650 72 m 503 592 l 501 14 l 489 1 l 328 -4 l 315 7 l 328 19 l 476 26 l 478 592 q 406 665 478 665 q 363 650 381 665 q 340 633 344 635 l 332 636 l 329 653 q 410 690 360 690 q 477 663 451 690 q 503 592 503 635 m 279 15 q 274 5 279 8 q 263 4 268 1 l 165 54 l 158 65 l 163 74 l 174 75 l 254 33 l 254 583 q 243 651 254 617 q 207 685 232 685 q 183 681 192 685 q 165 670 174 676 q 147 660 157 664 l 139 663 l 135 671 q 162 700 139 690 q 207 710 185 710 q 263 669 246 710 q 279 583 279 629 l 279 15 z "},"1":{"ha":804,"x_min":69,"x_max":735,"o":"m 635 997 q 547 936 635 958 q 403 914 458 914 q 229 946 293 914 q 192 970 215 953 q 168 997 168 988 l 168 1065 q 255 1139 168 1111 q 403 1167 342 1167 q 487 1158 436 1167 q 586 1124 538 1149 q 635 1065 635 1099 l 635 997 m 735 771 l 733 99 q 701 0 733 42 q 616 -62 669 -42 q 510 -91 563 -82 q 403 -100 458 -100 q 295 -91 347 -100 q 189 -62 243 -82 q 102 0 135 -42 q 69 99 69 42 l 69 771 q 85 823 69 800 q 115 856 100 846 q 167 883 131 865 q 214 907 203 900 l 214 935 q 279 900 239 911 q 344 888 319 889 q 418 886 369 886 q 589 933 557 886 l 589 907 q 620 893 596 904 q 655 876 644 882 q 684 859 665 871 q 711 836 703 847 q 727 808 719 825 q 735 771 735 790 m 613 1029 l 613 1065 q 535 1128 613 1106 q 403 1151 458 1151 q 269 1129 346 1151 q 192 1065 192 1107 l 192 1029 q 403 963 233 963 q 613 1029 561 963 m 704 775 q 688 815 704 797 q 656 842 672 833 q 610 864 640 851 q 572 881 579 876 q 389 831 522 831 q 232 885 278 831 q 203 872 228 883 q 165 853 178 860 q 134 833 153 846 q 107 807 115 821 q 99 776 99 793 l 101 99 q 133 13 101 49 q 215 -39 164 -22 q 313 -62 265 -56 q 410 -69 360 -69 q 503 -62 457 -69 q 597 -37 549 -54 q 674 15 644 -21 q 703 99 703 50 l 704 775 m 531 1088 q 519 1079 531 1079 q 508 1088 508 1079 q 519 1097 508 1097 q 531 1088 531 1097 m 490 1121 q 479 1113 490 1113 q 468 1121 468 1113 q 479 1131 468 1131 q 490 1121 490 1131 m 451 1094 q 440 1085 451 1085 q 431 1094 433 1085 q 440 1103 435 1103 q 450 1099 442 1103 q 451 1094 450 1096 m 413 1126 q 403 1119 406 1119 q 392 1126 392 1119 q 403 1138 392 1138 q 413 1126 410 1138 m 413 1057 q 403 1047 413 1047 q 392 1057 393 1047 q 403 1067 397 1067 q 409 1063 406 1067 q 413 1057 413 1058 m 375 1094 q 363 1085 375 1085 q 351 1094 353 1085 q 363 1103 357 1103 q 372 1099 368 1103 q 375 1094 372 1097 m 335 1121 q 324 1113 335 1113 q 313 1121 313 1113 q 324 1131 313 1131 q 335 1121 335 1131 m 296 1088 q 285 1079 296 1079 q 274 1088 274 1079 q 285 1097 274 1097 q 296 1088 296 1097 m 689 769 l 688 99 q 658 20 688 53 q 579 -28 628 -12 q 486 -49 531 -43 q 396 -54 442 -54 q 308 -48 351 -54 q 219 -26 265 -42 q 145 22 174 -11 q 117 99 117 54 l 115 782 q 229 864 115 815 q 410 815 285 815 q 575 863 528 815 q 602 851 581 860 q 635 837 624 843 q 660 821 646 831 q 682 798 675 811 q 689 769 689 785 m 671 792 l 665 801 q 658 802 664 801 q 651 803 653 803 q 494 736 501 736 l 286 736 q 222 767 285 736 q 153 803 160 799 q 140 801 147 806 q 133 792 133 797 q 203 747 133 782 q 281 713 274 713 l 501 713 l 664 781 l 671 792 m 650 72 l 650 592 q 650 600 650 594 q 649 640 650 626 q 642 674 647 654 q 624 704 638 694 q 588 714 610 714 q 547 700 567 714 q 524 668 528 686 l 528 658 l 535 656 q 557 674 543 658 q 590 690 571 690 q 624 592 624 690 l 624 81 l 558 40 l 553 29 l 561 15 q 606 38 567 15 q 649 67 646 61 l 650 72 m 503 592 q 476 663 503 636 q 406 690 450 690 q 329 653 357 690 l 332 635 l 339 632 q 366 650 346 635 q 410 665 386 665 q 460 645 442 665 q 478 592 478 625 l 476 26 l 328 19 l 315 7 l 328 -4 l 489 1 l 501 14 l 503 592 m 279 15 l 279 583 q 263 669 279 629 q 207 710 246 710 q 162 700 185 710 q 135 671 139 690 l 139 661 l 146 658 q 164 670 156 663 q 181 681 172 678 q 207 685 190 685 q 243 651 232 685 q 254 583 254 617 l 254 33 q 163 75 171 79 l 158 64 q 263 4 160 56 q 272 7 265 3 q 279 15 279 11 z "},"2":{"ha":2239,"x_min":69,"x_max":2169,"o":"m 2169 547 q 2143 503 2154 510 l 2090 492 q 1696 126 2032 126 q 1522 190 1596 126 q 1447 353 1447 254 q 1472 497 1447 444 q 1372 510 1415 510 q 1253 469 1322 510 l 1258 429 q 1142 166 1258 279 q 876 53 1025 53 q 624 164 704 53 q 586 444 544 275 l 525 447 q 418 598 514 463 q 237 849 322 733 q 136 974 151 965 l 122 957 q 135 911 126 942 q 149 860 143 881 q 159 813 154 840 q 164 764 164 785 q 158 741 164 757 q 153 724 153 725 l 117 713 l 93 718 l 85 736 q 83 843 96 776 q 69 932 69 910 q 82 999 69 936 l 133 1025 l 185 1008 l 535 571 l 663 571 q 917 642 754 642 q 1157 571 1061 642 q 1514 588 1193 574 l 1547 589 q 1652 641 1592 624 q 1752 660 1713 658 q 1869 664 1792 663 q 1777 721 1857 671 q 1626 813 1697 771 q 1478 892 1556 854 q 1371 929 1401 929 q 1269 894 1328 929 q 1144 810 1210 860 q 1047 744 1079 760 l 1010 778 l 1022 810 q 1135 869 1054 824 q 1282 944 1215 915 q 1394 974 1349 974 q 1645 883 1458 974 q 1997 689 1832 793 q 2169 547 2161 585 m 2149 551 l 2115 561 l 2079 547 l 2115 538 l 2149 551 m 2071 532 q 1942 631 2031 603 l 1936 614 q 2053 524 2010 590 l 2071 532 m 2015 467 q 1991 531 2015 504 q 1928 572 1967 558 q 1854 590 1890 585 q 1783 596 1818 596 q 1611 535 1683 596 q 1539 376 1539 474 q 1588 226 1539 282 q 1731 169 1638 169 q 1937 254 1858 169 q 2015 467 2015 339 m 1529 267 q 1497 386 1497 322 q 1515 460 1497 424 l 1497 467 q 1478 379 1478 399 q 1514 258 1478 321 l 1529 267 m 1385 558 l 1375 574 q 1282 555 1361 574 q 1183 543 1203 536 l 1196 528 q 1203 527 1199 528 q 1211 526 1208 526 q 1304 542 1243 526 q 1385 558 1365 558 m 1161 524 q 1105 575 1136 558 q 1022 606 1074 592 l 1021 586 q 1149 513 1089 572 l 1161 524 m 1174 392 q 1131 495 1174 454 q 1033 551 1088 536 q 917 565 978 565 q 721 512 799 565 q 643 346 643 458 q 706 167 643 235 q 881 99 769 99 q 1088 185 1001 99 q 1174 392 1174 272 m 617 513 l 574 529 l 529 513 l 574 496 l 617 513 m 1956 461 q 1947 406 1956 433 q 1932 371 1939 378 l 1925 376 q 1949 461 1942 393 l 1956 461 m 1910 489 q 1878 376 1910 411 l 1872 381 q 1885 398 1879 388 q 1893 422 1890 408 q 1897 444 1896 435 q 1901 468 1899 453 q 1903 489 1903 483 l 1910 489 m 1054 397 q 1029 294 1054 319 l 1024 303 q 1047 397 1047 326 l 1054 397 m 1003 429 q 971 304 1003 333 l 964 311 q 978 328 972 318 q 988 355 985 339 q 992 380 990 371 q 994 408 993 389 q 996 431 996 428 l 1003 429 z "},"3":{"ha":1738,"x_min":69,"x_max":1668,"o":"m 1668 60 q 1452 -1 1593 26 q 1224 -28 1311 -28 q 1165 -28 1215 -28 q 1098 -28 1115 -29 q 1042 -25 1081 -28 q 976 -15 1004 -22 q 921 4 947 -7 q 857 112 890 67 q 783 189 824 157 q 705 241 743 221 q 612 274 667 261 q 510 294 557 288 q 389 307 463 300 q 371 225 371 271 q 376 165 371 197 q 388 113 382 133 q 405 53 393 92 q 421 0 417 15 l 321 0 q 295 138 321 72 q 232 254 269 203 q 158 356 194 306 q 95 472 121 407 q 69 607 69 536 q 76 672 69 632 q 94 757 82 713 q 128 833 107 801 q 175 864 149 864 q 415 840 283 864 q 636 791 546 817 q 868 719 726 765 l 878 774 l 882 775 l 1022 668 l 983 619 q 1028 457 1017 551 q 1018 290 1039 363 q 1103 275 1090 275 q 1219 319 1131 275 q 1278 313 1261 315 q 1340 304 1294 311 q 1408 292 1385 297 q 1471 274 1431 286 q 1533 250 1511 263 q 1585 218 1556 238 q 1629 176 1614 199 q 1656 124 1644 154 q 1668 60 1668 94 m 1588 150 q 1527 207 1588 175 q 1438 239 1467 239 q 1406 213 1406 239 q 1438 183 1406 192 l 1475 175 q 1515 149 1488 171 q 1556 128 1543 128 q 1588 150 1588 128 m 919 722 l 900 738 l 893 697 l 919 722 m 850 679 l 779 657 l 794 633 l 850 679 m 863 654 l 813 617 l 828 601 l 863 654 m 1003 410 q 980 551 1003 476 q 913 654 957 626 l 886 510 l 881 506 q 851 521 871 511 q 817 539 832 531 q 789 556 801 547 q 788 533 789 547 q 786 511 786 519 q 807 343 786 426 q 983 297 869 324 q 1003 410 1003 331 m 808 704 q 504 760 701 732 q 496 745 499 751 q 491 731 493 739 q 489 719 489 722 q 488 702 489 715 q 488 686 488 689 q 331 747 378 724 q 253 801 307 758 q 196 846 199 844 l 181 836 l 182 821 q 450 664 276 728 q 764 597 624 600 l 689 675 l 808 704 m 1033 244 q 909 283 992 261 q 814 310 826 306 l 835 233 q 946 208 901 208 q 960 208 947 208 q 976 208 972 208 q 992 209 981 208 q 1008 213 1003 210 q 1019 219 1013 215 q 1029 229 1026 222 q 1033 244 1032 236 m 761 356 q 753 489 753 444 q 760 557 753 528 q 558 567 667 567 q 503 561 521 567 q 500 533 500 544 q 560 417 500 443 q 621 394 588 404 q 697 372 654 383 q 761 356 740 361 m 781 253 l 767 324 l 606 371 l 569 371 q 781 253 571 336 m 228 656 q 214 672 228 672 q 167 599 167 672 q 192 522 167 522 q 203 525 199 522 q 211 533 208 528 q 215 543 214 538 q 217 557 217 549 q 218 570 218 565 q 218 583 218 575 q 218 593 218 590 q 223 629 218 606 q 228 656 228 653 z "},"4":{"ha":1540,"x_min":69,"x_max":1471,"o":"m 1471 29 q 1089 -4 1344 -4 q 1061 -4 1071 -4 q 860 -3 926 -4 q 678 6 793 -3 q 481 33 564 15 l 481 117 l 494 117 q 530 240 494 182 q 625 314 565 299 l 572 482 l 478 460 l 460 539 l 510 554 q 508 650 481 600 l 499 665 q 494 699 504 668 q 470 766 483 731 q 457 808 457 801 q 451 829 457 819 q 434 849 444 839 q 419 867 424 860 q 429 878 425 879 q 367 906 399 906 q 282 854 313 906 q 251 744 251 803 q 265 570 251 688 q 279 394 279 453 q 234 274 279 346 q 144 138 189 201 q 100 46 100 75 q 115 -31 100 17 q 131 -101 131 -79 l 115 -110 l 101 -100 q 69 46 69 -32 q 114 133 69 68 q 203 274 158 197 q 247 403 247 350 q 234 578 247 461 q 221 754 221 694 q 263 878 221 819 q 367 936 304 936 q 450 893 410 936 l 472 907 q 488 901 479 911 q 505 876 496 892 q 521 857 514 861 l 517 846 q 542 810 526 818 l 539 801 l 550 788 q 550 780 549 785 q 554 767 551 775 q 557 754 557 758 q 563 735 557 751 q 572 703 568 718 q 574 686 576 688 l 625 685 q 618 725 618 715 q 633 779 618 728 q 697 798 640 790 q 838 808 754 806 q 1001 810 922 810 q 1155 810 1079 811 q 1243 810 1231 810 l 1279 788 q 1292 736 1290 768 q 1285 683 1294 704 q 1306 651 1288 678 q 1338 601 1325 624 q 1350 571 1350 579 q 1330 523 1350 547 q 1285 478 1310 499 q 1240 417 1261 458 q 1218 322 1219 376 q 1388 222 1343 261 q 1453 119 1442 175 l 1471 119 l 1471 29 m 1274 735 q 1266 770 1274 753 q 1243 788 1258 788 q 1211 735 1211 788 q 1243 678 1211 678 q 1274 735 1274 678 m 1329 571 q 1321 596 1329 581 q 1305 622 1313 611 q 1283 649 1297 632 q 1265 668 1268 665 l 1249 661 q 1300 574 1300 610 q 1294 543 1300 564 q 1288 511 1288 522 q 1318 531 1307 511 q 1329 571 1329 550 m 1179 764 l 668 758 l 661 736 l 1174 742 l 1179 764 m 1279 565 q 1218 654 1279 593 l 731 647 q 711 617 722 638 q 703 589 700 596 l 768 429 l 1118 407 q 1174 454 1131 422 q 1248 515 1217 486 q 1279 565 1279 544 m 457 876 q 449 879 457 879 l 432 874 q 429 868 429 872 l 429 865 q 436 861 429 858 q 457 876 457 867 m 471 856 q 467 860 471 858 q 463 860 464 861 l 446 853 q 442 847 442 850 l 443 844 l 444 842 l 450 842 q 467 847 465 847 q 471 856 471 850 m 481 836 q 475 838 479 838 l 458 832 q 454 824 454 831 q 458 820 454 822 q 463 819 461 818 l 479 825 q 481 832 481 826 l 481 836 m 492 811 q 489 815 492 814 q 485 815 486 817 l 467 808 q 464 803 464 807 l 464 800 q 467 796 464 797 q 472 796 469 794 l 489 803 q 492 808 492 804 l 492 811 m 503 790 q 494 793 503 793 l 478 788 q 475 781 475 788 l 475 778 q 479 775 475 775 l 482 775 q 500 781 499 781 q 503 788 503 781 l 503 790 m 1113 319 l 1113 346 l 693 365 l 668 453 l 640 443 l 675 336 l 1113 319 m 513 768 q 509 772 513 769 q 504 772 506 774 l 488 765 q 485 760 485 764 l 485 757 q 492 753 485 750 l 508 760 q 513 768 513 761 m 518 744 q 515 749 518 747 q 510 749 511 750 l 493 742 q 490 736 490 740 l 490 733 q 499 731 490 731 l 515 736 q 518 742 518 738 l 518 744 m 526 722 q 518 725 526 725 l 501 719 q 499 714 499 718 l 499 710 q 506 707 499 707 q 526 722 526 713 m 532 699 q 528 702 532 700 q 524 703 525 704 l 507 696 q 504 690 504 694 l 504 688 q 508 684 504 686 q 513 683 511 682 l 529 690 q 532 696 532 692 l 532 699 m 539 675 q 531 679 539 679 l 514 672 q 510 664 510 669 q 518 661 510 661 l 536 667 q 539 672 539 667 l 539 675 m 1431 108 q 1348 224 1415 169 q 1215 292 1281 278 q 1142 290 1197 294 q 1076 286 1086 286 l 931 286 q 801 292 888 286 q 672 297 715 297 q 562 243 601 297 q 519 114 522 189 q 771 87 569 94 q 1122 79 972 79 q 1431 108 1376 79 m 642 519 l 632 557 l 488 525 l 494 486 l 642 519 m 1260 731 q 1246 708 1260 708 q 1231 736 1231 708 q 1246 758 1231 758 q 1260 731 1260 758 m 1343 150 q 1331 143 1340 143 q 1319 150 1324 143 q 1186 228 1282 197 q 1138 254 1140 244 q 1217 260 1196 254 q 1343 150 1303 236 m 933 111 q 551 138 692 111 q 587 228 556 189 q 667 267 618 267 q 860 243 849 267 q 864 178 864 233 q 899 144 864 157 q 933 111 933 131 z "},"5":{"ha":1981,"x_min":69,"x_max":1911,"o":"m 1875 722 l 1832 704 l 1635 1157 l 1672 1194 l 1875 722 m 1790 685 l 1747 667 l 1724 671 q 1486 600 1650 671 q 1165 444 1322 529 q 865 289 1008 360 q 681 218 721 218 l 664 222 l 657 240 q 564 289 607 254 l 544 279 q 537 269 546 272 q 524 269 528 265 l 503 260 l 497 247 l 482 250 l 421 346 q 422 356 419 350 q 431 363 425 363 l 439 358 l 474 304 l 494 315 l 461 367 q 463 377 460 371 q 471 383 467 383 l 479 379 l 515 324 l 535 333 l 501 389 q 508 421 506 399 q 515 454 510 443 l 567 349 l 600 365 l 515 528 q 663 617 533 564 q 1007 769 918 725 q 1278 940 1100 817 q 1547 1106 1457 1063 l 1579 1117 l 1603 1101 l 1790 685 m 1911 33 q 1832 -10 1889 8 q 1686 -39 1775 -28 q 1517 -57 1597 -50 q 1319 -66 1436 -64 q 1140 -69 1203 -68 q 976 -69 1078 -69 q 869 -68 874 -68 q 69 -17 239 -68 l 69 42 l 97 57 l 83 172 l 121 193 l 118 210 q 165 261 118 251 q 240 253 211 271 q 289 274 264 269 l 338 247 q 411 317 388 286 l 461 238 q 413 175 446 197 l 439 176 q 449 163 443 163 l 450 178 l 476 181 l 479 169 l 490 183 l 513 185 q 517 176 513 181 q 526 175 522 172 l 544 196 l 606 189 l 589 36 q 900 15 747 15 q 1392 65 1064 15 q 1885 115 1719 115 q 1904 106 1889 115 l 1911 86 l 1911 33 m 1674 710 q 1575 746 1642 746 q 1404 692 1489 746 l 1411 679 q 1554 708 1464 708 q 1626 692 1610 708 l 1674 710 m 1521 1014 l 1508 1010 q 644 499 1468 896 q 614 483 622 488 l 632 443 q 705 478 642 449 q 810 529 768 508 q 930 589 853 550 q 1063 659 1007 628 q 1192 731 1119 690 q 1315 808 1264 772 q 1415 881 1367 844 q 1489 952 1463 918 q 1521 1014 1515 986 m 1893 67 l 1893 86 q 1544 24 1793 47 q 1132 0 1296 0 l 1132 -14 q 1893 67 1771 -14 m 438 239 l 408 288 q 319 221 342 221 q 290 253 314 253 q 229 226 278 253 q 203 249 229 249 q 160 235 179 249 q 140 200 140 221 q 189 163 140 163 q 222 168 207 163 q 250 154 236 154 q 276 162 261 154 q 297 169 292 169 q 317 161 306 169 q 335 153 328 153 q 396 182 361 153 q 438 239 431 211 m 571 143 l 528 140 l 521 124 l 515 124 l 508 139 l 490 136 l 482 115 l 476 115 l 474 129 l 457 128 l 443 94 l 436 96 l 429 133 l 403 131 l 388 108 l 382 128 l 360 129 l 356 115 l 350 115 l 347 128 l 317 125 l 308 100 l 303 101 l 299 128 l 272 125 l 271 115 l 264 115 l 263 129 l 246 129 l 239 113 l 235 114 l 228 139 l 210 139 l 200 129 l 196 142 l 186 142 l 178 119 l 172 121 l 168 149 l 140 150 l 132 126 l 126 126 l 117 161 l 101 165 l 115 50 q 126 43 119 49 q 135 36 132 38 l 150 39 q 171 28 160 29 l 182 32 l 185 36 l 190 33 q 206 19 193 22 l 222 28 q 247 17 233 21 q 264 28 257 19 q 286 14 278 17 q 304 24 289 14 q 326 10 318 10 q 347 19 335 10 l 353 19 q 369 10 356 17 q 386 19 378 11 q 411 6 404 8 q 429 19 426 11 q 451 13 450 13 q 467 24 460 13 l 472 22 q 490 11 474 11 q 501 15 493 11 l 504 19 l 513 22 q 532 13 522 13 q 557 29 540 13 l 571 143 z "},"6":{"ha":833,"x_min":69,"x_max":764,"o":"m 764 14 l 749 0 l 83 0 l 69 14 l 69 1038 l 83 1051 l 749 1051 l 764 1038 l 764 14 m 735 28 l 735 1024 l 97 1024 l 97 28 l 735 28 m 693 65 l 139 65 l 139 986 l 693 986 l 693 65 m 569 714 q 504 832 569 790 l 328 832 q 264 714 264 792 q 328 597 264 640 l 504 597 q 569 714 569 640 m 457 526 q 417 564 453 564 q 381 542 396 564 l 457 526 m 451 504 l 376 522 q 417 483 376 483 q 451 504 442 483 m 569 332 q 504 449 569 407 l 328 449 q 285 406 306 449 q 264 332 264 363 q 328 214 264 260 l 504 214 q 569 332 569 256 m 488 675 l 454 675 l 454 767 l 488 767 l 488 675 m 378 675 l 347 675 l 347 767 l 378 767 l 378 675 m 488 292 l 454 292 l 454 385 l 488 385 l 488 292 m 378 292 l 347 292 l 347 385 l 378 385 l 378 292 z "},"7":{"ha":1292,"x_min":69,"x_max":1222,"o":"m 1222 226 q 1198 195 1222 207 q 1131 180 1174 183 q 1053 176 1088 176 q 976 176 1019 175 q 929 178 932 178 q 829 144 829 178 q 888 108 829 118 q 1016 91 946 97 q 1101 71 1086 85 l 1114 71 l 1138 53 l 1133 46 l 1147 36 l 1142 31 l 1128 40 l 1125 38 l 1139 26 l 1136 19 l 1121 32 l 1115 28 l 1094 46 l 1092 58 q 1001 77 1074 71 q 869 97 928 83 q 811 144 811 111 q 831 172 811 161 q 885 187 850 183 q 946 192 919 190 q 1011 192 972 193 l 1049 190 q 1065 190 1051 190 q 1092 189 1079 189 q 1122 190 1104 189 q 1153 192 1139 190 q 1179 198 1167 194 q 1199 208 1192 201 q 1207 225 1207 215 q 1147 252 1192 247 q 1058 254 1101 257 q 981 270 1015 251 q 946 336 946 289 q 956 572 946 414 q 967 808 967 731 q 956 848 967 829 q 926 867 946 867 q 867 830 889 867 q 846 750 846 793 q 847 675 846 707 l 829 681 l 828 724 q 848 831 825 781 q 924 881 871 881 q 967 860 953 881 q 982 808 982 839 q 972 576 982 731 q 963 343 963 421 q 1003 275 963 294 q 1092 260 1043 256 q 1182 258 1142 264 q 1222 226 1222 253 m 1071 1121 q 1062 1103 1071 1117 q 1038 1072 1053 1090 q 1010 1038 1024 1054 q 983 1007 997 1022 q 968 989 969 992 q 954 982 960 981 l 407 324 q 432 228 432 299 l 443 224 l 449 228 q 583 486 449 288 q 760 685 718 685 q 866 649 806 685 q 926 571 926 613 q 852 400 926 506 q 676 213 778 294 q 506 131 575 132 q 429 72 457 88 l 411 78 l 396 71 l 392 64 l 410 44 l 410 -4 l 244 -78 l 69 71 l 69 133 q 138 183 69 163 q 232 181 207 203 q 244 223 236 194 q 254 260 251 251 q 265 288 257 269 q 282 311 274 306 q 304 325 290 317 q 338 335 318 333 q 383 338 357 338 q 1032 1136 411 371 l 1046 1143 l 1071 1121 m 838 499 q 826 531 838 515 l 815 531 q 676 315 768 432 q 510 164 585 197 l 510 151 q 718 290 599 168 q 838 499 838 413 m 410 258 q 385 309 403 296 q 329 322 368 322 q 274 256 300 322 q 342 276 294 276 q 410 258 388 276 m 379 136 l 379 149 q 343 146 368 146 q 268 182 293 146 l 268 235 q 247 163 258 194 q 342 129 281 129 q 379 136 365 129 m 394 10 l 394 31 q 367 38 381 38 q 281 17 331 38 q 271 1 275 14 q 265 -14 267 -11 l 244 -22 l 86 111 l 86 82 l 244 -50 l 394 10 z "},"8":{"ha":1519,"x_min":69,"x_max":1450,"o":"m 1450 644 q 1422 558 1450 599 q 1171 497 1274 540 q 1017 407 1068 453 q 878 278 967 361 q 700 135 789 196 q 571 192 685 192 q 503 188 539 192 q 425 176 468 183 q 360 167 382 169 l 338 176 q 386 233 350 200 q 431 276 422 267 l 340 319 q 522 489 446 383 l 624 440 l 638 467 l 539 515 l 565 560 l 661 514 l 675 540 l 582 586 l 607 633 l 699 588 l 714 614 l 621 661 q 640 699 625 668 q 662 741 654 729 q 688 767 669 753 q 731 781 707 781 q 792 767 754 781 q 856 742 829 754 l 881 728 q 999 756 933 728 q 1118 816 1065 783 q 1236 876 1171 849 q 1353 904 1301 904 q 1424 808 1399 904 q 1450 644 1450 711 m 1411 519 q 1365 306 1368 386 l 1119 242 l 985 294 q 732 71 801 121 q 435 -46 603 -22 q 203 -58 343 -58 q 153 -57 169 -58 q 110 -45 136 -56 q 75 -12 85 -35 l 76 -3 q 192 -25 117 -25 q 410 -9 311 -25 q 578 34 508 7 q 705 97 647 61 q 808 173 763 132 q 898 256 854 214 q 992 340 942 299 q 1098 415 1042 381 q 1234 478 1154 450 q 1411 519 1314 506 m 674 117 q 197 10 504 10 q 69 56 69 10 q 83 126 69 94 q 127 185 96 158 q 180 228 158 213 q 248 268 201 243 q 310 301 294 293 l 379 267 q 330 222 356 250 q 304 176 304 194 q 390 135 304 135 q 494 142 425 135 q 599 150 564 150 q 674 117 667 150 m 1329 867 q 1231 840 1235 842 q 1120 783 1194 826 q 1006 725 1046 740 q 994 718 994 721 q 1001 710 994 710 q 1195 768 1065 710 q 1329 867 1325 826 m 1119 276 l 1119 389 q 1013 318 1061 357 l 1119 276 z "},"9":{"ha":1169,"x_min":69,"x_max":1100,"o":"m 1100 389 q 1032 371 1069 378 l 1032 363 l 1047 356 l 1047 336 l 1032 329 l 1007 125 q 1001 122 1003 126 q 1000 113 1000 118 q 1001 106 1000 108 l 983 86 l 971 106 l 979 121 l 967 126 l 951 329 q 886 339 926 344 l 886 318 q 851 303 864 300 l 851 286 q 761 249 839 276 l 761 240 l 779 232 l 779 207 l 761 197 l 744 -60 q 724 -72 739 -69 l 735 -93 l 718 -117 l 692 -93 l 697 -71 l 686 -60 l 669 197 l 653 207 l 653 232 l 669 240 l 669 249 l 643 254 q 632 234 640 249 q 615 203 624 219 q 594 166 606 186 q 575 127 583 146 q 562 92 567 108 q 558 65 557 76 q 567 51 558 54 l 567 6 l 528 -6 l 510 4 l 475 -10 l 388 39 l 388 50 l 419 60 l 419 93 l 442 97 l 425 307 l 306 336 l 306 314 q 283 300 301 307 l 275 117 l 263 111 l 278 92 l 264 69 l 242 92 l 247 110 l 233 114 l 219 321 l 203 332 l 203 361 l 69 397 l 69 475 q 115 503 81 488 q 163 539 150 518 l 163 603 l 179 617 l 268 617 l 319 721 l 417 721 l 807 1117 l 1003 1096 l 1003 1081 l 876 964 q 1075 838 1075 914 q 843 644 1075 728 l 747 922 l 731 915 l 811 636 l 763 624 l 763 601 l 772 603 q 795 603 781 603 q 830 603 810 603 q 872 604 850 604 q 919 604 894 604 q 966 603 943 604 q 1011 600 989 601 q 1051 595 1033 599 q 1081 588 1068 592 q 1100 578 1094 583 l 1100 389 m 1007 574 q 976 581 997 581 l 658 581 l 658 572 q 708 565 660 572 q 779 558 757 558 l 904 558 q 1007 574 1003 558 m 933 379 l 933 536 l 908 536 l 908 379 l 933 379 m 653 511 l 653 532 l 203 592 l 203 575 l 653 511 m 410 461 l 410 483 l 321 499 l 321 481 l 410 461 m 656 439 l 618 444 q 613 427 618 435 q 599 414 608 419 q 582 406 589 408 q 561 399 575 403 q 544 393 547 394 l 171 468 q 121 461 149 468 l 121 447 l 524 356 l 524 390 l 560 381 q 585 390 565 383 q 617 401 604 396 q 642 417 631 407 q 656 439 654 428 m 626 260 l 554 276 q 551 269 554 275 q 549 263 549 264 l 549 82 l 626 260 m 501 194 q 497 264 501 197 l 479 268 l 479 150 l 501 194 m 507 79 l 503 165 l 479 117 l 479 88 l 507 79 z "},"~":{"ha":694,"x_min":0,"x_max":0,"o":""}," ":{"ha":142,"x_min":0,"x_max":0,"o":""},"!":{"ha":1697,"x_min":69,"x_max":1628,"o":"m 1628 696 l 1619 682 q 1597 692 1610 682 q 1576 704 1585 703 q 1513 696 1535 696 q 1349 719 1454 696 q 1190 768 1244 743 l 1186 761 q 1253 658 1231 722 q 1276 526 1276 593 q 1243 428 1276 476 l 1239 432 q 1247 481 1250 450 l 1240 478 q 1208 394 1233 429 l 1200 404 l 1211 446 l 1206 446 q 1168 379 1199 415 q 1158 387 1160 381 q 1160 405 1157 393 q 1164 418 1164 417 l 1153 415 q 1021 237 1129 324 q 819 149 913 150 q 800 75 806 126 l 826 78 l 847 60 q 879 67 853 61 q 922 74 906 72 q 957 76 938 76 q 983 68 976 76 q 983 43 990 60 q 995 38 985 42 q 1014 30 1006 33 q 1022 25 1022 26 q 1004 13 1022 21 q 986 -3 986 4 q 997 -18 986 -10 q 1017 -29 1008 -26 l 1018 -36 l 1007 -43 q 892 -36 971 -36 q 796 -50 814 -36 q 710 -32 738 -25 l 700 -14 l 707 6 q 652 27 690 15 q 601 44 614 39 l 617 68 l 614 124 q 435 158 558 124 q 238 221 311 192 q 177 203 224 217 q 104 182 131 189 l 78 194 l 69 218 q 138 290 86 242 l 114 303 l 111 321 q 272 461 183 404 l 272 471 l 238 457 l 231 458 l 235 482 q 499 624 322 551 q 776 696 675 696 l 792 694 q 878 669 803 686 q 968 654 953 653 l 985 656 l 997 672 q 881 740 960 700 q 768 804 801 781 l 758 797 q 696 872 724 824 l 688 871 q 660 956 663 911 l 651 957 q 670 1038 657 1000 q 708 1110 683 1075 q 769 1155 733 1144 q 856 1153 806 1165 l 847 1167 l 856 1167 q 893 1139 868 1156 q 933 1107 918 1122 q 957 1067 947 1092 q 1065 1017 979 1056 q 1235 936 1150 978 q 1412 848 1321 894 q 1563 760 1503 801 q 1628 696 1622 719 m 1614 706 q 1315 876 1611 726 q 956 1044 1019 1025 q 935 1035 947 1042 q 917 1029 922 1029 q 892 1031 913 1029 l 885 1026 l 885 1018 q 982 986 907 1003 q 1313 848 1035 974 q 1607 700 1590 722 l 1614 706 m 1543 724 q 1417 781 1514 736 q 1253 857 1321 826 q 1103 921 1185 888 q 979 967 1022 954 q 951 971 971 969 q 924 975 932 972 q 869 1008 892 986 l 858 1011 q 848 986 853 1004 q 840 963 843 968 l 815 958 q 807 936 807 950 q 835 893 807 913 q 908 861 863 874 q 996 840 953 849 q 1084 824 1039 832 q 1142 814 1129 817 q 1266 777 1185 803 q 1412 736 1347 751 q 1542 719 1476 721 l 1543 724 m 874 1079 l 867 1086 q 861 1083 864 1086 q 858 1079 861 1082 l 867 1072 l 874 1079 m 1204 569 q 1182 697 1210 646 q 1107 769 1154 747 q 1003 806 1060 790 q 898 831 947 822 q 815 864 849 840 q 782 926 782 888 q 788 952 782 933 q 794 974 794 971 q 832 1000 818 994 l 844 1031 l 874 1051 q 839 1089 847 1068 l 858 1099 q 901 1069 888 1093 l 896 1054 l 919 1054 l 929 1067 q 885 1114 917 1097 q 818 1131 853 1131 q 740 1097 779 1131 q 700 1026 700 1064 q 719 905 700 954 q 777 826 739 856 q 854 777 815 796 q 951 733 893 758 q 1049 682 1010 707 l 1060 650 q 1023 642 1051 644 q 976 625 994 640 q 779 654 875 667 l 760 668 q 579 621 651 649 l 582 611 q 701 622 689 622 l 722 606 l 719 589 q 610 572 653 583 l 614 561 q 694 568 658 568 l 700 568 l 715 557 l 715 543 l 685 531 l 689 522 q 769 511 732 529 q 908 539 808 528 q 1025 561 1008 550 l 1044 557 l 1049 550 q 982 506 1015 532 q 872 483 938 506 q 769 433 807 460 l 756 444 l 744 429 l 732 425 q 688 449 710 431 q 645 419 675 440 q 597 388 615 399 q 552 363 579 376 q 501 344 525 350 l 476 369 q 439 344 467 363 q 396 317 411 326 q 357 293 381 307 q 313 269 333 279 q 271 253 292 260 l 271 246 q 372 218 276 244 q 542 173 467 192 q 632 154 618 154 q 704 169 679 154 q 740 128 735 154 q 740 76 746 101 q 747 22 733 51 l 736 6 l 744 -12 q 788 -22 767 -22 l 947 -15 l 960 -4 q 963 5 960 -3 q 965 15 965 13 l 964 33 l 953 44 q 881 33 938 43 q 797 22 825 22 q 787 51 792 22 q 782 89 782 79 q 790 138 782 101 q 793 194 799 174 l 801 199 q 839 179 825 179 q 962 238 892 179 q 1081 374 1032 296 q 1129 506 1129 451 l 1149 513 l 1165 508 l 1176 513 q 1171 565 1178 536 l 1181 568 l 1194 551 l 1203 553 l 1204 569 m 722 94 l 722 108 q 719 133 722 117 q 698 128 713 132 q 676 122 683 125 q 676 115 676 119 q 675 108 675 111 l 675 100 q 676 81 675 88 l 701 81 q 722 94 722 81 z "},"\"":{"ha":1639,"x_min":69,"x_max":1569,"o":"m 1569 556 q 1404 494 1486 556 l 1422 471 q 1507 522 1463 499 l 1526 497 q 1465 463 1496 488 q 1563 478 1519 474 l 1563 447 q 1456 429 1515 449 l 1442 385 q 1567 407 1525 407 l 1567 374 q 1407 333 1474 367 q 1517 308 1451 318 l 1517 275 q 1450 278 1485 271 q 1473 236 1461 264 q 1485 192 1485 208 q 1468 141 1485 160 q 1424 117 1451 122 q 1372 112 1397 113 q 1317 113 1346 111 q 1278 114 1289 115 l 1292 81 l 1254 71 q 1194 128 1233 103 q 1117 153 1154 153 q 1076 139 1114 153 q 1194 50 1157 96 l 1161 33 q 1138 53 1149 44 q 1112 69 1126 61 q 1091 81 1097 78 q 1063 95 1085 85 q 1036 108 1042 106 l 1008 83 q 878 104 951 104 q 740 56 775 104 q 924 13 771 47 l 914 -22 q 640 38 844 -12 q 686 -6 671 10 q 721 -49 701 -21 q 749 -106 740 -76 l 718 -114 q 619 -8 690 -54 q 490 18 549 39 l 488 39 l 472 56 q 449 47 460 51 q 425 33 438 42 q 406 19 413 24 q 385 1 400 14 q 365 -15 369 -12 l 343 10 q 440 74 378 42 l 410 78 q 360 63 392 78 q 317 33 329 47 q 297 -40 303 -6 l 282 -46 q 244 50 244 42 q 285 96 244 72 l 272 117 q 185 15 233 108 l 169 81 q 190 119 178 99 q 213 154 203 140 q 239 191 222 168 q 264 225 256 214 q 139 149 200 210 l 88 228 q 175 328 117 275 q 94 308 122 333 l 69 351 q 149 394 101 383 q 247 410 197 406 q 324 432 297 415 l 328 439 q 263 551 310 485 q 200 649 215 618 l 213 661 q 254 818 185 739 l 247 843 q 300 932 257 878 l 297 949 l 317 976 l 353 985 q 392 955 356 983 q 451 911 429 926 q 508 873 474 896 q 569 839 543 850 q 613 828 596 828 q 845 875 740 828 q 1057 1014 950 922 q 1066 1045 1065 1029 q 1064 1082 1067 1061 q 1061 1114 1061 1103 q 1063 1122 1061 1117 q 1068 1132 1065 1126 q 1072 1140 1071 1138 l 1099 1156 q 1147 1145 1131 1153 q 1183 1114 1164 1138 q 1217 1106 1194 1111 q 1251 1097 1239 1101 q 1276 1084 1263 1093 q 1295 1057 1290 1075 q 1296 1011 1300 1039 q 1344 978 1332 993 q 1367 925 1356 964 q 1358 926 1363 922 q 1351 935 1353 931 q 1290 914 1314 929 q 1296 817 1299 889 q 1326 660 1293 774 q 1364 511 1360 546 q 1567 593 1460 581 l 1569 556 m 1346 946 q 1326 974 1346 960 q 1292 988 1307 988 q 1265 961 1268 988 l 1346 946 m 1306 942 l 1265 944 l 1265 933 q 1278 928 1265 928 q 1306 942 1296 928 m 1457 208 q 1419 261 1457 246 q 1336 276 1381 276 q 1258 260 1300 276 q 1217 214 1217 244 q 1258 153 1217 178 q 1338 129 1299 129 q 1419 149 1382 129 q 1457 208 1457 168 m 1313 476 q 1301 532 1313 493 q 1292 596 1290 571 q 1261 647 1271 617 q 1274 872 1274 732 l 1268 878 l 1258 874 q 1233 844 1250 856 q 1178 914 1178 875 q 1196 968 1178 946 q 1249 958 1219 972 q 1275 1011 1257 988 q 1210 1055 1267 1032 q 1125 1078 1154 1078 q 1105 1044 1111 1078 q 1092 1004 1099 1011 q 1055 973 1085 997 q 1008 933 1025 949 q 974 897 990 917 q 951 875 968 890 q 929 858 935 860 q 783 824 917 856 q 604 793 650 793 q 514 817 556 793 q 450 869 472 840 q 403 924 428 897 q 358 954 378 950 l 339 933 q 359 889 346 911 q 397 833 372 867 q 425 793 421 799 l 410 789 q 319 904 329 900 q 286 878 304 903 q 371 707 286 733 l 364 692 q 344 700 353 694 q 326 715 335 706 q 314 729 318 724 q 301 748 310 735 q 290 767 293 761 l 279 772 l 258 764 l 243 744 l 242 726 q 338 601 236 649 l 326 586 q 268 624 294 603 l 250 625 l 244 618 q 250 606 244 613 q 265 590 256 599 q 275 579 274 581 q 329 508 300 550 q 374 450 358 467 q 427 416 389 433 q 526 392 465 399 l 538 353 q 431 371 508 353 l 458 328 q 579 317 538 311 l 579 292 q 525 292 543 289 l 525 286 q 917 185 728 185 q 1031 193 983 185 q 1101 211 1078 201 q 1174 247 1124 221 q 1264 290 1224 272 q 1297 372 1282 306 q 1313 476 1313 439 m 728 151 q 688 198 728 174 q 624 222 649 222 q 549 198 589 222 q 510 142 510 174 q 540 88 510 107 q 606 69 569 69 q 688 90 649 69 q 728 151 728 111 m 481 203 q 461 261 481 247 q 394 275 442 275 q 330 253 360 275 q 300 197 300 231 q 335 143 300 163 q 408 124 371 124 q 481 203 481 124 m 249 278 l 239 303 q 138 235 168 286 l 151 208 q 249 278 188 261 m 1232 1001 l 1219 1001 q 1203 994 1219 994 q 1183 1013 1183 994 q 1189 1025 1183 1022 q 1153 1010 1167 1025 l 1143 1022 q 1192 1038 1164 1038 q 1232 1001 1228 1038 m 1131 460 q 1101 434 1128 449 q 1072 414 1075 419 q 1067 399 1069 410 q 1063 383 1064 388 q 988 335 1053 363 q 893 307 922 307 q 864 309 883 307 q 835 311 844 311 l 761 311 q 728 328 738 311 q 694 331 719 329 q 657 335 669 333 q 626 343 644 338 q 596 359 608 349 q 575 386 583 369 l 588 399 q 749 357 651 357 q 826 374 794 357 q 849 354 836 361 q 872 347 861 347 q 903 346 882 346 q 939 364 915 346 q 978 385 963 382 l 986 401 l 981 417 q 963 424 965 421 q 960 440 960 435 q 964 456 960 443 l 1003 486 l 1006 501 l 992 504 l 936 475 l 921 499 q 963 518 944 507 q 1000 548 982 529 q 1026 576 1018 567 q 1056 614 1035 586 q 1083 650 1076 642 l 1101 628 l 1099 619 q 1108 597 1100 611 q 1118 578 1115 583 q 1111 565 1117 572 q 1104 553 1106 557 q 1115 534 1107 546 q 1126 515 1124 522 q 1117 489 1114 503 l 1131 460 m 565 699 l 554 689 l 504 724 l 493 717 q 554 675 522 692 q 519 664 549 664 q 436 724 496 664 l 439 740 q 464 725 449 731 q 507 740 490 740 q 523 735 514 740 q 538 724 532 729 q 554 709 544 718 q 565 699 564 700 m 540 636 l 535 631 l 432 663 l 431 672 q 540 636 500 672 z "},"#":{"ha":1717,"x_min":69,"x_max":1647,"o":"m 1647 211 l 1636 178 l 1608 164 q 1511 225 1581 176 q 1388 289 1442 274 q 1338 265 1349 265 q 1449 188 1394 238 q 1525 89 1503 139 l 1513 57 l 1478 43 q 1382 111 1450 51 q 1283 186 1314 171 q 1226 211 1269 193 q 1153 247 1183 229 q 1111 285 1124 264 l 1111 306 l 1086 328 q 874 419 974 347 q 736 592 774 492 l 726 594 q 628 578 683 578 q 529 593 574 578 q 440 550 496 572 q 354 528 385 528 q 311 551 335 528 q 281 596 288 575 l 306 611 q 329 611 313 611 q 351 611 346 611 q 368 612 356 611 q 385 614 381 613 q 400 618 390 615 q 417 625 410 621 q 433 635 424 629 q 453 650 443 642 q 406 674 438 663 q 357 686 375 686 q 256 670 324 686 q 154 654 189 654 q 69 728 101 654 l 92 747 l 169 743 q 258 760 201 742 q 342 778 315 778 q 419 767 367 778 q 497 756 471 756 q 526 764 501 756 q 531 810 529 778 q 537 860 533 843 q 556 899 540 878 q 600 929 572 919 l 601 942 l 582 956 q 574 981 581 964 q 567 1007 567 997 l 571 1021 l 599 1040 l 597 1057 l 622 1094 l 635 1088 q 696 1121 656 1121 l 729 1103 q 732 1061 739 1093 q 725 1024 725 1029 q 747 943 725 967 q 906 889 832 926 q 1028 808 979 851 q 1118 724 1078 765 q 1192 651 1158 683 q 1251 613 1226 619 l 1263 625 q 1242 692 1263 664 q 1192 742 1222 721 q 1132 788 1163 763 q 1076 863 1101 814 q 1043 981 1050 913 l 1063 1006 q 1222 878 1122 996 q 1332 697 1322 761 l 1340 699 q 1306 833 1340 747 q 1272 975 1271 918 l 1274 1024 l 1297 1036 l 1318 1019 q 1352 934 1333 967 q 1382 890 1371 901 q 1401 833 1393 878 q 1410 703 1410 789 q 1440 642 1410 681 q 1501 558 1471 604 q 1528 468 1531 511 q 1497 419 1508 458 l 1464 403 q 1465 353 1474 369 q 1509 328 1471 349 q 1571 294 1547 308 q 1619 256 1594 279 q 1647 211 1644 232 z "},"$":{"ha":1900,"x_min":69,"x_max":1831,"o":"m 1831 453 q 1814 381 1824 438 q 1782 321 1789 369 l 1754 300 q 1643 344 1713 310 q 1544 388 1574 378 q 1406 371 1488 371 q 1361 354 1376 371 q 1336 200 1342 311 q 1542 76 1356 179 q 1781 -50 1729 -28 l 1799 -78 q 1765 -88 1786 -81 q 1729 -99 1744 -96 q 1693 -101 1714 -101 q 1652 -81 1685 -101 q 1578 -33 1619 -61 q 1531 0 1538 -4 l 1524 -3 l 1544 -42 l 1533 -53 l 1511 -54 l 1499 -68 l 1475 -74 l 1438 -68 q 1306 21 1378 -7 q 1178 49 1235 49 q 1055 60 1121 50 q 944 100 989 71 q 937 128 938 119 q 939 149 936 138 q 942 172 942 160 q 925 219 942 181 q 788 344 842 246 q 721 544 733 442 q 655 564 690 542 q 579 610 619 586 q 500 635 539 635 q 444 629 472 635 q 378 613 415 624 q 324 597 340 601 q 217 665 269 613 q 217 738 199 699 l 207 740 q 188 708 203 733 q 167 671 174 682 q 144 644 160 660 q 111 619 129 628 l 81 642 q 75 663 81 644 q 69 689 69 681 l 75 714 q 147 775 110 739 q 205 834 185 811 q 267 906 225 857 l 303 879 q 304 811 314 847 q 455 881 339 819 q 590 964 571 942 q 518 1012 565 993 q 428 1041 471 1031 q 332 1090 385 1051 q 239 1193 279 1128 l 246 1199 q 494 1108 293 1199 q 732 975 696 1018 q 859 919 800 957 q 961 844 918 882 q 1052 769 1004 806 q 1167 708 1100 732 q 1321 685 1235 685 q 1440 663 1353 685 q 1574 642 1526 642 q 1640 621 1586 642 q 1704 589 1694 600 q 1713 539 1717 564 q 1740 526 1717 538 q 1781 504 1764 514 q 1815 480 1799 494 q 1831 453 1831 465 m 1792 432 q 1797 432 1792 432 q 1803 443 1803 432 q 1792 454 1803 454 q 1781 443 1781 454 q 1792 432 1781 432 m 1626 540 q 1619 557 1626 550 l 1581 551 l 1578 544 l 1614 519 q 1626 540 1626 524 m 1429 589 q 1446 597 1446 589 q 1425 615 1446 606 q 1393 624 1404 624 q 1364 618 1383 624 q 1272 607 1319 607 q 1265 597 1265 607 q 1271 588 1265 588 q 1324 592 1307 588 q 1337 595 1328 593 q 1353 599 1346 597 q 1365 600 1360 600 q 1388 594 1375 600 q 1403 589 1401 589 l 1429 589 m 1429 571 q 1426 578 1429 572 l 1418 578 q 1404 571 1417 578 q 1385 564 1392 564 q 1354 575 1360 564 q 1349 579 1353 579 q 1335 568 1335 579 q 1355 552 1335 561 q 1385 543 1375 543 q 1412 553 1394 543 q 1429 571 1429 563 m 1221 144 q 1192 189 1204 156 q 1165 222 1179 222 q 1127 210 1147 222 q 1107 182 1107 199 q 1119 168 1107 171 q 1133 165 1124 167 q 1143 164 1142 164 q 1207 139 1164 161 l 1221 144 z "},"%":{"ha":585,"x_min":69,"x_max":515,"o":"m 515 1200 q 506 1165 514 1186 q 471 1149 489 1150 q 474 1130 471 1144 q 476 1107 476 1115 q 426 924 476 1075 q 376 689 376 774 q 393 635 376 672 q 410 581 410 597 q 367 440 410 544 q 321 304 324 335 q 314 129 314 235 q 327 6 314 89 q 340 -99 340 -78 l 336 -107 l 321 -117 l 283 -99 q 281 -86 279 -99 l 283 -75 l 283 142 q 270 249 285 179 q 253 339 256 319 q 236 210 236 297 q 206 62 236 174 q 185 -117 175 -50 l 168 -125 l 149 -115 q 135 -61 151 -86 l 122 -65 l 106 -57 q 101 28 101 -44 q 83 264 101 182 q 93 286 93 283 q 81 410 93 328 q 69 533 69 492 q 238 707 69 614 q 289 783 254 769 q 419 1085 336 882 l 410 1099 q 378 1094 399 1094 l 372 1099 q 351 1088 364 1097 q 329 1079 338 1079 q 318 1081 326 1079 q 306 1082 310 1083 q 318 1122 304 1100 l 360 1149 l 363 1163 q 404 1185 374 1179 l 404 1211 q 421 1218 404 1214 q 442 1222 438 1222 q 450 1211 450 1222 q 446 1207 450 1207 l 451 1181 l 481 1197 q 515 1200 500 1192 m 424 1150 l 421 1154 q 397 1157 404 1154 q 396 1147 397 1153 q 393 1138 394 1142 q 424 1150 408 1146 m 418 975 l 410 994 l 418 1017 l 406 1028 l 393 994 l 396 978 l 379 943 l 368 936 l 364 925 l 375 908 l 369 863 l 335 860 l 328 844 l 332 821 l 315 778 l 299 776 l 293 767 l 304 739 l 313 738 l 326 756 q 354 760 351 760 q 372 756 364 760 l 375 767 l 351 775 l 339 793 l 344 835 q 386 844 368 851 q 397 957 394 889 l 415 968 l 418 975 m 389 621 l 386 629 l 371 633 l 365 651 l 374 661 l 365 678 l 336 679 l 314 696 l 311 718 l 300 726 l 281 711 q 271 712 278 711 q 261 713 264 713 l 251 711 q 236 679 240 701 q 190 664 208 660 l 192 642 l 164 624 l 147 633 l 138 622 l 147 611 l 140 579 l 132 574 l 133 568 l 185 564 q 208 506 208 517 l 208 450 l 194 449 l 193 439 l 218 428 l 219 386 l 203 372 l 204 361 l 218 365 l 232 360 l 253 367 l 265 414 l 283 431 l 303 413 l 322 417 l 326 450 l 343 468 l 361 468 q 383 531 365 496 l 347 544 l 336 558 q 356 617 356 586 l 389 621 m 153 454 l 138 476 l 139 528 l 135 531 l 126 515 l 113 517 l 106 539 l 121 567 l 107 583 l 103 582 l 106 556 l 82 536 l 82 526 l 94 518 l 94 489 l 83 482 l 85 474 l 103 468 l 103 439 l 90 431 l 92 418 l 110 415 l 113 389 l 121 383 l 131 360 l 115 357 l 106 365 l 107 383 l 94 381 q 99 333 94 365 q 103 283 104 300 q 94 260 93 269 q 107 161 107 210 q 112 121 107 150 q 115 78 117 92 q 113 55 115 74 q 110 28 110 36 q 119 1 110 15 l 111 -25 l 124 -32 l 133 -26 q 131 3 133 -7 q 136 18 136 14 q 128 83 136 39 q 121 149 121 126 q 135 309 121 206 q 153 454 150 413 m 199 264 l 199 324 l 193 324 q 157 240 167 290 q 147 112 147 190 q 146 18 147 33 q 164 42 158 18 q 172 99 169 67 q 176 139 174 132 q 186 172 185 157 q 185 192 188 178 q 183 211 183 206 q 188 233 183 221 q 195 254 192 246 q 199 264 199 263 m 239 344 l 231 346 l 228 332 l 207 328 l 207 260 l 200 244 q 192 225 192 231 q 192 199 192 217 q 193 171 193 181 q 189 126 193 151 q 177 67 185 100 q 167 22 169 33 q 149 -4 149 4 q 154 -47 149 -29 q 149 -65 149 -56 q 153 -73 149 -68 q 158 -78 157 -78 q 175 -74 171 -78 q 172 -42 172 -54 q 178 -24 172 -39 q 185 -6 185 -8 q 187 25 186 4 q 189 56 188 46 q 195 94 192 74 q 203 138 199 114 q 210 176 207 163 q 219 194 211 182 q 228 213 226 207 q 231 253 232 225 q 231 296 229 282 l 222 301 l 222 322 l 236 328 l 239 344 m 358 631 l 329 631 l 328 671 l 358 667 l 358 631 m 318 625 l 290 624 q 288 657 288 646 q 288 682 288 665 q 289 707 289 699 l 300 707 q 308 688 301 704 q 317 665 315 672 q 318 625 318 661 m 279 692 l 271 656 l 246 667 l 251 699 l 261 704 l 279 692 m 342 592 l 332 572 l 317 568 l 294 589 l 293 607 l 304 615 l 335 615 l 342 592 m 279 635 l 278 589 l 246 585 q 245 590 246 586 q 244 596 244 594 q 249 610 244 597 l 253 622 l 251 629 l 250 636 l 258 650 q 279 635 275 647 m 244 656 l 232 640 q 217 633 218 633 l 207 640 l 210 657 l 232 667 l 244 656 m 368 525 q 351 476 358 503 l 325 488 l 318 513 l 332 533 q 368 525 361 533 m 325 546 l 293 511 l 260 519 l 249 567 l 281 582 l 301 574 q 325 546 303 572 m 244 622 l 235 599 q 235 578 235 592 q 236 557 236 564 l 217 529 l 207 529 q 192 583 203 547 l 207 622 l 238 629 l 244 622 m 311 488 l 290 475 l 279 499 l 303 504 l 311 488 m 322 468 l 315 443 l 300 450 l 301 467 l 313 474 l 322 468 m 192 615 l 182 582 l 172 574 l 151 574 l 154 610 q 182 621 164 618 l 192 615 m 256 514 l 233 490 l 217 499 l 217 518 l 236 543 l 246 540 l 256 514 m 278 456 l 261 447 l 233 458 l 231 478 l 250 492 l 271 489 l 278 456 m 258 428 l 246 379 l 228 383 l 225 440 l 239 443 l 258 428 m 136 458 l 133 431 l 119 428 l 111 440 l 115 467 l 101 485 l 104 503 l 118 506 l 132 485 l 121 471 l 136 458 m 143 386 l 122 390 l 126 418 l 143 418 l 143 386 z "},"&":{"ha":1918,"x_min":69,"x_max":1849,"o":"m 1849 650 l 1826 625 l 1786 629 l 1769 619 q 1803 571 1789 586 q 1782 554 1804 560 q 1744 576 1774 558 q 1694 601 1714 594 q 1568 564 1590 564 q 1430 586 1522 564 q 1294 608 1338 608 q 1175 592 1232 608 q 1074 532 1118 575 q 1031 425 1031 489 q 1084 342 1031 401 q 1147 265 1138 283 q 1107 164 1147 263 l 1117 142 q 1134 135 1125 136 q 1154 137 1143 135 q 1172 139 1165 139 l 1189 126 l 1172 101 l 1138 106 l 1125 99 q 1150 71 1131 88 q 1175 42 1169 54 l 1156 26 l 1075 74 q 1062 67 1068 75 q 1054 53 1056 60 l 1061 13 l 1035 -6 l 997 68 q 951 42 978 50 l 939 58 q 987 125 944 69 q 1029 196 1029 181 q 1010 258 1029 228 q 963 300 992 288 q 869 183 915 250 q 793 76 822 115 q 717 -3 764 36 q 599 -60 671 -42 q 422 -78 528 -78 q 303 -65 381 -78 q 147 -21 225 -53 q 69 51 69 11 l 76 60 q 185 40 108 54 q 318 19 261 26 q 428 11 375 11 q 663 94 561 11 q 764 307 764 176 q 764 315 764 310 q 700 461 765 461 q 628 433 656 461 q 600 365 601 404 q 613 286 599 326 l 604 269 q 536 307 571 276 q 479 258 511 279 l 468 275 l 472 308 q 401 313 472 347 l 390 321 l 432 376 q 397 382 418 388 l 381 397 q 397 407 389 403 q 416 413 406 411 q 430 414 426 414 q 449 414 433 414 q 467 414 464 414 q 532 435 508 414 q 576 495 556 456 q 614 554 596 535 q 653 563 633 563 q 697 560 672 564 q 735 556 721 556 l 760 560 q 776 572 764 560 q 801 599 788 583 l 815 614 q 945 709 849 653 q 1054 786 1042 765 l 1013 863 q 1042 929 1021 888 q 1068 981 1064 971 l 1061 1003 q 1007 1043 1024 1010 l 1019 1053 q 1067 1043 1051 1043 q 1076 1045 1072 1043 q 1082 1051 1081 1047 q 1083 1058 1083 1054 q 1083 1069 1083 1063 q 1081 1078 1082 1075 q 1077 1088 1079 1082 q 1075 1094 1075 1093 l 1082 1106 q 1147 1064 1118 1090 l 1194 1113 l 1210 1094 l 1189 1040 q 1195 1029 1189 1035 q 1208 1024 1201 1024 l 1274 1053 q 1287 1046 1281 1051 q 1292 1033 1293 1040 q 1235 995 1265 1006 q 1185 966 1206 985 q 1140 890 1164 947 q 1233 786 1158 786 q 1276 804 1249 786 q 1330 844 1303 822 q 1401 883 1357 865 q 1493 901 1446 901 q 1575 853 1575 901 q 1562 797 1575 828 q 1529 751 1549 765 q 1489 740 1521 749 q 1435 722 1457 731 q 1404 700 1414 713 q 1426 668 1411 681 q 1463 651 1440 656 q 1499 646 1485 647 q 1540 644 1514 644 q 1650 679 1607 644 q 1660 701 1654 686 q 1671 723 1667 715 q 1683 741 1675 731 q 1701 758 1692 751 q 1711 719 1711 750 q 1722 696 1711 718 l 1793 735 l 1804 718 q 1786 667 1789 696 l 1804 658 l 1835 663 l 1849 650 m 1526 808 q 1494 828 1526 828 q 1479 820 1488 828 q 1471 807 1471 813 l 1471 801 q 1478 783 1471 786 l 1526 808 z "},"(":{"ha":1332,"x_min":69,"x_max":1263,"o":"m 1263 856 l 1247 856 q 1116 890 1213 879 q 882 906 1019 901 q 721 911 744 910 q 699 842 699 881 q 703 799 699 832 q 704 749 707 767 q 782 604 746 719 q 818 425 818 489 q 792 269 818 349 q 777 237 789 264 q 756 186 765 210 q 746 161 746 163 l 751 161 q 921 206 864 158 q 935 258 917 235 q 956 292 953 281 q 935 342 951 310 q 914 389 918 375 q 971 478 922 432 l 978 475 q 995 429 982 460 q 1013 383 1008 399 l 972 304 q 1043 329 1011 329 q 1079 312 1060 329 q 1119 267 1099 294 q 1146 233 1139 240 l 1143 228 q 1097 233 1128 231 q 1052 238 1067 235 q 1022 256 1038 240 q 1001 303 1007 272 l 971 289 q 965 259 971 279 q 960 231 960 239 l 961 217 l 982 219 l 1004 204 l 996 147 q 1018 108 1010 128 q 977 85 1013 103 q 899 48 942 68 q 844 22 856 28 q 868 6 858 10 q 883 1 878 1 q 901 3 889 1 q 925 6 914 6 l 956 0 q 1025 -106 982 -25 l 1022 -112 q 911 -97 947 -110 l 882 -68 l 876 -17 q 824 10 846 10 q 719 -9 782 10 q 609 -46 657 -28 q 557 -64 561 -64 q 435 -59 517 -64 q 314 -54 354 -54 q 260 -66 299 -54 q 176 -94 222 -78 q 117 -114 131 -110 l 93 -97 q 89 -39 82 -62 q 69 6 69 -17 l 74 42 l 93 61 q 282 107 250 96 l 299 142 l 338 163 q 358 231 349 186 q 285 381 317 269 q 254 564 254 492 q 282 703 254 636 l 269 711 q 296 742 281 728 l 290 747 l 271 728 l 261 738 q 284 764 272 751 q 313 790 296 776 q 339 810 329 803 q 372 832 349 817 q 400 851 394 847 q 452 1063 400 1007 q 651 1119 504 1119 q 747 1128 682 1119 q 846 1138 813 1138 q 1013 1101 917 1138 q 1185 998 1108 1065 q 1263 856 1263 931 m 1058 1053 q 963 1098 1058 1075 q 826 1121 868 1121 q 668 1101 701 1121 q 667 1086 667 1096 q 672 1057 667 1076 q 678 1028 678 1038 q 672 1006 678 1015 q 861 991 725 1006 q 1026 963 997 976 q 1058 1053 1026 1011 m 1064 925 q 953 964 1064 939 q 739 988 832 988 q 728 988 738 988 q 713 988 718 989 q 699 987 707 988 q 686 982 690 986 q 682 972 682 978 q 723 943 682 956 q 822 926 764 931 q 922 919 881 921 q 988 917 964 917 q 1064 925 1064 917 m 707 572 q 686 699 707 617 q 665 822 665 781 q 692 915 665 864 q 657 937 667 925 q 647 958 647 949 q 651 990 647 968 q 654 1029 654 1013 q 650 1060 654 1039 q 646 1093 646 1082 q 626 1097 629 1097 q 522 1032 571 1097 q 435 826 501 1004 q 368 618 368 649 q 369 562 368 582 q 374 510 369 542 q 387 462 378 479 q 410 426 396 444 q 451 399 425 407 q 510 390 476 390 q 707 572 707 390 m 589 149 q 529 168 589 168 q 492 156 492 168 q 535 124 492 124 q 589 149 589 124 m 424 128 l 424 138 q 421 171 424 149 q 408 185 418 185 q 389 168 401 185 q 376 143 376 151 q 396 129 376 136 q 417 128 401 128 l 424 128 m 636 1036 q 610 1011 636 1011 q 591 1019 599 1011 q 583 1036 583 1026 q 610 1061 583 1061 q 628 1053 621 1061 q 636 1036 636 1046 m 617 989 q 611 988 615 989 q 606 988 607 988 q 564 1015 576 988 l 574 1018 q 606 997 579 997 l 608 997 q 613 999 611 999 l 617 989 m 611 1025 q 618 1025 611 1025 q 625 1039 625 1025 q 611 1053 625 1053 q 597 1039 597 1053 q 611 1025 597 1025 z "},")":{"ha":942,"x_min":69,"x_max":872,"o":"m 872 736 q 803 711 861 714 l 790 721 q 720 851 788 757 q 617 925 653 944 q 583 911 589 911 l 582 922 l 588 933 l 565 953 q 540 892 540 932 q 554 808 540 863 q 568 722 568 753 q 558 615 568 650 q 514 513 549 581 q 487 493 510 506 q 442 470 464 481 q 418 458 419 460 q 383 421 417 456 q 332 367 350 386 q 279 310 314 349 q 224 242 244 271 q 179 181 203 214 q 144 120 156 147 q 133 74 133 93 q 165 -18 133 29 q 239 -65 196 -65 q 339 -25 290 -65 q 350 26 350 1 q 338 79 350 64 q 286 114 325 94 l 249 101 l 233 75 q 242 40 233 64 q 250 7 250 17 l 240 6 q 199 75 199 42 q 203 98 199 88 q 211 115 207 108 q 226 128 215 121 q 242 138 238 136 q 264 147 247 140 q 283 154 281 153 q 394 25 394 138 q 349 -70 394 -32 q 247 -108 304 -108 q 119 -48 169 -108 q 69 92 69 13 q 99 208 69 150 q 166 307 129 267 q 241 401 203 347 q 292 503 279 456 l 281 514 q 238 490 261 499 l 218 506 q 211 576 211 535 q 235 675 211 621 q 296 731 258 729 q 331 686 317 718 l 343 711 l 332 736 l 340 768 q 328 797 328 793 q 347 842 346 819 l 339 865 q 358 904 351 882 q 351 933 347 918 q 374 976 365 947 q 368 1004 367 992 q 408 1046 381 1011 q 436 1092 436 1081 q 479 1114 465 1100 l 479 1125 l 490 1140 q 508 1138 497 1142 q 521 1133 519 1133 l 579 1144 l 613 1165 q 658 1153 625 1158 l 674 1168 l 672 1185 l 682 1196 l 707 1200 q 719 1154 717 1179 q 749 1127 733 1138 q 768 1113 764 1117 q 772 1101 772 1110 q 763 1068 771 1092 q 764 1036 764 1065 q 767 1031 764 1032 q 777 1030 771 1031 q 788 1028 783 1029 l 790 1013 q 782 956 790 994 q 774 901 774 918 q 801 833 774 879 q 849 763 828 786 l 861 763 l 872 736 m 775 967 q 739 1001 775 999 q 724 1004 735 1004 q 711 997 718 1004 q 705 983 711 996 q 699 961 699 969 q 706 945 699 956 q 714 931 713 935 l 739 931 q 775 967 775 931 m 526 1078 q 513 1101 526 1090 q 492 1092 504 1101 q 481 1075 481 1083 q 488 1065 481 1069 q 503 1061 496 1061 q 526 1078 526 1061 m 474 1039 q 463 1058 474 1043 q 453 1053 461 1057 q 442 1047 446 1050 q 439 1036 439 1043 q 457 1028 447 1028 q 474 1039 474 1028 m 443 992 q 436 1007 443 1000 q 422 1014 429 1014 q 408 1002 417 1014 q 399 983 399 990 q 413 979 399 979 q 443 992 431 979 m 492 936 q 456 943 485 943 q 444 929 451 943 q 444 923 444 928 q 442 915 443 918 l 465 914 l 492 936 m 419 946 q 408 955 419 950 q 394 960 397 960 q 382 940 392 960 q 381 921 381 935 q 399 924 393 921 q 406 929 401 925 q 414 939 410 933 q 419 946 418 944 m 482 890 q 471 891 478 890 q 460 892 464 892 l 453 892 q 439 890 442 892 l 439 885 q 440 865 439 872 q 446 865 442 865 q 453 864 450 864 l 458 864 q 467 865 465 864 q 482 890 482 886 m 476 835 l 461 835 l 458 836 q 454 836 456 836 q 436 833 440 836 q 431 815 431 828 q 435 806 431 807 q 442 806 436 806 q 451 804 449 806 l 456 803 q 468 804 467 803 q 475 818 475 811 q 475 825 475 819 l 476 831 l 476 835 m 403 886 q 396 893 403 889 l 393 893 q 388 894 392 893 q 381 894 383 894 q 373 889 376 894 q 369 879 369 883 l 369 874 q 371 864 369 867 q 392 870 381 864 q 403 886 403 876 m 492 768 q 443 771 476 771 q 428 751 428 771 q 433 736 428 738 q 451 735 435 736 q 468 733 467 733 q 492 768 478 733 m 393 835 l 368 835 q 363 813 363 835 q 372 790 363 790 q 393 835 393 790 m 489 699 q 435 707 472 707 q 428 686 428 703 q 465 656 428 656 q 482 690 472 681 q 489 699 482 692 m 396 769 q 369 772 378 769 q 363 753 363 771 q 368 739 363 739 q 390 757 376 739 q 396 769 392 758 m 481 626 q 458 634 479 631 q 429 638 438 638 q 423 631 426 638 q 419 622 419 625 l 419 601 q 447 588 419 597 q 472 621 457 608 q 481 626 475 621 m 317 679 l 294 699 l 285 699 l 285 690 l 308 671 l 317 679 m 464 554 q 451 560 461 556 q 433 567 442 564 q 421 569 424 569 q 406 560 413 569 l 406 546 q 431 526 421 526 l 438 533 q 447 543 442 540 q 464 554 464 549 m 300 647 l 271 665 q 264 663 267 665 l 264 660 q 265 654 264 654 l 294 638 l 300 647 m 286 619 l 256 629 q 247 626 251 631 l 247 624 q 251 617 247 619 l 282 608 l 286 619 m 279 585 l 247 589 q 240 585 242 589 q 244 578 240 582 l 275 572 l 279 585 m 275 539 l 272 551 l 243 544 q 239 538 239 543 q 246 532 239 529 l 275 539 m 371 447 l 371 457 q 337 439 361 457 q 308 410 313 421 q 299 390 303 396 q 261 357 278 390 q 229 322 243 350 q 191 269 213 314 q 168 224 169 224 q 140 176 153 208 q 126 122 126 144 l 132 122 q 139 153 135 144 q 163 192 140 157 q 188 228 186 226 q 193 245 190 231 q 203 263 196 260 q 222 284 213 267 q 235 304 231 301 q 261 330 243 310 q 282 357 279 350 q 293 374 288 372 q 322 395 314 379 q 336 413 329 411 q 371 447 347 414 m 756 967 q 739 949 756 949 q 722 967 722 949 q 739 982 722 982 q 756 967 756 982 z "},"*":{"ha":1164,"x_min":69,"x_max":1094,"o":"m 1094 449 q 1040 366 1094 439 q 934 228 986 293 q 879 160 882 163 q 833 137 872 154 q 788 97 794 119 l 803 89 l 803 74 q 828 54 822 68 q 768 38 804 38 q 838 15 776 28 q 917 3 900 1 l 929 -11 l 913 -22 l 932 -46 l 929 -50 q 908 -58 913 -58 q 809 -45 869 -58 q 721 -15 749 -32 l 693 -25 l 685 -10 q 710 44 688 10 l 707 58 q 618 50 672 50 q 462 92 535 50 q 355 173 389 135 q 254 300 321 211 q 239 319 244 313 q 188 333 221 326 q 136 347 156 340 q 97 372 117 353 q 69 421 78 390 q 131 436 83 431 q 197 450 178 442 l 182 469 l 186 483 q 463 578 278 506 q 753 672 647 650 q 819 726 819 686 q 790 852 819 767 q 761 985 761 938 q 797 1121 761 1057 q 900 1185 833 1185 q 924 1180 907 1185 q 942 1175 940 1175 q 960 1158 944 1172 q 989 1132 976 1144 q 1003 1114 1001 1119 q 1027 1098 1013 1106 q 1051 1081 1042 1090 q 1068 1051 1061 1071 l 1061 1042 l 1051 1043 l 1025 1064 q 969 1068 997 1061 l 963 1060 q 985 1058 965 1060 q 1021 1052 1006 1056 q 1038 1043 1036 1049 q 985 1027 1028 1040 q 921 1014 943 1014 q 911 944 911 975 q 940 859 911 908 q 1003 763 968 810 q 1066 631 1038 715 q 1094 449 1094 547 m 1054 557 q 1013 697 1054 625 q 929 833 971 769 q 888 946 888 897 q 911 1028 888 997 q 942 1033 919 1031 q 978 1042 964 1036 l 951 1056 q 964 1071 954 1061 l 971 1097 q 951 1149 958 1121 q 897 1169 922 1169 q 813 1106 843 1169 q 782 981 782 1042 q 815 840 782 924 q 847 749 847 757 q 776 653 847 671 q 694 636 751 647 q 607 617 636 625 q 417 545 544 600 q 210 474 289 490 l 214 457 l 235 450 l 308 472 l 310 461 q 267 441 281 447 q 232 426 254 435 q 194 416 210 418 q 156 413 178 414 q 108 417 133 413 l 93 406 l 110 381 q 181 363 132 369 q 250 344 231 356 q 303 294 276 329 q 356 224 331 260 q 416 154 381 189 q 513 98 451 119 q 656 76 574 76 q 701 83 667 76 l 697 147 q 717 156 701 156 l 735 144 l 739 97 q 804 154 776 125 q 863 223 832 183 q 917 286 894 263 q 981 349 943 315 q 1028 398 1019 383 q 1046 450 1038 413 q 1054 557 1054 488 m 933 1133 q 918 1121 933 1121 q 904 1133 906 1121 l 892 1126 l 886 1133 q 919 1147 894 1147 q 933 1133 933 1147 m 913 553 q 820 407 913 510 q 689 304 728 304 q 644 321 674 304 q 603 307 629 307 q 550 324 583 307 q 524 314 533 314 q 468 339 493 314 q 442 335 443 335 q 425 338 436 335 q 411 352 422 340 q 391 371 400 364 q 374 378 382 378 q 328 367 358 378 q 282 357 299 357 q 253 365 265 357 q 246 389 246 383 q 253 415 246 394 l 267 415 l 264 396 l 275 385 q 311 394 288 386 q 339 403 335 401 q 367 393 358 393 q 376 396 371 393 l 374 408 l 382 411 q 425 371 396 383 q 437 376 429 372 q 449 381 444 379 q 465 368 451 378 q 489 351 478 358 q 504 344 500 344 q 550 358 531 344 q 590 336 572 336 q 609 344 594 336 q 631 353 624 353 q 657 343 638 353 q 682 333 676 333 q 801 431 714 333 q 888 567 888 529 q 842 621 888 621 l 842 635 q 892 609 872 635 q 913 553 913 583 m 928 1135 l 921 1140 l 915 1135 l 921 1129 l 928 1135 z "},"+":{"ha":2217,"x_min":69,"x_max":2147,"o":"m 2147 733 q 2121 676 2144 696 q 2063 668 2094 668 l 2061 663 l 2088 644 l 2085 639 q 1899 558 2010 629 q 1707 482 1788 488 q 1647 431 1676 457 q 1610 396 1618 404 q 1578 376 1601 388 q 1528 360 1556 365 q 1446 347 1501 356 q 1415 253 1432 317 q 1399 161 1399 189 q 1424 -14 1399 74 l 1408 -19 q 1349 -6 1376 -19 l 1342 18 q 1313 54 1324 25 q 1295 128 1303 83 q 1286 182 1288 174 l 1278 182 q 1242 97 1251 147 q 1257 22 1251 68 q 1185 44 1217 19 l 1181 79 q 1165 97 1172 82 q 1175 222 1175 194 l 1175 228 q 872 185 1061 185 q 682 204 758 185 q 483 276 606 224 q 444 261 463 276 q 422 135 422 186 q 436 77 422 110 q 453 26 450 44 l 431 19 l 403 26 q 363 79 390 63 q 349 153 351 113 l 343 154 q 331 110 333 131 q 332 60 329 90 q 335 18 335 31 l 332 -8 q 276 10 304 -12 q 253 75 271 29 q 226 157 235 121 q 218 232 218 193 q 243 286 218 254 q 174 409 204 311 q 140 600 144 507 q 153 753 136 693 l 128 767 q 108 721 111 733 q 110 688 106 708 q 114 644 114 667 q 96 600 114 642 q 98 584 100 594 q 89 569 96 574 q 69 644 69 632 q 117 775 69 706 l 96 789 l 86 811 l 92 843 l 115 853 l 138 843 q 136 778 153 804 l 157 767 q 299 935 196 874 q 519 997 401 997 q 850 958 631 997 q 1179 919 1069 919 q 1399 947 1256 919 q 1614 975 1542 975 q 1648 972 1631 975 q 1675 968 1665 969 q 1704 959 1685 967 q 1728 949 1724 951 q 1757 935 1732 947 q 1785 922 1782 924 q 1932 974 1888 974 l 1958 971 l 1964 960 l 1938 947 q 1991 933 1961 946 q 2032 903 2021 921 l 2013 878 l 1979 878 l 1938 849 q 2016 778 1967 799 q 2117 781 2065 757 l 2138 765 l 2147 733 m 2135 733 l 2117 765 q 2069 751 2082 751 q 1987 775 2028 751 q 1924 835 1946 799 q 1832 781 1883 789 l 1794 790 l 1779 810 q 1783 819 1778 817 q 1799 822 1789 822 q 1818 819 1808 821 q 1837 814 1828 817 q 1847 811 1846 811 q 1893 842 1860 818 q 1950 878 1926 865 q 2001 900 1974 892 l 2003 911 q 1972 920 1999 913 q 1935 928 1946 928 q 1781 893 1888 928 q 1594 946 1650 946 q 1431 919 1539 946 q 1290 888 1324 892 q 1317 840 1304 872 q 1331 788 1331 807 q 1138 636 1331 636 q 1039 651 1093 636 q 938 701 985 665 q 892 781 892 736 q 894 803 892 793 q 902 824 896 814 q 913 842 908 835 q 928 859 917 849 q 942 873 939 869 q 962 888 946 876 q 979 901 978 900 q 766 937 932 907 q 513 967 600 967 q 280 881 381 967 q 179 667 179 796 q 192 571 179 608 q 240 474 206 533 l 235 399 q 257 323 232 371 q 285 269 282 275 l 260 213 q 282 51 278 125 l 293 40 l 304 42 q 321 193 304 146 q 355 217 340 204 q 385 249 369 231 q 411 278 400 268 q 506 315 460 286 q 551 385 551 343 l 565 389 l 575 385 q 686 288 582 322 q 872 253 790 253 q 981 267 935 253 q 1053 298 1028 281 q 1121 348 1078 315 q 1201 401 1164 381 q 1314 342 1232 368 q 1308 296 1315 325 q 1300 254 1300 267 q 1319 191 1300 229 q 1340 140 1338 153 q 1345 91 1344 128 q 1357 33 1346 54 l 1371 33 l 1382 36 q 1368 160 1368 103 q 1384 267 1368 196 q 1401 369 1400 338 l 1454 399 l 1481 447 q 1574 476 1540 444 q 1608 564 1608 507 q 1611 571 1608 567 q 1617 574 1614 575 q 1735 522 1679 522 q 1863 614 1822 522 l 1872 617 l 1896 610 q 2033 654 1990 644 l 2035 663 q 1981 668 2006 669 l 1958 694 q 1974 697 1960 699 q 1999 693 1989 694 q 2024 688 2008 692 q 2042 683 2040 683 l 2088 710 l 2115 699 l 2126 708 l 2135 733 m 129 806 q 115 838 129 838 q 101 811 101 838 q 124 786 101 800 q 129 806 129 794 m 2125 736 l 2115 725 l 2111 736 l 2117 747 q 2122 742 2121 747 l 2125 736 m 1943 776 q 1935 767 1943 769 q 1893 776 1933 768 l 1935 790 q 1943 776 1943 782 m 844 815 q 805 774 844 789 q 732 760 765 760 q 688 761 701 760 q 660 776 674 763 q 646 817 646 789 q 656 851 646 838 q 687 868 665 864 q 719 873 708 872 q 757 874 731 874 q 817 860 790 874 q 844 815 844 846 m 897 629 q 854 561 897 561 q 783 583 818 561 q 747 638 747 604 q 821 707 747 707 q 875 684 853 707 q 897 629 897 661 z "},",":{"ha":1576,"x_min":69,"x_max":1507,"o":"m 1507 1029 q 1378 1038 1474 1038 q 1306 1032 1338 1038 q 1266 1003 1296 1022 q 1226 965 1236 983 q 1228 915 1217 946 l 1221 914 l 1210 921 l 1211 911 l 1196 906 l 1188 915 l 1182 903 l 1172 900 l 1164 906 l 1160 897 l 1147 894 l 1140 903 l 1135 892 l 1124 889 l 1115 897 l 1110 886 q 1086 885 1103 885 l 1074 876 q 1046 964 1046 922 q 1101 1132 1046 1069 q 1258 1194 1156 1194 q 1318 1174 1294 1194 q 1376 1125 1342 1154 q 1465 1079 1411 1096 q 1504 1057 1500 1067 q 1507 1029 1507 1049 m 1393 574 q 1378 483 1393 525 q 1347 413 1364 440 q 1291 353 1329 385 q 1230 308 1253 322 q 1156 264 1207 293 q 1086 222 1106 235 q 1020 176 1064 208 q 941 124 976 144 q 867 93 906 103 l 864 88 l 889 69 l 874 53 q 913 43 885 46 q 964 29 942 40 q 996 -10 986 18 q 929 -44 985 -28 l 921 -72 l 896 -87 q 679 -10 753 -62 l 681 18 q 703 61 701 42 l 696 78 q 521 98 621 78 q 323 163 421 118 q 190 263 225 207 q 136 289 153 265 q 69 350 71 296 l 79 350 q 131 328 97 328 l 136 331 q 129 340 136 332 q 124 357 122 349 q 146 400 129 372 l 154 392 l 153 365 l 168 353 q 358 458 219 374 l 357 467 q 317 456 331 464 l 310 460 l 307 483 q 642 628 425 538 q 904 725 860 719 q 960 726 907 725 q 1046 735 1013 728 q 1085 763 1079 743 q 1081 839 1092 788 l 1099 843 l 1104 835 q 1128 843 1113 835 q 1151 851 1143 851 l 1168 861 q 1197 871 1185 871 q 1219 880 1199 871 q 1240 888 1239 889 q 1347 733 1300 819 q 1393 574 1393 646 m 1493 1044 q 1438 1075 1493 1063 q 1381 1100 1408 1083 q 1342 1129 1363 1111 q 1310 1117 1324 1117 q 1322 1079 1322 1092 q 1319 1067 1322 1069 l 1493 1044 m 1258 1132 q 1250 1149 1258 1142 q 1232 1157 1242 1157 q 1213 1149 1221 1157 q 1204 1131 1204 1142 q 1233 1107 1204 1107 q 1258 1132 1258 1107 m 1051 664 q 961 689 1051 689 q 799 658 914 689 q 661 606 683 628 l 661 590 q 674 586 664 586 l 681 589 q 690 592 688 592 q 708 586 696 592 q 721 581 719 581 q 742 590 728 582 q 771 597 756 597 q 785 586 778 597 q 801 575 793 575 q 851 588 817 575 q 901 600 885 600 q 920 584 913 600 q 935 568 928 568 q 974 583 947 568 q 982 583 976 583 q 990 582 988 582 q 998 583 994 582 q 1003 586 1001 583 q 1007 590 1006 589 q 1010 597 1008 592 q 1013 603 1011 601 q 1033 626 1014 608 q 1051 664 1051 643 m 1132 643 l 1121 650 q 1096 635 1107 649 q 1078 558 1081 567 q 1073 546 1075 551 q 1069 538 1071 540 q 1063 532 1067 535 q 1056 527 1058 529 q 1048 522 1054 525 q 1038 515 1042 518 q 1017 492 1028 510 q 905 402 979 438 q 763 367 831 367 q 682 394 731 367 q 625 396 626 394 q 600 419 607 414 l 575 421 q 553 408 554 421 q 576 383 556 403 q 603 349 596 363 q 624 356 611 350 q 646 361 638 361 q 664 347 647 360 q 692 329 681 335 q 713 324 703 324 q 770 336 732 324 q 829 349 808 349 q 925 356 903 349 q 994 411 947 364 q 1056 476 1043 460 q 1094 550 1064 489 q 1132 643 1132 631 m 867 435 l 863 443 q 846 440 851 440 q 814 460 833 440 q 794 457 808 457 q 782 472 790 467 q 744 481 758 472 q 725 501 729 490 q 714 520 721 511 q 696 529 707 529 q 654 519 682 529 q 614 510 626 510 q 599 517 608 510 q 585 526 589 525 q 560 519 576 524 q 538 511 544 514 q 524 524 533 514 q 504 533 514 533 q 477 528 494 533 q 438 513 460 522 q 408 501 415 504 l 404 494 q 451 469 432 474 q 507 464 469 464 q 578 474 539 464 q 643 492 617 483 q 672 501 669 501 q 695 486 682 501 q 711 469 708 471 q 740 471 731 469 q 768 439 753 454 q 780 442 771 439 q 793 446 789 446 q 821 419 803 438 q 867 435 858 429 m 953 -6 l 951 6 q 932 15 940 6 q 922 24 924 24 q 881 20 908 24 q 839 17 853 17 q 789 33 804 17 q 776 68 774 49 q 773 103 778 88 q 751 119 768 119 q 728 110 733 119 q 731 68 728 94 q 733 32 733 42 l 710 8 q 802 -23 729 0 q 893 -58 875 -46 q 907 -54 900 -58 l 907 -50 q 888 -26 899 -37 q 953 -6 901 -15 m 1374 1089 l 1371 1086 l 1353 1097 l 1360 1103 l 1374 1089 m 1242 1135 q 1232 1125 1242 1131 q 1228 1128 1231 1126 q 1224 1131 1226 1129 q 1222 1135 1222 1133 l 1232 1143 l 1242 1135 z "},"-":{"ha":1486,"x_min":69,"x_max":1417,"o":"m 1417 974 l 1390 903 q 1381 894 1382 904 q 1385 886 1381 888 l 1343 819 l 1332 819 l 1340 807 l 1272 732 l 1260 736 l 1265 718 l 1146 597 l 1136 599 l 1139 581 l 1072 522 l 1061 525 l 1054 503 l 1038 506 l 1038 494 l 974 443 l 964 447 l 964 433 l 896 389 q 886 385 892 396 q 886 375 883 379 q 847 358 874 367 q 811 344 819 349 l 811 335 l 778 308 l 767 315 l 761 304 l 718 292 l 651 413 q 576 334 639 400 q 452 205 514 268 q 319 73 390 142 q 192 -38 249 4 q 111 -81 136 -81 q 83 -72 108 -81 l 69 -50 q 169 115 69 17 q 410 322 268 214 q 576 454 553 431 q 702 600 610 486 q 878 815 794 714 q 1063 999 963 915 q 1228 1083 1163 1083 l 1254 1081 l 1268 1064 l 1268 1046 l 1417 974 m 1213 1004 q 1197 1026 1213 1026 q 1185 1017 1186 1019 q 1139 949 1176 1007 q 1078 865 1101 892 q 914 710 1010 789 q 860 667 910 707 q 773 596 810 628 q 735 557 736 564 l 743 543 l 760 544 q 917 672 826 596 q 1110 855 1008 749 q 1213 1004 1213 961 m 1397 967 l 1265 1029 l 1260 1006 l 1353 953 l 1350 947 l 1254 989 l 1247 975 l 1328 929 l 1326 925 l 1240 958 l 1226 935 l 1301 886 l 1300 881 l 1217 921 l 1206 906 l 1288 851 l 1286 847 l 1196 892 l 1182 875 l 1265 818 l 1264 814 l 1172 861 l 1156 844 l 1229 782 l 1228 778 l 1143 832 l 1128 815 l 1203 754 l 1201 750 l 1118 804 l 1101 788 l 1176 724 l 1175 719 l 1089 775 l 1067 753 l 1138 693 l 1136 689 l 1054 742 l 1039 726 l 1107 661 l 1106 656 l 1026 714 l 1004 696 l 1069 625 l 1068 621 l 992 685 l 974 669 l 1039 599 l 1038 594 l 961 658 l 943 644 l 1008 567 l 1006 564 l 932 635 l 918 624 l 981 546 l 978 543 l 906 613 l 890 600 l 956 519 l 953 517 l 876 589 l 858 575 l 921 497 l 918 494 l 847 565 l 817 542 l 861 474 l 857 471 l 806 532 l 775 510 l 807 461 l 803 458 l 767 501 q 663 421 692 447 l 726 308 l 754 318 l 758 339 l 772 325 l 796 343 l 796 361 l 825 358 l 869 385 l 869 417 l 890 404 l 949 442 l 946 472 l 969 460 l 1021 501 l 1024 528 l 1046 522 l 1049 546 l 1064 539 l 1122 586 l 1119 621 l 1142 614 l 1182 654 l 1168 682 l 1199 672 l 1247 721 l 1235 763 l 1268 749 l 1319 808 l 1304 836 l 1333 835 l 1364 886 l 1342 911 l 1375 908 l 1397 967 m 468 285 q 454 294 468 288 q 449 293 453 294 q 444 290 446 292 q 334 180 418 271 q 226 68 250 89 q 197 45 219 63 q 155 13 175 28 q 133 -6 135 -3 q 130 -11 132 -7 q 126 -18 128 -15 l 129 -28 l 139 -33 q 467 268 190 -25 l 468 285 z "},".":{"ha":528,"x_min":69,"x_max":458,"o":"m 458 975 l 429 963 q 392 1035 425 1003 q 321 1068 360 1068 l 314 997 l 208 997 l 192 1086 q 140 1099 176 1099 q 111 1082 119 1099 q 107 1075 108 1078 l 69 1075 l 69 1178 l 110 1178 q 149 1157 119 1157 q 194 1181 185 1157 q 242 1183 210 1183 q 394 1124 332 1183 q 458 975 456 1065 m 321 982 q 315 933 321 965 q 308 883 308 900 l 313 25 l 301 11 q 257 6 283 6 q 210 25 229 6 l 214 883 q 208 935 214 900 q 201 982 203 969 l 321 982 z "},"/":{"ha":410,"x_min":69,"x_max":340,"o":"m 340 903 q 311 813 340 874 q 282 708 282 753 q 288 365 282 590 q 296 101 294 140 q 267 48 297 69 q 204 26 238 26 q 154 45 176 26 q 133 92 132 64 l 147 693 q 117 778 147 728 q 96 769 108 769 q 69 799 69 769 q 85 822 69 813 q 69 876 69 872 q 89 941 69 918 q 150 988 108 964 l 179 907 l 203 893 l 210 897 l 224 929 l 194 1003 q 242 1019 210 1019 q 314 985 288 1019 q 340 903 340 950 m 324 903 q 228 1006 324 1006 l 256 940 l 238 897 l 199 878 l 167 897 l 142 967 q 100 888 100 946 q 140 806 100 875 q 179 704 181 736 l 165 101 q 184 65 164 78 q 229 53 204 53 q 265 67 250 53 q 281 101 281 81 q 273 365 279 140 q 267 708 267 590 q 295 813 267 753 q 324 903 324 872 m 264 792 l 190 751 l 150 822 l 225 863 l 264 792 m 258 110 q 224 74 258 74 q 188 110 188 74 q 197 137 188 126 q 224 147 207 147 q 249 136 239 147 q 258 110 258 125 m 250 797 l 225 846 l 210 838 l 236 790 l 250 797 m 228 788 l 201 833 l 188 825 l 214 779 l 228 788 m 207 775 l 179 821 l 164 814 l 193 767 l 207 775 m 224 83 l 224 88 q 199 119 224 108 q 198 115 199 118 q 197 110 197 111 q 224 83 197 86 z "},":":{"ha":1576,"x_min":69,"x_max":1507,"o":"m 1507 742 q 1488 603 1507 674 q 1421 476 1469 533 q 1301 418 1372 418 q 1065 614 1161 418 l 846 617 l 863 596 l 864 583 l 915 583 l 917 565 l 939 569 l 961 561 l 969 540 l 1017 536 l 999 478 l 936 478 l 918 442 l 1113 367 l 1115 83 l 226 -68 l 103 93 l 103 349 l 146 357 q 145 382 146 360 q 144 420 144 404 q 147 453 144 436 q 153 476 149 471 l 169 489 l 169 526 l 192 540 l 217 528 l 268 531 l 281 549 q 341 563 290 556 q 460 575 392 569 q 532 581 529 581 q 561 615 542 599 l 553 635 l 561 654 l 581 664 l 604 651 l 658 678 l 690 669 l 1013 879 q 1024 977 1013 926 q 1059 1074 1036 1028 q 1123 1151 1082 1121 q 1217 1181 1164 1181 q 1375 1101 1306 1181 q 1476 924 1444 1022 q 1507 742 1507 826 m 1153 25 l 200 -144 l 69 42 l 69 58 l 92 78 l 218 -93 l 1129 67 l 1153 46 l 1153 25 m 1474 733 q 1458 858 1474 790 q 1413 993 1443 926 q 1332 1104 1383 1060 q 1217 1149 1281 1149 q 1113 1098 1154 1149 q 1057 987 1071 1047 q 1043 865 1043 926 q 1058 740 1043 808 q 1103 606 1074 672 q 1183 495 1132 539 q 1299 451 1235 451 q 1404 501 1363 451 q 1460 611 1446 551 q 1474 733 1474 671 m 1028 721 q 1014 810 1017 779 l 740 647 l 742 640 l 1028 721 m 1013 832 l 1011 851 q 911 791 1010 850 q 743 686 813 732 q 661 621 674 640 q 643 606 643 621 q 658 589 643 589 q 675 606 672 589 q 713 642 682 618 q 790 695 743 665 q 876 749 836 725 q 960 801 915 774 q 1013 832 1006 828 m 846 583 q 832 601 846 601 l 747 601 q 736 583 742 601 l 846 583 m 708 606 q 708 611 708 607 q 707 617 707 615 l 690 599 q 658 574 686 574 q 628 606 628 574 q 658 636 628 635 l 674 654 q 666 655 671 654 q 658 656 661 656 q 623 641 638 656 q 608 606 608 626 q 622 569 608 583 q 658 556 636 556 q 694 569 681 556 q 708 606 708 583 m 883 511 l 883 553 l 874 563 l 864 553 l 864 518 l 611 492 l 604 483 q 594 446 604 458 l 576 461 q 536 522 576 508 l 536 553 l 525 561 l 315 542 q 294 535 299 540 q 286 510 290 529 l 231 504 l 224 496 l 224 397 q 226 389 224 394 l 251 372 l 251 333 l 261 324 l 269 333 l 269 365 l 549 399 q 602 423 582 403 q 622 475 622 443 l 875 501 l 883 511 m 1060 364 q 1013 381 1054 365 q 932 410 971 396 q 892 425 893 425 q 783 416 856 425 q 703 407 710 407 l 700 426 q 683 424 692 426 q 669 418 675 421 q 656 408 664 415 q 644 399 647 401 q 633 387 642 396 q 622 376 624 378 l 618 331 l 254 282 l 156 344 l 121 338 l 224 249 l 1060 364 m 1278 1019 q 1229 967 1257 967 q 1210 972 1224 967 q 1190 976 1197 976 q 1154 943 1171 976 l 1144 949 q 1186 1004 1157 982 q 1250 1026 1215 1026 q 1278 1019 1264 1026 m 1438 729 q 1347 501 1438 549 l 1338 517 q 1419 732 1419 563 q 1404 856 1419 786 q 1365 971 1389 926 l 1381 981 q 1438 729 1438 868 m 1369 750 q 1369 703 1369 715 q 1365 657 1369 690 q 1351 609 1360 624 q 1324 581 1343 594 q 1276 567 1304 567 q 1212 596 1240 567 q 1168 668 1183 625 q 1146 752 1153 711 q 1139 826 1139 793 q 1152 910 1139 863 q 1193 957 1165 957 q 1251 919 1228 957 q 1283 840 1275 881 q 1290 763 1290 799 q 1277 678 1290 726 q 1238 629 1264 629 q 1208 635 1221 629 q 1256 613 1222 613 q 1328 656 1301 613 q 1354 749 1354 699 l 1369 750 m 1182 581 l 1167 568 q 1102 713 1125 626 q 1079 878 1079 799 q 1089 971 1079 928 l 1108 968 q 1099 869 1099 924 q 1121 715 1099 799 q 1182 581 1143 631 m 582 431 q 546 417 571 419 l 267 385 l 243 403 l 243 488 l 297 492 q 306 508 306 492 q 315 524 306 524 l 517 542 l 517 514 l 347 497 q 339 488 339 497 q 350 478 339 476 l 544 497 q 556 471 553 486 q 561 449 558 456 l 582 431 z "},";":{"ha":2050,"x_min":69,"x_max":1981,"o":"m 1981 -11 l 1964 -26 l 1946 -17 q 1898 50 1939 17 q 1822 83 1857 83 q 1723 54 1785 83 q 1625 25 1661 25 q 1499 74 1540 25 q 1458 208 1458 124 l 1060 308 l 1060 315 l 1196 351 q 1204 388 1199 371 l 1490 260 q 1625 324 1554 324 q 1712 306 1679 324 q 1754 267 1744 289 q 1778 208 1764 246 q 1804 150 1792 171 q 1844 135 1813 147 q 1888 119 1876 124 q 1922 100 1899 114 q 1954 73 1944 86 q 1972 38 1964 60 q 1981 -11 1981 17 m 1775 767 q 1707 628 1775 688 q 1558 569 1639 569 q 1435 606 1482 569 q 1358 558 1411 589 q 1275 509 1304 528 q 1213 454 1246 490 q 1167 376 1181 418 l 104 106 l 97 121 q 410 278 225 197 q 735 411 596 360 q 1096 540 875 463 q 1400 647 1317 617 q 1395 667 1400 650 q 1390 692 1390 683 q 1465 834 1390 772 q 1622 896 1539 896 q 1729 861 1683 896 q 1775 767 1775 826 m 893 497 l 669 404 l 69 575 l 74 588 q 100 599 90 600 l 893 503 l 893 497 m 1721 758 q 1691 824 1721 801 q 1618 846 1661 846 q 1501 801 1556 846 q 1447 696 1447 757 q 1478 633 1447 654 q 1551 611 1508 611 q 1668 653 1615 611 q 1721 758 1721 696 m 1751 175 q 1713 251 1751 221 q 1626 282 1674 282 q 1547 252 1579 282 q 1514 175 1514 222 q 1547 94 1514 124 q 1631 64 1579 64 q 1717 94 1682 64 q 1751 175 1751 124 m 1021 414 q 1008 439 1021 428 q 981 450 994 450 q 944 429 963 450 l 1021 414 m 1015 392 l 939 408 q 951 381 939 392 q 981 371 964 371 q 1015 392 1006 371 m 825 353 q 815 394 825 383 l 385 210 l 388 203 l 803 318 q 825 353 825 325 z "},"<":{"ha":1192,"x_min":69,"x_max":1122,"o":"m 1122 529 l 1121 513 l 997 457 l 994 436 l 1106 349 l 1101 333 l 972 311 l 964 292 l 1054 181 l 1046 167 l 921 183 l 907 164 l 972 36 l 961 24 l 842 78 l 832 67 l 864 -75 l 850 -85 l 750 4 l 740 -1 l 736 -147 l 722 -151 l 653 -32 l 642 -33 l 600 -172 l 588 -169 l 547 -33 l 540 -32 l 468 -151 l 454 -147 l 450 -1 l 442 4 l 340 -85 l 328 -75 l 361 67 l 349 78 l 229 24 l 219 36 l 281 164 l 272 183 l 146 167 l 135 181 l 226 292 l 219 311 l 92 333 l 85 349 l 194 436 l 192 457 l 69 513 l 69 529 l 192 586 l 194 607 l 85 692 l 89 710 l 219 732 l 226 750 l 135 861 l 142 876 l 274 861 l 281 876 l 218 1008 l 229 1022 l 349 967 l 360 978 l 326 1119 l 336 1128 l 440 1040 l 449 1044 l 453 1192 l 467 1194 l 540 1078 l 549 1079 l 588 1218 l 601 1218 l 642 1079 l 653 1078 l 724 1194 l 739 1192 l 742 1046 l 750 1040 l 851 1128 l 864 1119 l 832 978 l 842 967 l 963 1022 l 974 1008 l 907 878 l 919 863 l 1047 876 l 1054 861 l 964 750 l 972 732 l 1104 710 l 1106 692 l 994 607 l 997 586 l 1122 529 m 871 736 q 794 942 871 858 q 596 1026 718 1026 q 396 942 474 1026 q 318 736 318 858 q 353 603 318 671 q 424 467 389 535 q 458 338 458 400 q 439 310 439 331 q 450 282 439 296 q 482 278 476 276 q 526 288 490 281 q 596 304 561 296 q 667 324 631 313 q 727 349 704 335 q 750 376 750 363 q 736 404 750 386 q 782 501 747 451 q 844 606 817 551 q 871 736 871 661 m 750 271 q 737 297 750 286 q 708 304 724 308 l 463 235 q 439 206 439 226 q 451 176 439 188 q 482 171 464 165 l 726 240 q 750 271 750 247 m 750 165 q 737 191 750 181 q 708 197 724 201 l 463 129 q 439 99 439 122 q 451 71 439 81 q 482 67 464 61 l 726 135 q 750 165 750 142 m 654 58 q 651 75 654 64 l 540 44 q 596 3 550 3 q 637 19 619 3 q 654 58 654 35 m 833 736 q 770 552 833 658 q 694 404 707 446 l 600 378 l 601 394 q 588 466 604 421 q 569 529 572 511 l 582 528 q 664 571 664 528 q 625 599 664 599 q 563 568 585 599 l 581 560 q 625 583 608 579 l 639 569 q 582 546 635 546 q 548 558 563 546 q 533 589 533 569 q 554 638 533 617 q 585 629 571 629 q 661 671 661 629 q 618 703 661 703 q 558 679 581 703 l 571 665 q 622 686 597 686 q 642 671 640 686 q 585 650 633 650 q 551 661 565 650 q 538 692 538 672 q 565 746 538 726 q 611 732 583 732 q 685 774 685 732 q 669 797 685 789 q 639 804 654 804 q 576 781 596 804 l 588 768 q 644 788 608 788 q 664 774 656 788 q 607 750 654 750 q 573 763 588 750 q 558 794 558 775 q 568 824 558 811 q 585 842 578 838 q 613 858 593 847 l 603 874 q 581 857 597 868 q 558 840 564 846 q 547 822 553 835 q 540 790 540 808 q 549 760 540 779 q 517 692 517 731 q 539 649 517 668 q 514 589 514 619 q 546 536 514 560 q 565 469 547 515 q 582 399 582 424 q 579 374 582 390 q 500 357 517 353 q 478 458 500 408 q 430 544 456 508 q 382 632 404 581 q 360 736 360 683 q 424 916 360 846 q 596 986 488 986 q 768 915 703 986 q 833 736 833 844 z "},"=":{"ha":1154,"x_min":69,"x_max":1085,"o":"m 928 1014 l 822 967 l 813 978 l 842 1103 q 928 1014 892 1065 m 821 1119 l 731 1040 l 722 1046 l 719 1176 q 821 1119 776 1157 m 1010 875 l 900 863 l 888 878 l 944 990 q 1010 875 979 942 m 1065 713 l 953 732 l 944 750 l 1022 847 q 1065 713 1044 797 m 697 1183 l 633 1078 l 622 1079 l 588 1204 q 697 1183 653 1204 m 564 1204 l 529 1079 l 521 1078 l 453 1183 q 564 1204 510 1200 m 1085 539 l 978 586 l 975 607 l 1071 679 q 1085 539 1085 585 m 433 1176 l 429 1044 l 421 1040 l 331 1117 q 433 1176 382 1157 m 1085 504 q 1071 361 1085 429 l 975 436 l 978 457 l 1085 504 m 340 978 l 329 967 l 225 1014 q 310 1103 274 1074 l 340 978 m 1065 331 q 1022 194 1053 269 l 944 292 q 949 301 946 294 q 953 311 951 308 l 1065 331 m 851 736 q 845 663 851 697 q 821 590 839 629 q 794 533 803 551 q 754 465 785 514 q 717 404 724 417 q 731 376 731 386 q 708 349 731 363 q 648 325 685 336 q 576 305 611 314 q 506 288 542 296 q 463 278 471 281 q 435 284 447 274 q 419 311 422 294 l 439 338 l 439 357 q 417 444 439 400 q 369 524 394 489 q 321 615 343 558 q 299 736 299 672 q 376 942 299 858 q 576 1026 454 1026 q 775 942 699 1026 q 851 736 851 858 m 261 876 l 254 861 l 142 875 q 207 989 167 936 l 261 876 m 1011 168 q 944 51 982 108 l 888 164 l 901 183 l 1011 168 m 207 750 l 200 732 l 89 713 q 129 844 103 788 l 207 750 m 928 29 q 842 -60 911 6 l 813 67 l 822 78 l 928 29 m 731 269 q 707 240 731 247 l 463 171 q 433 177 446 165 q 419 206 419 189 q 443 235 419 228 l 689 304 q 718 297 706 308 q 731 269 731 286 m 175 607 l 172 586 l 69 539 q 83 679 69 603 l 175 607 m 731 165 q 707 135 731 142 l 463 67 q 433 73 446 63 q 419 100 419 83 q 443 129 419 122 l 689 197 q 718 191 706 201 q 731 165 731 181 m 821 -75 q 717 -133 772 -115 l 721 -1 l 731 4 l 821 -75 m 635 58 q 617 19 635 35 q 576 3 600 3 q 521 44 533 3 l 632 75 q 635 58 635 64 m 175 436 l 83 363 q 69 503 69 457 l 172 457 l 175 436 m 696 -140 q 585 -158 644 -156 l 622 -33 l 633 -32 l 696 -140 m 565 -158 q 456 -139 510 -158 l 521 -32 l 528 -33 l 565 -158 m 207 292 l 129 197 q 89 331 110 242 l 200 311 l 207 292 m 435 -131 q 332 -75 383 -111 l 422 4 l 431 -1 l 435 -131 m 261 164 l 207 53 q 142 168 158 125 l 253 183 l 261 164 m 342 67 l 311 -60 q 225 31 265 -18 l 329 78 l 342 67 m 814 736 q 749 915 814 844 q 576 986 683 986 q 405 915 469 986 q 340 736 340 844 q 362 631 340 682 q 409 544 383 579 q 457 460 435 510 q 481 357 479 410 l 501 357 q 531 365 504 357 q 560 374 557 374 q 563 399 563 390 q 546 470 563 424 q 526 536 529 517 q 494 589 494 558 q 519 649 494 624 q 497 696 497 668 q 529 760 497 731 q 521 794 521 782 q 522 812 521 804 q 528 826 524 819 q 535 838 532 833 q 546 848 538 842 q 557 856 554 854 q 570 865 560 858 q 583 874 581 872 l 593 858 q 539 794 539 833 q 553 763 539 776 q 588 750 568 750 q 644 774 642 750 q 625 788 639 788 q 568 768 592 788 l 557 781 q 621 804 576 804 q 665 774 665 804 q 640 742 665 751 q 588 732 615 732 q 546 746 561 732 q 518 688 518 728 q 533 660 518 669 q 565 650 547 650 q 622 671 614 650 q 601 686 617 686 q 551 665 578 686 l 539 679 q 599 703 561 703 q 628 694 614 703 q 642 671 642 686 q 617 639 642 649 q 565 629 592 629 q 535 638 551 629 q 514 589 514 613 q 528 558 514 569 q 563 546 543 546 q 619 569 617 546 l 606 583 q 561 560 588 581 l 543 568 q 607 599 565 599 q 644 571 644 599 q 611 535 644 546 q 550 529 578 525 q 567 459 551 510 q 581 378 583 408 l 675 404 q 705 485 682 442 q 751 561 728 528 q 794 642 775 594 q 814 736 814 689 z "},">":{"ha":1150,"x_min":69,"x_max":1081,"o":"m 1081 650 q 533 619 981 619 q 69 650 165 619 l 69 656 l 535 1113 l 550 1115 l 544 1128 l 568 1169 l 547 1196 q 575 1224 547 1224 q 603 1196 603 1224 q 583 1169 603 1179 l 606 1128 l 600 1115 l 615 1113 l 1081 656 l 1081 650 m 775 608 l 771 603 l 767 608 l 771 613 l 775 608 m 775 592 l 771 586 l 767 592 l 771 596 l 775 592 m 782 565 q 771 554 782 554 q 760 565 760 554 q 771 578 760 578 q 782 565 782 578 m 643 592 q 635 585 643 585 l 513 585 q 506 592 506 585 q 514 600 506 600 l 635 600 q 643 592 643 600 m 383 608 l 379 603 l 374 608 l 379 613 l 383 608 m 383 592 l 379 586 l 374 592 l 379 596 l 383 592 m 390 565 q 379 554 390 554 q 367 565 367 554 q 379 578 367 578 q 390 565 390 578 m 832 392 q 781 233 832 326 q 674 97 729 140 q 689 44 686 89 l 699 32 l 713 26 l 713 8 q 569 -22 650 -22 q 495 -15 538 -22 q 438 8 453 -7 l 438 26 q 461 44 450 31 q 476 97 461 92 q 369 234 419 143 q 318 392 318 325 q 326 452 318 428 q 354 492 333 476 q 390 515 375 508 q 443 533 406 522 q 499 551 481 544 l 499 569 l 651 569 l 651 551 q 699 536 667 546 q 744 522 732 526 q 779 505 757 517 q 809 480 801 493 q 824 444 817 467 q 832 392 832 422 m 578 1182 q 585 1182 578 1182 q 592 1196 592 1182 q 578 1210 592 1210 q 564 1196 564 1210 q 578 1182 564 1182 m 592 1128 l 576 1165 l 575 1128 l 592 1128 m 817 392 q 808 449 817 425 q 778 486 799 472 q 740 507 758 500 q 688 524 722 514 q 635 542 654 535 l 635 554 l 514 554 l 514 542 q 459 525 494 535 q 408 508 424 515 q 371 488 392 501 q 342 450 350 474 q 333 392 333 426 q 387 231 333 322 q 501 92 440 139 q 483 72 486 83 q 485 44 481 60 l 476 28 l 461 22 q 585 1 508 1 q 689 18 635 1 q 667 44 672 22 l 668 61 q 649 92 669 78 q 763 231 710 139 q 817 392 817 322 m 793 392 q 734 224 793 333 q 626 89 675 115 q 575 85 618 85 q 524 89 533 85 q 449 175 499 101 q 399 276 399 249 q 418 322 399 301 q 460 352 438 342 q 503 381 483 363 q 522 419 522 399 q 432 460 522 460 q 381 445 399 460 q 358 429 364 431 q 392 473 358 450 q 449 496 426 496 q 517 491 469 496 q 590 488 564 486 l 613 489 l 613 494 q 588 500 596 497 q 571 510 579 503 q 557 531 563 517 l 613 531 q 698 498 621 531 q 781 458 775 465 q 793 392 793 444 m 657 22 q 564 13 640 13 q 492 22 507 13 q 497 44 497 28 q 496 53 497 47 q 494 63 494 60 q 506 81 494 74 l 558 72 q 544 57 558 65 q 529 39 529 49 q 572 24 529 24 l 589 24 q 642 42 642 24 q 620 60 642 53 q 599 74 599 68 l 643 81 q 656 61 656 75 q 654 53 656 58 q 653 44 653 47 q 657 22 653 26 z "},"?":{"ha":975,"x_min":69,"x_max":906,"o":"m 906 751 q 778 569 867 689 q 576 307 689 449 q 355 63 464 165 q 192 -40 246 -40 q 69 163 69 -40 q 78 306 69 232 q 106 467 86 379 q 140 609 126 556 q 183 769 153 663 q 221 907 213 875 l 208 906 q 213 936 208 907 q 220 974 218 965 q 228 1010 222 982 q 240 1049 235 1038 q 253 1083 244 1061 q 272 1116 263 1106 q 296 1140 282 1126 q 326 1158 310 1153 q 363 1163 343 1163 q 482 1011 482 1163 q 457 832 482 914 q 386 872 414 839 q 358 949 358 904 l 344 950 q 274 929 318 950 q 113 129 124 475 q 148 151 124 140 q 189 163 172 163 q 254 135 228 163 q 288 68 281 108 q 383 153 336 108 q 479 251 431 197 q 563 345 528 304 q 650 452 599 386 q 728 552 701 518 q 810 662 754 586 q 888 764 867 738 l 906 751 m 457 1018 q 410 1121 457 1094 q 431 1032 431 1096 q 410 892 431 972 q 433 872 418 879 q 457 1018 457 969 m 393 1050 q 371 1097 393 1097 q 324 1067 338 1097 l 322 1061 q 319 1056 319 1057 q 368 990 319 1010 q 393 1050 393 1015 m 350 1131 q 302 1109 322 1128 q 271 1055 282 1090 q 256 999 260 1019 q 247 943 253 979 l 279 958 q 350 1131 299 1106 m 890 740 l 885 746 q 819 658 876 735 q 749 562 763 581 q 683 476 735 543 q 609 382 632 408 q 539 300 586 356 q 459 212 492 244 q 383 137 426 179 q 296 60 339 94 l 296 44 q 506 246 408 133 q 715 511 603 358 q 890 740 826 664 m 267 58 q 244 120 267 96 q 183 144 221 144 q 128 119 153 144 l 129 101 q 197 131 151 131 q 238 106 221 131 q 254 58 254 82 q 182 -11 254 -11 q 101 171 101 -11 q 109 296 101 228 q 126 417 117 364 q 154 551 135 469 q 184 672 174 632 q 219 802 194 713 q 251 918 244 892 l 239 915 q 206 797 231 886 q 170 664 182 707 q 139 539 158 621 q 110 402 119 457 q 94 278 101 347 q 86 150 86 210 q 90 98 86 124 q 101 42 93 72 q 130 -6 110 13 q 178 -24 150 -24 q 267 58 267 -24 m 238 46 q 194 114 238 114 q 122 69 149 114 q 144 26 131 43 q 164 13 150 19 q 185 6 178 6 q 221 17 204 6 q 238 46 238 28 z "},"@":{"ha":2296,"x_min":69,"x_max":2226,"o":"m 2226 575 q 2224 554 2226 565 q 2217 529 2221 543 q 2213 508 2214 515 l 2174 482 l 2096 482 l 2096 342 l 2058 304 l 2031 304 l 2031 289 l 2096 289 l 2096 158 l 2058 122 l 1890 122 l 1890 304 l 1824 304 l 1824 158 l 1788 122 l 1619 122 l 1619 251 l 1656 289 l 1683 289 l 1683 304 l 1619 304 l 1619 482 l 1599 482 q 1565 469 1596 482 q 1517 456 1535 456 q 1503 458 1511 456 q 1486 465 1496 461 q 1472 471 1476 469 q 1430 458 1447 456 q 1385 471 1413 460 q 1346 482 1357 482 l 654 482 q 593 443 636 457 l 551 458 q 460 309 526 372 q 308 246 393 246 q 192 275 242 246 q 118 355 143 304 q 81 461 93 406 q 69 579 69 517 q 81 697 69 642 q 119 803 93 753 q 193 883 144 853 q 308 913 242 913 q 467 843 385 913 q 551 699 549 774 l 594 714 q 654 676 635 701 l 1346 676 q 1388 688 1354 676 q 1432 700 1421 699 l 1472 686 l 1518 703 q 1687 681 1594 688 q 1838 674 1779 675 q 2014 675 1897 674 q 2174 676 2131 676 l 2211 646 q 2219 617 2211 644 q 2226 575 2226 589 m 2076 164 l 2076 267 l 2013 267 l 2013 356 l 2076 356 l 2076 508 l 1668 508 l 1668 356 l 1735 356 l 1735 267 l 1668 267 l 1668 164 l 1806 164 l 1806 356 l 1940 356 l 1940 164 l 2076 164 m 2192 589 q 2174 644 2192 632 l 1625 644 l 1610 624 l 1606 581 l 1594 581 q 1586 625 1590 610 q 1566 654 1582 640 q 1524 668 1550 668 q 1497 643 1513 668 q 1478 606 1481 618 l 1472 606 l 1443 661 l 1415 668 q 1383 656 1404 668 q 1351 644 1363 644 q 1138 651 1342 644 q 790 653 933 657 q 600 626 646 649 l 565 657 l 519 639 q 458 805 519 729 q 308 881 396 881 q 206 853 249 881 q 142 780 164 826 q 111 684 121 733 q 101 579 101 635 q 110 474 101 522 q 141 378 119 425 q 206 303 163 331 q 308 276 249 276 q 456 352 396 276 q 519 518 517 428 l 551 511 q 597 565 594 511 l 601 568 q 806 519 668 526 q 1134 524 943 511 q 1351 536 1325 536 q 1419 504 1371 504 l 1450 511 l 1467 536 l 1472 536 l 1499 510 l 1533 503 q 1592 536 1564 503 l 2174 536 l 2186 551 l 2192 589 m 474 572 q 409 452 474 542 q 299 363 344 363 q 235 391 258 363 q 211 461 211 419 q 242 578 211 528 q 211 704 211 639 q 238 767 211 740 q 299 794 264 794 q 354 768 325 794 q 401 715 383 742 q 443 640 418 688 q 474 585 468 593 l 474 572 m 439 557 q 406 611 432 567 q 363 680 381 656 q 317 728 346 704 q 258 753 288 753 q 238 704 238 736 q 253 633 238 676 q 268 578 268 589 q 253 524 268 567 q 238 454 238 481 q 253 407 238 425 q 299 389 269 389 q 337 400 318 389 q 371 433 356 411 q 397 474 386 456 q 421 520 407 492 q 439 557 435 549 z "},"A":{"ha":1463,"x_min":69,"x_max":1393,"o":"m 1385 975 q 1318 858 1361 925 q 1244 774 1275 792 l 1061 772 l 968 929 q 1033 1047 992 982 q 1104 1129 1074 1113 l 1292 1135 l 1385 975 m 1006 1121 l 1003 1108 l 850 1011 q 835 883 831 897 l 804 851 l 824 818 l 793 783 l 810 747 l 781 717 l 799 679 l 771 651 l 786 614 l 758 583 l 775 547 l 746 517 l 763 481 l 735 450 l 751 415 l 735 399 l 592 422 l 571 461 l 600 488 l 585 526 l 613 554 l 596 592 l 625 621 l 608 658 l 636 686 l 619 728 l 649 753 l 632 796 l 661 825 l 642 863 l 674 890 q 669 913 674 894 q 664 936 664 932 q 682 1033 664 943 l 774 1017 l 778 1042 l 669 1060 l 572 1182 l 575 1194 l 763 1158 l 753 1115 l 808 1107 l 818 1153 l 1006 1121 m 1393 363 l 1383 353 l 1201 344 q 1125 242 1132 268 l 1082 231 l 1082 192 l 1039 176 l 1033 136 l 993 124 l 990 83 l 951 72 l 947 32 l 906 19 l 901 -18 l 861 -31 l 857 -71 l 819 -83 l 815 -122 l 792 -128 l 682 -37 l 682 8 l 722 15 l 726 56 l 764 67 l 768 107 l 811 117 l 817 158 l 853 169 l 860 214 l 899 221 l 904 267 l 944 278 l 949 319 l 988 329 q 1019 389 992 353 q 1068 447 1046 425 l 1140 388 l 1156 407 l 1069 476 l 1047 631 l 1056 640 l 1200 517 l 1171 483 l 1214 449 l 1246 485 l 1393 363 m 506 403 l 317 375 l 313 417 l 258 406 l 264 360 l 74 328 l 75 342 l 183 482 q 154 608 168 585 l 171 647 l 143 675 l 160 717 l 132 746 l 147 783 l 118 814 l 135 847 l 107 876 l 122 915 l 93 943 l 110 983 l 83 1010 l 99 1046 l 69 1078 l 81 1097 l 224 1124 l 256 1093 l 235 1058 l 268 1026 l 250 992 l 281 961 l 261 926 l 289 894 l 274 861 l 303 828 l 285 792 l 315 758 l 297 721 l 328 693 l 311 657 q 347 517 343 617 l 258 501 l 261 478 l 371 494 l 504 417 l 506 403 m 533 186 q 510 53 528 128 q 468 -50 492 -22 l 299 -114 l 156 1 q 176 137 161 61 q 215 238 192 213 l 389 306 l 533 186 m 1356 975 l 1278 1111 l 1118 1107 l 1043 972 l 1124 838 l 1281 842 l 1356 975 m 771 888 l 679 869 l 675 850 l 767 867 l 771 888 m 760 818 l 667 801 l 663 781 l 757 800 l 760 818 m 747 750 l 651 731 l 650 713 l 744 732 l 747 750 m 735 681 l 639 663 l 639 644 l 732 664 l 735 681 m 1071 278 l 983 307 l 969 293 l 1058 261 l 1071 278 m 722 613 l 628 594 l 625 574 l 719 596 l 722 613 m 224 1086 l 219 1106 l 140 1056 l 142 1033 l 224 1086 m 1026 222 l 936 254 l 925 238 l 1014 208 l 1026 222 m 235 1017 l 229 1033 l 150 988 l 154 967 l 235 1017 m 711 544 l 617 526 l 613 506 l 707 526 l 711 544 m 249 950 l 246 969 l 163 917 l 165 899 l 249 950 m 982 169 l 889 199 l 879 185 l 971 156 l 982 169 m 699 476 l 606 458 l 600 439 l 696 458 l 699 476 m 261 879 l 256 899 l 175 850 l 178 831 l 261 879 m 274 814 l 269 829 l 188 781 l 189 764 l 274 814 m 935 115 l 844 147 l 836 133 l 925 103 l 935 115 m 285 740 l 282 763 l 200 714 l 201 693 l 285 740 m 296 676 l 294 693 l 213 644 l 214 626 l 296 676 m 889 64 l 799 94 l 788 78 l 879 50 l 889 64 m 846 10 l 753 40 l 743 25 l 832 -4 l 846 10 m 800 -43 l 710 -12 l 697 -28 l 788 -57 l 800 -43 m 506 178 l 383 279 l 235 222 l 211 69 l 332 -28 l 479 25 l 506 178 m 1271 975 q 1250 924 1271 942 q 1194 906 1229 906 q 1147 926 1167 906 q 1128 975 1128 947 q 1149 1025 1128 1004 q 1199 1046 1169 1046 q 1250 1026 1229 1046 q 1271 975 1271 1006 m 429 124 q 410 74 429 93 q 360 54 390 54 q 307 75 328 54 q 286 126 286 96 q 307 176 286 157 q 358 196 328 196 q 410 176 390 196 q 429 124 429 156 z "},"B":{"ha":1342,"x_min":69,"x_max":1272,"o":"m 1272 238 q 1200 61 1272 146 q 1027 -70 1128 -24 q 836 -117 926 -117 q 622 -89 746 -117 q 371 -10 497 -61 q 157 128 244 40 q 69 319 69 215 q 135 408 69 401 q 145 531 135 454 q 176 694 156 607 q 235 844 197 782 q 319 906 274 906 q 402 860 353 906 q 507 750 451 815 q 583 667 563 685 l 586 669 q 546 831 546 754 q 633 995 546 936 q 829 1054 719 1054 q 966 1024 897 1054 q 1076 933 1035 993 q 1100 803 1118 874 q 1135 791 1110 799 q 1178 774 1160 783 q 1206 754 1197 765 q 1085 633 1176 678 q 1099 553 1085 588 q 1133 500 1113 519 q 1178 456 1154 481 q 1224 408 1203 432 q 1258 340 1244 383 q 1272 238 1272 296 m 1082 901 q 1071 890 1078 890 q 1052 902 1060 890 q 1044 926 1044 914 q 1049 940 1044 938 q 1067 942 1054 943 q 1043 957 1051 957 q 1018 919 1018 957 q 1032 883 1018 899 q 1067 867 1046 867 q 1082 901 1082 876 m 985 769 q 1007 792 1007 769 q 985 814 1007 814 q 964 792 964 814 q 985 769 964 769 m 1175 736 l 1169 747 q 1043 721 1150 742 q 922 700 936 700 q 874 707 893 700 q 857 719 872 719 q 839 700 839 719 q 849 685 839 690 q 867 685 858 681 q 918 676 892 676 q 1044 701 940 676 q 1175 736 1147 725 m 1233 238 q 1215 336 1233 293 q 1169 408 1196 379 q 1115 466 1142 438 q 1070 535 1089 494 q 1051 625 1051 575 l 1014 621 q 888 644 958 621 q 801 706 818 667 q 965 836 874 774 l 983 846 q 1027 829 996 844 q 1064 811 1058 814 l 1065 849 l 1033 860 q 1008 949 989 907 q 829 1015 931 1015 q 666 960 735 1015 q 597 813 597 906 q 617 712 597 778 q 636 615 636 646 q 635 598 636 606 q 630 583 633 590 q 624 570 626 575 q 615 559 622 565 q 605 549 608 553 q 592 540 601 546 q 581 531 583 533 q 567 523 578 529 q 553 515 556 517 l 536 529 l 542 540 q 593 607 596 564 l 592 625 q 509 668 549 629 q 445 751 469 707 q 388 831 421 794 q 325 867 356 867 q 251 769 283 867 q 206 574 218 671 q 193 422 193 476 q 267 244 193 329 q 447 106 340 160 q 664 21 553 53 q 858 -11 775 -11 q 1017 15 933 -11 q 1167 99 1100 40 q 1233 238 1233 158 m 906 863 q 891 815 906 836 q 851 793 876 793 q 794 824 818 793 q 771 889 771 854 q 785 936 771 915 q 825 957 799 957 q 883 928 860 957 q 906 863 906 899 m 888 863 q 871 847 882 854 q 841 860 853 847 q 829 892 829 874 q 833 909 829 899 q 844 919 838 919 q 867 917 860 919 q 831 939 850 939 q 793 890 793 939 q 826 824 793 849 q 861 817 836 817 q 888 863 882 817 z "},"C":{"ha":2108,"x_min":69,"x_max":2039,"o":"m 2039 561 q 1992 531 2017 533 q 1932 538 1967 528 q 1878 547 1897 547 q 1788 526 1857 547 q 1759 447 1788 481 q 1685 399 1731 413 l 1685 431 l 1650 399 l 1650 431 l 1614 399 l 1614 431 l 1579 399 l 1579 431 l 1544 399 l 1544 431 l 1510 399 l 1510 431 l 1474 399 l 1474 431 l 1439 399 l 1439 431 l 1404 399 l 1404 431 l 1369 399 l 1369 431 l 1333 399 l 1333 431 l 1299 399 l 1299 431 l 1264 399 l 1264 431 l 1229 399 l 1229 431 l 1193 399 l 1193 431 l 1158 399 l 1158 431 l 1124 399 l 1124 431 l 1089 399 l 1089 431 l 1053 399 l 1053 431 l 1018 399 l 1018 431 l 983 399 l 983 431 l 949 399 l 949 431 l 913 399 l 913 431 l 878 399 l 878 431 l 843 399 l 843 431 l 808 399 l 808 431 l 772 399 l 772 431 l 738 399 l 738 431 l 701 399 l 701 431 l 668 399 l 668 431 l 631 399 l 631 431 l 597 399 l 597 431 l 561 399 l 561 431 l 528 399 l 528 431 l 490 399 l 490 431 l 457 399 l 457 431 l 421 399 l 421 431 l 388 399 l 388 431 l 350 399 l 350 431 l 317 399 l 317 431 l 281 399 l 281 431 l 247 399 l 247 431 l 210 399 l 210 431 l 176 399 l 176 431 l 140 399 l 140 431 l 107 399 l 107 431 l 69 399 l 69 431 q 94 509 69 454 q 138 583 119 564 l 1489 850 l 1488 864 q 1566 882 1493 865 q 1672 899 1639 899 q 1727 882 1693 899 q 1781 865 1761 865 q 1810 879 1792 865 q 1835 904 1829 893 q 1956 921 1888 925 l 1972 919 l 1994 903 l 2004 875 l 1999 861 l 1944 844 l 1922 814 q 1941 763 1929 793 q 1958 718 1953 733 q 1967 676 1963 703 q 1974 615 1972 649 l 1997 601 l 2017 606 l 2036 589 l 2039 561 m 1957 871 q 1964 871 1957 871 q 1971 885 1971 871 q 1957 899 1971 899 q 1943 885 1943 899 q 1957 871 1943 871 m 1861 821 q 1868 821 1861 821 q 1875 835 1875 821 q 1861 849 1875 849 q 1847 835 1847 849 q 1861 821 1847 821 m 1931 579 q 1938 579 1931 579 q 1944 593 1944 579 q 1931 607 1944 607 q 1917 593 1917 607 q 1931 579 1917 579 m 1861 653 l 1825 768 q 1796 790 1818 790 q 1772 777 1781 790 q 1767 750 1763 764 l 1803 635 q 1832 613 1810 613 q 1856 626 1847 613 q 1861 653 1865 639 m 1696 768 q 1703 768 1696 768 q 1710 782 1710 768 q 1696 796 1710 796 q 1682 782 1682 796 q 1696 768 1682 768 m 1558 810 q 1565 810 1558 810 q 1572 824 1572 810 q 1558 838 1572 838 q 1544 824 1544 838 q 1558 810 1544 810 m 1733 671 q 1704 697 1733 697 q 1678 668 1678 697 q 1707 642 1678 642 q 1733 671 1733 642 m 1749 551 q 1756 551 1749 551 q 1763 565 1763 551 q 1749 579 1763 579 q 1735 565 1735 579 q 1749 551 1735 551 m 1753 517 l 1710 506 l 1696 524 l 1701 551 l 1689 578 q 1626 582 1651 593 q 1604 610 1618 589 q 1590 640 1590 631 q 1605 685 1590 653 q 1621 733 1619 718 l 1599 758 q 1569 765 1582 764 q 1541 763 1557 765 q 1515 761 1525 761 l 1503 768 l 1494 819 l 153 556 q 106 444 121 519 l 1718 444 q 1745 477 1739 465 q 1753 517 1751 489 z "},"D":{"ha":1017,"x_min":69,"x_max":947,"o":"m 947 51 q 851 -37 947 -1 q 663 -83 754 -72 q 510 -94 571 -94 q 357 -84 449 -94 q 167 -37 265 -74 q 69 51 69 -1 l 69 1024 q 125 1085 69 1060 q 265 1121 181 1111 q 407 1134 350 1131 q 510 1138 464 1138 q 613 1135 560 1138 q 753 1122 667 1132 q 893 1087 839 1113 q 947 1024 947 1061 l 947 51 m 915 51 l 915 1024 q 863 1072 915 1051 q 734 1102 810 1093 q 601 1115 658 1111 q 510 1119 543 1119 q 418 1115 475 1119 q 285 1102 361 1111 q 156 1072 208 1093 q 103 1024 103 1051 l 103 51 q 155 -8 103 17 q 283 -44 207 -33 q 415 -60 358 -56 q 510 -64 471 -64 q 605 -60 549 -64 q 737 -44 661 -56 q 864 -8 813 -33 q 915 51 915 17 m 872 1010 q 823 968 872 985 q 701 944 774 951 q 579 935 629 938 q 496 932 529 932 q 417 935 465 932 q 303 945 369 938 q 191 969 236 953 q 146 1010 146 986 q 195 1051 146 1033 q 318 1074 244 1068 q 442 1083 392 1081 q 525 1086 492 1086 q 602 1083 554 1086 q 715 1073 650 1081 q 826 1049 781 1065 q 872 1010 872 1032 m 850 660 q 819 629 850 629 q 789 661 789 629 q 819 692 789 692 q 850 660 850 692 m 818 517 q 809 494 818 503 q 786 486 800 486 q 754 517 754 486 q 788 547 754 547 q 818 517 818 547 m 827 819 q 850 810 827 819 q 872 778 872 801 q 823 737 872 754 q 701 712 774 719 q 578 701 629 704 q 496 699 528 699 q 416 701 464 699 q 302 712 368 704 q 191 737 236 719 q 146 778 146 754 q 195 820 146 803 q 317 844 244 838 q 441 854 390 851 q 524 857 492 857 q 602 854 554 857 q 716 844 650 851 q 827 819 782 836 m 718 557 q 709 535 718 543 q 686 526 700 526 q 656 557 656 526 q 688 588 656 588 q 718 557 718 588 m 832 418 q 863 388 863 418 q 831 357 863 357 q 800 388 800 357 q 810 409 800 400 q 832 418 819 418 m 392 629 q 360 599 392 599 q 329 631 329 599 q 361 661 329 661 q 383 651 374 661 q 392 629 392 642 m 872 157 q 822 110 872 129 q 699 83 772 90 q 574 72 625 75 q 490 68 524 68 q 376 74 446 68 q 226 101 306 79 q 146 157 146 124 q 243 214 146 182 l 225 236 q 150 292 150 236 q 185 344 150 314 q 267 474 196 415 q 424 561 339 533 q 582 589 510 589 q 607 564 594 589 q 619 524 619 539 q 643 468 643 492 q 638 453 643 465 q 633 439 633 440 l 615 425 q 608 393 619 410 l 625 396 q 657 386 632 393 q 694 364 682 379 q 740 336 722 364 q 801 296 786 336 q 808 206 815 256 q 872 157 872 183 m 175 681 q 190 681 175 681 q 206 650 206 681 q 175 619 206 619 q 144 650 144 619 q 175 681 144 681 m 231 558 q 261 528 261 558 q 229 497 261 497 q 199 528 199 497 q 231 558 199 558 m 849 1010 q 804 1042 849 1029 q 694 1060 760 1054 q 584 1067 629 1065 q 510 1069 539 1069 q 434 1068 474 1069 q 325 1062 394 1067 q 212 1044 256 1057 q 168 1010 168 1031 q 510 956 168 956 q 849 1010 849 956 m 840 661 q 819 682 840 682 q 797 661 797 682 q 819 639 797 639 q 840 661 840 639 m 808 517 q 786 539 808 539 q 764 517 764 539 q 786 496 764 496 q 808 517 808 496 m 849 778 q 804 811 849 797 q 694 830 760 825 q 585 837 628 835 q 510 839 542 839 q 168 778 168 839 q 510 722 168 722 q 849 778 849 722 m 708 557 q 686 579 708 579 q 665 557 665 579 q 686 536 665 536 q 708 557 708 536 m 853 388 q 832 408 853 408 q 810 388 810 408 q 832 365 810 365 q 853 388 853 365 m 622 457 q 614 481 622 467 q 597 494 606 494 q 585 483 585 494 q 594 458 585 472 q 614 444 603 444 q 622 457 622 444 m 776 283 q 779 287 776 283 q 782 296 782 290 q 775 310 782 301 q 763 318 768 318 q 750 296 750 318 q 765 276 750 276 q 776 283 771 276 m 725 324 q 714 344 725 344 l 701 344 q 694 333 694 344 q 707 315 694 315 q 725 324 725 315 m 682 349 q 663 367 682 367 q 644 350 644 367 q 651 337 644 343 q 664 331 657 331 q 676 337 669 331 q 682 349 682 343 m 599 411 q 588 447 599 428 q 560 467 576 467 q 542 450 542 467 q 550 415 542 438 q 567 393 558 393 q 587 399 575 393 q 599 411 599 404 m 383 629 q 361 651 383 651 q 339 629 339 651 q 361 608 339 608 q 383 629 383 608 m 636 360 q 622 375 636 375 q 610 360 610 375 q 624 346 610 346 q 636 360 636 346 m 599 364 q 583 379 599 379 q 565 365 565 379 q 581 350 565 350 q 599 364 599 350 m 540 372 q 489 439 540 439 q 475 401 475 439 q 488 374 475 389 q 513 358 500 358 q 540 372 540 358 m 196 650 q 175 671 196 671 q 153 650 153 671 q 175 628 153 628 q 196 650 196 628 m 482 351 q 463 383 482 364 q 432 401 444 401 q 418 378 418 401 q 433 349 418 365 q 460 333 447 333 q 482 351 482 333 m 746 274 q 736 292 746 292 q 724 281 724 292 l 717 285 q 692 268 692 281 q 676 275 688 275 q 654 261 658 275 l 650 260 q 635 265 644 265 q 607 249 613 265 l 599 249 q 575 256 588 256 q 550 249 554 256 l 543 249 q 506 264 542 264 q 483 254 493 264 l 476 254 q 463 261 472 261 q 447 256 456 261 l 440 258 q 418 271 439 271 q 406 267 411 271 q 382 278 394 278 q 365 264 365 278 q 379 246 365 246 q 400 253 397 246 q 424 236 401 236 q 440 246 433 236 q 469 225 444 225 q 483 233 479 225 l 488 235 q 515 210 496 210 q 546 231 542 210 l 550 232 q 575 210 556 210 q 603 226 594 210 l 608 226 q 633 208 610 208 q 647 216 639 208 q 656 231 654 224 l 660 232 q 681 219 667 219 q 694 244 694 219 l 699 246 q 715 236 703 236 q 728 256 722 236 q 746 274 746 258 m 232 506 q 251 528 251 506 q 231 550 251 550 q 207 528 207 550 q 232 506 207 506 m 424 335 q 412 354 424 344 q 390 364 400 364 q 375 336 375 364 q 403 308 375 308 q 424 335 424 308 m 361 314 q 343 332 361 332 q 326 311 326 332 q 343 292 326 292 q 361 314 361 292 m 849 157 q 806 192 849 175 q 796 171 801 179 q 786 158 790 163 q 771 151 782 153 q 756 149 760 149 q 738 149 753 149 q 718 149 722 149 q 640 134 692 149 q 560 119 589 119 q 258 203 371 119 q 168 157 168 183 q 215 117 168 133 q 333 96 261 101 q 448 88 404 90 q 528 86 492 86 q 600 89 556 86 q 705 99 644 92 q 807 121 765 106 q 849 157 849 136 m 314 292 q 297 310 314 310 q 279 290 279 310 q 297 269 279 269 q 314 292 314 269 m 271 268 q 253 288 271 288 q 236 267 236 288 q 253 247 236 247 q 271 268 271 247 z "},"E":{"ha":721,"x_min":69,"x_max":651,"o":"m 651 79 l 632 56 q 622 -44 635 -8 l 604 -60 l 585 -46 q 577 2 579 -25 q 575 48 575 29 q 576 99 575 67 q 576 144 576 131 l 244 144 l 244 79 l 222 56 l 199 79 l 199 144 l 124 144 q 125 99 124 131 q 126 48 126 68 q 124 1 126 28 q 114 -44 121 -25 l 97 -60 l 76 -46 q 69 31 69 -21 l 69 510 q 78 527 69 518 q 96 536 88 536 l 122 518 q 199 544 156 538 l 199 1149 l 222 1171 l 244 1149 l 244 1101 q 335 1119 276 1101 q 425 1136 394 1136 q 513 1119 454 1136 q 604 1101 572 1101 l 604 1149 l 629 1171 l 651 1149 l 651 79 m 604 969 l 604 1071 l 244 1071 l 244 969 l 604 969 m 604 829 l 604 931 l 244 931 l 244 829 l 604 829 m 604 689 l 604 790 l 244 790 l 244 689 l 604 689 m 604 544 l 604 650 l 244 650 l 244 551 q 328 553 272 551 q 413 556 385 556 q 604 544 519 556 m 449 510 l 440 518 q 419 501 424 515 l 432 497 l 449 510 m 418 510 l 410 518 q 389 501 393 515 l 400 497 q 418 510 411 508 m 386 510 l 379 518 q 357 501 367 517 l 369 497 l 386 510 m 356 510 l 349 518 q 326 501 333 517 l 339 497 l 356 510 m 324 510 l 315 518 q 294 501 299 515 l 307 497 l 324 510 m 293 510 l 285 518 q 264 501 268 515 l 276 497 q 293 510 283 506 m 576 242 l 576 461 q 244 467 317 461 l 244 242 l 576 242 m 263 510 l 254 518 q 232 501 242 517 l 244 497 q 263 510 256 508 m 231 510 l 224 518 q 201 501 208 517 l 214 497 l 231 510 m 200 510 l 193 518 q 169 501 175 515 l 182 497 l 200 510 m 576 169 l 576 221 l 244 221 l 244 169 l 576 169 m 199 357 l 199 468 l 124 469 l 124 322 l 199 357 m 199 224 l 199 333 l 124 300 l 124 190 l 199 224 m 199 169 l 199 200 l 129 169 l 199 169 z "},"F":{"ha":1185,"x_min":69,"x_max":1115,"o":"m 1115 386 q 1075 281 1115 328 q 976 208 1035 233 q 1114 125 1114 188 q 1047 44 1114 79 q 883 -6 979 10 q 710 -30 786 -22 q 590 -37 635 -37 q 470 -31 544 -37 q 299 -8 396 -24 q 136 43 203 8 q 69 125 69 78 q 96 176 69 156 q 166 206 122 197 q 241 217 210 214 q 304 219 272 219 q 203 494 203 321 q 267 539 224 521 q 338 561 311 557 q 417 574 364 565 q 381 657 381 632 q 410 710 381 668 q 440 788 439 751 l 449 786 q 439 742 449 763 q 413 697 429 721 q 390 657 397 674 q 415 587 394 633 q 429 489 436 540 l 440 488 q 465 510 460 504 q 479 531 471 515 q 488 564 488 546 q 465 622 488 585 q 443 681 443 658 q 472 730 443 685 q 503 810 501 775 l 513 810 q 483 735 513 776 q 453 681 453 694 q 460 650 453 668 q 478 610 467 632 q 493 581 489 589 l 554 583 q 540 633 540 611 q 569 690 540 649 q 599 763 599 731 q 573 838 599 793 q 542 904 547 883 l 551 904 q 583 837 556 881 q 610 763 610 793 q 579 689 610 729 q 549 633 549 649 q 576 559 549 613 q 590 467 603 506 l 599 463 q 624 485 618 479 q 638 506 629 490 q 646 539 646 521 q 624 594 646 557 q 603 656 603 632 q 632 709 603 668 q 661 786 661 750 q 633 861 661 821 q 604 928 606 901 l 614 928 q 642 862 614 901 q 671 786 671 822 q 642 711 671 751 q 613 656 613 671 q 640 583 613 629 l 724 579 l 722 581 q 701 617 711 593 q 692 657 692 642 q 722 713 692 672 q 751 788 751 753 l 760 788 q 730 713 760 753 q 700 657 700 674 q 722 581 700 631 l 724 579 q 728 567 725 575 q 733 554 732 558 l 733 553 q 743 490 744 522 l 751 488 q 797 564 797 528 q 776 619 797 582 q 754 681 754 657 q 783 731 754 685 q 813 810 811 776 l 822 810 q 793 738 822 778 q 764 681 764 697 q 784 622 764 663 q 807 569 804 581 q 981 494 953 546 l 979 461 q 1044 482 1008 482 q 1096 451 1076 482 q 1115 386 1115 419 m 1046 386 q 1039 410 1046 397 q 1022 422 1032 422 q 974 408 999 422 q 885 226 958 300 q 1001 271 956 226 q 1046 386 1046 315 m 735 540 q 734 546 735 542 q 733 553 733 550 l 733 554 l 653 557 q 656 526 657 532 l 733 522 q 734 531 733 525 q 735 540 735 538 m 582 528 q 569 558 582 543 l 497 557 q 489 525 494 535 l 582 528 m 950 488 q 897 524 950 508 q 806 544 843 540 l 793 514 q 900 469 900 497 q 859 438 900 451 q 758 420 818 425 q 658 413 699 415 q 590 411 617 411 q 522 413 563 411 q 423 420 482 415 q 324 438 364 425 q 282 469 283 451 q 292 481 286 475 q 305 490 297 486 q 319 497 313 493 q 337 503 326 500 q 353 508 347 506 q 372 511 360 510 q 390 513 385 513 q 407 516 394 514 q 421 518 419 518 q 425 540 425 535 l 422 551 q 379 546 404 550 q 318 534 354 542 q 258 514 282 526 q 233 488 233 501 q 333 233 233 329 q 590 136 432 136 q 851 231 751 136 q 950 488 950 326 m 968 125 q 961 140 968 133 q 941 151 954 146 q 914 158 928 156 q 882 163 900 161 q 852 165 864 164 q 825 166 840 165 q 808 167 810 167 l 763 142 l 767 125 q 590 78 721 78 q 546 81 572 78 q 486 90 519 83 q 433 109 453 96 q 421 142 414 122 q 375 167 383 167 q 215 125 215 167 q 265 85 215 101 q 386 63 314 69 q 508 54 458 57 q 590 51 557 51 q 674 54 624 51 q 797 63 724 57 q 919 85 869 69 q 968 125 968 101 m 1082 125 q 1028 176 1082 158 q 933 194 975 194 q 878 187 928 194 q 825 178 828 179 q 884 175 851 178 q 954 159 917 172 q 992 125 992 146 q 938 78 992 97 q 806 49 883 58 q 671 37 728 40 q 579 33 614 33 q 492 38 547 33 q 365 51 438 42 q 242 79 293 60 q 192 125 192 99 q 196 140 192 133 q 209 152 200 147 q 227 161 218 157 q 251 168 236 165 q 275 172 265 171 q 301 175 285 174 q 324 176 317 176 q 344 177 331 176 q 358 178 357 178 l 328 200 q 100 125 100 200 q 144 67 100 93 q 248 28 188 42 q 383 7 308 15 q 508 -3 458 -1 q 590 -6 557 -6 q 704 -1 636 -6 q 864 17 772 4 q 1019 58 956 29 q 1082 125 1082 86 z "},"G":{"ha":1990,"x_min":69,"x_max":1921,"o":"m 1921 668 q 1906 599 1921 628 q 1876 555 1892 569 q 1861 536 1861 540 q 1874 290 1861 454 q 1888 46 1888 126 q 1843 1 1888 1 q 1813 14 1825 1 q 1800 46 1800 26 q 1813 290 1800 126 q 1826 536 1826 454 q 1802 569 1815 553 q 1783 594 1789 586 q 1773 621 1778 603 q 1768 668 1768 639 q 1788 763 1768 713 q 1843 814 1807 814 q 1901 763 1881 814 q 1921 668 1921 713 m 1715 46 q 1669 1 1715 1 q 1624 46 1624 1 q 1638 277 1624 122 q 1653 510 1653 432 q 1635 533 1653 515 q 1618 572 1618 551 l 1618 1064 q 1629 1093 1618 1071 q 1660 1107 1657 1107 q 1703 1061 1703 1107 l 1707 568 q 1697 535 1707 558 q 1686 510 1686 513 q 1701 277 1686 432 q 1715 46 1715 122 m 1544 542 q 1354 85 1544 272 q 893 -103 1164 -103 q 433 85 624 -103 q 242 542 242 274 q 432 999 242 811 q 893 1186 622 1186 q 1354 999 1164 1186 q 1544 542 1544 813 m 185 668 q 165 595 185 636 q 144 553 144 554 q 158 299 144 468 q 171 46 171 129 q 158 14 171 26 q 128 1 146 1 q 85 46 85 1 q 98 299 85 129 q 111 553 111 468 l 90 597 q 69 668 69 640 l 69 888 q 75 915 69 899 l 81 915 q 83 792 81 875 q 85 668 85 708 l 94 661 l 104 668 q 103 727 104 682 q 101 794 101 772 q 103 852 101 817 q 110 915 104 888 q 123 841 121 882 q 122 743 125 800 q 118 668 118 686 l 129 661 l 139 668 q 136 744 139 690 q 134 840 133 799 q 143 915 135 881 l 149 915 q 151 792 149 875 q 153 668 153 708 l 163 661 l 171 668 q 167 743 171 688 q 165 841 164 799 q 176 915 167 883 q 185 861 185 888 l 185 668 m 1169 267 q 1227 324 1169 267 q 1285 542 1285 381 q 1169 816 1285 703 q 893 929 1054 929 q 617 817 731 929 q 503 542 503 704 q 615 266 503 378 q 893 154 728 154 q 1169 267 1054 154 m 1142 788 q 1194 737 1142 788 q 1246 542 1246 686 q 1142 295 1246 397 q 893 193 1039 193 q 644 294 747 193 q 542 542 542 396 q 644 789 542 688 q 893 890 747 890 q 1142 788 1038 890 z "},"H":{"ha":1038,"x_min":69,"x_max":967,"o":"m 967 349 q 925 308 968 325 q 813 283 882 292 q 678 271 744 275 q 548 264 613 267 q 468 260 483 261 q 431 262 457 258 q 404 265 406 265 q 413 294 413 290 q 381 446 413 314 q 349 653 349 578 q 358 670 349 658 q 367 689 367 682 q 353 724 367 717 q 310 731 340 731 q 290 784 306 758 q 251 810 275 810 q 183 767 206 810 q 163 676 160 725 q 217 751 189 736 l 232 731 q 185 689 185 731 q 194 670 185 682 q 203 653 203 658 q 179 385 203 496 l 172 385 l 161 654 q 93 222 93 408 q 93 194 93 219 q 93 153 93 168 q 94 107 93 138 q 97 55 94 76 q 103 5 100 33 q 114 -42 107 -24 q 130 -79 121 -61 q 152 -106 139 -97 q 181 -115 165 -115 q 265 38 265 -115 q 246 236 265 167 l 268 235 q 288 28 288 149 q 263 -88 288 -39 q 181 -137 239 -137 q 71 244 68 -137 q 71 263 71 258 q 115 513 71 342 q 158 722 160 685 l 146 1061 q 150 1073 146 1064 q 154 1083 154 1082 q 288 1106 163 1094 q 460 1117 414 1117 l 896 1117 q 937 1049 921 1117 q 958 882 953 981 q 965 672 963 783 q 965 476 967 561 q 967 349 964 390 m 294 731 l 249 731 q 217 767 243 767 q 175 721 208 767 q 251 794 201 794 q 294 731 283 794 m 344 688 q 326 669 344 669 l 225 669 q 207 688 207 669 q 225 707 207 707 l 326 707 q 344 688 344 707 m 376 329 q 269 307 342 307 q 218 313 249 307 q 176 329 188 319 q 208 438 197 371 q 221 542 219 506 q 225 657 222 578 l 326 657 q 376 329 326 418 m 390 294 q 386 269 390 276 q 271 249 350 249 q 213 256 253 249 q 167 269 172 263 q 163 296 163 274 q 167 317 163 306 q 282 294 200 294 q 340 301 303 294 q 386 317 376 308 q 390 294 390 310 m 935 347 l 929 478 q 836 413 901 413 q 765 443 799 413 q 725 431 747 431 q 665 460 689 431 q 642 526 642 489 q 665 592 642 563 q 725 622 689 622 q 764 611 742 622 q 836 644 792 644 q 924 588 894 644 l 903 1081 l 896 1086 l 460 1086 q 441 1080 450 1086 q 432 1064 432 1074 q 435 960 432 1053 q 440 765 438 867 q 447 556 443 664 q 458 375 451 447 q 469 297 464 303 q 496 293 490 293 l 929 342 l 935 347 m 918 528 q 895 594 918 565 q 836 624 872 624 q 775 593 799 624 q 728 601 753 601 q 683 577 699 601 q 667 522 667 553 q 685 472 667 494 q 732 450 704 450 q 776 461 754 450 q 836 432 801 432 q 895 462 872 432 q 918 528 918 492 m 354 956 q 363 967 363 956 q 340 978 363 978 q 321 1053 340 1040 q 300 1058 313 1058 q 247 1015 271 1058 q 243 1016 246 1015 q 239 1017 240 1017 q 176 914 176 1017 q 189 797 176 833 l 203 808 l 193 883 l 233 944 q 242 944 236 944 q 252 943 247 943 q 262 944 257 943 q 269 947 267 944 q 272 956 272 950 q 272 963 272 960 q 267 967 271 967 q 263 968 264 968 q 256 968 261 968 q 249 968 250 968 q 257 1010 261 994 q 275 1032 261 1021 q 301 1043 289 1043 q 324 978 324 1043 q 317 978 322 978 q 310 978 313 978 q 303 977 307 978 q 298 974 300 976 q 296 967 296 971 q 306 956 296 956 l 354 956 m 432 372 l 407 1067 l 397 1076 l 386 1067 l 411 372 l 422 361 l 432 372 m 889 897 q 863 835 889 861 q 801 810 838 810 q 739 835 764 810 q 714 897 714 860 q 739 959 714 935 q 801 983 764 983 q 863 958 838 983 q 889 897 889 932 m 693 885 q 667 819 693 846 q 600 793 640 793 q 535 820 563 793 q 508 885 508 847 q 535 949 508 924 q 600 975 561 975 q 665 949 638 975 q 693 885 693 922 m 901 528 q 885 476 901 497 q 839 454 868 454 q 794 476 810 454 q 778 528 778 499 q 795 581 778 558 q 842 603 813 603 q 871 593 856 603 q 842 561 871 588 q 811 529 813 535 q 835 526 826 529 q 899 547 867 535 q 901 528 901 536 m 772 464 q 696 528 696 481 q 769 586 696 567 q 753 528 753 561 q 772 464 753 492 m 243 994 l 231 968 q 225 968 229 968 q 219 968 221 968 q 213 968 217 968 q 208 967 210 968 q 206 963 207 965 q 204 956 204 960 q 214 944 204 946 q 203 924 211 938 q 192 904 194 911 l 192 933 q 239 1001 192 997 q 243 994 243 1000 m 836 908 q 831 921 836 915 q 819 926 825 926 q 800 908 800 926 q 819 892 800 892 q 836 908 836 892 m 636 897 q 630 910 636 904 q 617 915 624 915 q 604 910 610 915 q 599 897 599 904 q 617 879 599 879 q 636 897 636 879 z "},"I":{"ha":532,"x_min":69,"x_max":463,"o":"m 463 -122 l 424 -136 q 418 -132 424 -132 q 413 -136 413 -132 l 389 -136 l 388 -128 l 381 -136 l 361 -140 l 356 -135 l 346 -140 l 322 -139 q 321 -133 326 -135 q 313 -137 314 -132 l 297 -136 q 293 -130 299 -131 q 285 -133 288 -129 l 264 -128 l 264 -121 l 256 -126 l 240 -125 q 238 -122 240 -122 q 231 -122 235 -121 l 228 -124 q 192 -111 211 -124 l 190 -103 l 183 -111 l 156 -103 q 153 -99 158 -100 q 149 -101 150 -99 l 122 -97 q 118 -93 122 -93 q 111 -96 114 -93 l 69 -72 q 97 8 75 -57 q 138 128 118 74 q 185 245 158 182 q 238 348 211 308 q 289 394 265 388 l 304 454 l 310 453 l 404 1210 l 426 1231 l 443 1224 q 445 1218 443 1222 q 449 1210 447 1214 q 450 1204 450 1206 l 357 446 l 364 446 l 361 386 q 419 136 400 333 q 463 -122 439 -61 m 393 228 q 376 333 393 281 q 319 385 360 385 q 282 376 299 385 q 253 350 265 368 q 235 319 242 332 q 218 281 228 307 q 206 247 208 254 q 226 239 219 247 l 258 318 l 268 311 l 240 242 l 251 238 q 263 268 256 261 l 272 265 l 264 239 q 279 233 265 239 q 290 236 285 236 q 307 228 299 236 q 322 235 314 235 q 333 228 329 235 l 339 231 q 346 233 344 233 q 361 225 353 233 q 376 231 367 231 q 390 225 385 231 l 393 228 m 401 136 l 394 213 q 386 208 390 208 q 381 213 385 208 q 374 218 378 218 q 364 213 369 218 q 353 214 357 213 q 343 218 350 218 q 336 213 342 218 q 325 217 333 213 q 318 221 325 221 q 310 214 314 221 q 299 218 307 214 q 290 224 299 224 q 283 220 286 224 q 276 217 279 217 q 272 221 275 217 q 261 225 269 225 l 229 140 l 240 136 l 247 139 l 256 169 l 268 167 l 261 138 q 268 131 265 135 q 285 138 275 138 q 294 131 288 138 q 308 136 300 136 q 321 128 313 136 q 338 133 326 133 q 350 128 344 133 q 367 135 364 135 q 378 129 372 135 q 401 136 385 136 m 244 221 q 236 232 242 228 l 204 144 l 214 139 l 244 221 m 222 225 q 216 232 218 228 q 211 236 214 236 q 201 233 207 236 l 168 151 q 186 142 181 151 l 190 143 l 222 225 m 443 -112 q 404 115 410 -29 l 394 122 q 381 114 392 122 l 369 115 l 365 119 q 356 115 361 119 q 347 111 350 111 q 333 121 342 113 q 319 113 331 121 q 307 122 311 115 l 297 115 q 281 124 286 118 l 271 117 q 256 126 260 119 q 240 68 250 108 q 219 -3 229 28 q 197 -58 210 -33 l 185 -56 q 240 119 232 94 q 226 129 235 125 q 157 -56 167 -42 l 149 -50 l 208 122 q 199 133 203 131 q 132 -46 175 60 l 121 -40 l 185 128 l 172 138 l 164 136 l 89 -65 l 114 -79 l 124 -67 q 128 -85 124 -76 l 154 -87 l 168 -74 l 169 -92 l 185 -96 l 197 -78 l 204 -97 l 213 -99 l 219 -92 l 225 -106 q 243 -94 238 -106 l 247 -110 l 261 -110 l 269 -96 l 275 -112 l 292 -117 l 300 -101 l 304 -119 l 313 -119 l 324 -106 l 332 -124 l 353 -124 l 361 -107 l 364 -122 l 383 -117 l 392 -103 l 397 -119 l 415 -117 l 418 -101 l 426 -119 l 443 -112 m 268 74 l 233 -69 l 221 -67 l 256 78 l 268 74 m 279 14 l 267 -78 l 254 -74 q 261 -32 254 -67 q 263 -10 263 -26 q 267 14 264 6 l 279 14 z "},"J":{"ha":2181,"x_min":69,"x_max":2111,"o":"m 2111 440 q 1919 401 2068 401 q 1736 454 1797 401 l 1736 574 l 1768 593 l 1769 613 q 1719 694 1775 678 l 1690 847 l 1597 847 l 1575 700 l 1379 696 q 1207 713 1292 694 l 1186 847 l 1093 847 l 1064 694 q 1015 596 1015 682 l 1017 593 l 1049 574 l 1049 454 q 974 414 1038 449 q 854 349 911 379 q 790 318 797 318 q 732 349 754 318 q 701 421 710 379 l 671 440 l 671 554 l 704 574 q 758 706 704 646 q 890 801 811 765 q 1066 860 968 836 q 1245 894 1164 885 q 1392 903 1326 903 q 1612 879 1476 903 q 1886 802 1747 856 q 2064 682 2025 749 q 2073 656 2069 672 q 2077 631 2076 640 q 2078 599 2078 621 q 2079 574 2079 578 l 2111 554 l 2111 440 m 1828 60 q 1618 -33 1703 -10 q 1392 -56 1533 -56 q 1152 -31 1254 -56 q 938 60 1050 -6 l 938 107 l 951 125 l 951 169 l 1071 250 q 1269 486 1071 407 l 1269 565 l 1086 635 l 1108 824 l 1171 824 l 1182 690 q 1460 672 1301 672 q 1594 679 1557 672 l 1614 824 l 1675 824 l 1699 635 l 1513 565 l 1513 486 q 1713 250 1708 415 l 1815 169 l 1815 125 l 1828 107 l 1828 60 m 1018 240 l 996 225 q 942 236 974 236 q 847 213 886 236 q 785 156 808 189 q 741 90 763 122 q 685 33 719 57 q 600 10 650 10 q 504 36 519 10 q 500 51 500 43 q 594 122 528 82 q 686 186 661 163 q 519 232 688 232 q 181 69 456 69 q 69 122 69 69 q 121 192 69 164 q 251 231 172 219 q 385 247 329 243 q 485 251 440 251 l 475 231 q 388 228 436 231 q 264 217 339 225 q 140 187 189 208 q 92 133 92 165 q 181 92 92 92 q 349 114 281 92 q 447 172 417 136 q 495 255 478 208 q 513 351 513 301 q 520 449 514 400 q 537 538 526 497 q 583 606 547 578 q 679 640 619 633 l 679 615 q 605 590 635 615 q 561 517 575 565 q 542 431 547 469 q 533 331 536 392 q 528 253 529 269 q 713 197 713 253 q 699 166 713 183 q 658 129 685 149 q 613 97 632 110 q 562 66 594 85 q 528 46 529 47 q 600 33 551 33 q 676 56 643 33 q 733 112 710 79 q 782 178 757 144 q 847 234 807 211 q 940 257 888 257 q 1018 240 986 257 m 2004 610 l 2004 621 l 1813 667 q 1803 636 1803 650 l 1803 615 q 1812 611 1803 614 q 1832 606 1821 608 q 1844 604 1843 604 q 1910 599 1886 599 q 2004 610 1975 599 m 2076 447 l 2076 532 l 2028 522 l 2028 435 l 2076 447 m 1867 582 l 1813 586 l 1765 560 l 1826 554 l 1867 582 m 1479 490 l 1479 560 l 1429 560 l 1451 490 l 1479 490 m 1546 413 q 1511 431 1546 431 q 1483 413 1483 431 q 1517 393 1483 393 q 1546 413 1546 393 m 1453 439 q 1419 457 1453 457 q 1389 439 1389 457 q 1422 419 1389 419 q 1453 439 1453 419 m 1550 206 q 1579 224 1579 206 q 1544 242 1579 242 q 1515 224 1515 242 q 1550 206 1515 206 m 1665 307 l 1538 315 q 1486 382 1533 357 q 1393 407 1439 407 q 1293 381 1340 407 q 1246 307 1246 356 q 1292 233 1246 258 q 1393 208 1339 208 q 1485 231 1443 208 q 1538 297 1528 253 l 1663 274 l 1665 307 m 1322 413 q 1351 431 1351 413 q 1317 449 1351 449 q 1289 431 1289 449 q 1322 413 1289 413 m 1468 163 q 1496 181 1496 163 q 1463 199 1496 199 q 1435 181 1435 199 q 1468 163 1435 163 m 1238 372 q 1267 390 1267 372 q 1232 408 1267 408 q 1204 390 1204 408 q 1238 372 1204 372 m 1394 175 q 1361 193 1394 193 q 1332 175 1332 193 q 1364 156 1332 156 q 1394 175 1394 156 m 1226 325 q 1193 344 1226 344 q 1164 325 1164 344 q 1199 307 1164 307 q 1226 325 1226 307 m 1021 475 l 1021 556 l 971 544 l 971 458 l 1021 475 m 1300 200 q 1265 219 1300 219 q 1238 200 1238 219 q 1271 182 1238 182 q 1300 200 1300 182 m 1239 256 q 1207 275 1239 275 q 1176 256 1176 275 q 1210 238 1176 238 q 1239 256 1239 238 m 943 596 l 943 607 l 751 653 q 742 622 742 636 l 742 601 q 746 599 742 599 q 785 592 756 594 q 863 586 835 586 q 943 596 919 586 m 1392 74 l 1392 97 q 1226 136 1314 97 q 1125 239 1139 175 l 1088 232 q 1202 115 1108 154 q 1392 74 1296 75 m 806 568 l 751 572 l 704 546 l 765 540 l 806 568 m 1494 311 q 1460 262 1494 278 q 1389 246 1426 246 q 1324 263 1356 246 q 1292 311 1292 281 q 1326 362 1292 346 q 1397 378 1360 378 q 1463 360 1432 378 q 1494 311 1494 343 m 1463 292 l 1456 329 l 1331 329 l 1325 292 l 1463 292 z "},"K":{"ha":1501,"x_min":69,"x_max":1432,"o":"m 1432 515 q 1337 185 1432 333 q 1085 -44 1242 38 q 750 -125 929 -125 q 415 -44 571 -125 q 165 186 260 38 q 69 515 69 335 q 164 844 69 696 q 414 1075 258 993 q 750 1157 569 1157 q 1085 1075 929 1157 q 1336 844 1240 993 q 1432 515 1432 696 m 1163 647 q 1151 663 1163 656 q 1131 671 1140 671 q 1094 656 1094 671 q 1106 642 1094 647 q 1128 636 1118 636 q 1163 647 1163 636 m 1166 544 q 1171 546 1166 544 q 1176 551 1176 547 q 1172 557 1176 556 l 1161 558 q 1139 561 1151 560 q 1122 564 1126 563 q 1082 575 1094 569 l 1074 579 q 1068 568 1068 579 q 1076 554 1068 560 q 1088 539 1085 549 q 1092 499 1092 526 q 1104 490 1092 490 q 1117 494 1117 490 q 1143 528 1117 528 q 1156 531 1156 528 q 1166 544 1156 542 m 982 775 l 978 783 q 924 806 933 806 q 911 803 919 806 q 897 797 903 800 l 890 794 q 750 803 858 794 q 633 817 642 811 q 619 838 626 821 q 604 858 611 854 q 543 839 567 858 q 592 832 547 832 q 601 809 597 825 q 610 788 606 793 l 914 756 q 917 766 915 757 q 924 776 919 775 q 949 776 928 778 q 974 772 971 774 l 982 775 m 1350 517 q 1172 922 1350 758 q 749 1085 993 1085 q 501 1034 621 1085 q 296 892 382 983 l 356 875 l 365 886 q 458 894 411 894 q 711 883 578 894 q 1001 831 844 872 q 1217 722 1158 789 q 1248 642 1240 696 q 1269 565 1256 588 l 1261 489 q 1150 461 1232 461 q 1056 482 1103 461 q 992 542 1010 503 q 997 569 993 549 q 1003 601 1000 590 q 1015 624 1006 611 q 1036 643 1024 636 l 1040 657 q 1025 697 1040 682 q 986 668 1001 682 q 965 651 971 654 q 947 647 960 649 q 899 644 933 644 l 875 642 l 858 626 l 863 611 q 851 592 851 594 q 878 495 851 535 q 940 437 906 456 q 1019 388 975 418 q 1088 324 1064 357 l 1093 247 q 969 167 1057 192 q 793 143 881 143 q 685 151 747 143 q 551 175 624 158 q 430 228 479 192 q 381 314 381 265 q 522 453 381 414 l 532 474 q 300 419 367 451 q 196 294 208 375 q 418 43 265 136 q 749 -50 571 -50 q 1044 22 907 -50 q 1266 226 1182 94 q 1350 517 1350 357 m 836 472 q 811 490 836 490 q 785 472 785 490 q 814 453 785 453 q 836 472 836 453 m 785 513 q 754 532 785 532 q 731 513 731 532 q 758 494 731 494 q 775 500 765 494 q 785 513 785 506 m 718 518 q 693 539 718 539 q 667 518 667 539 q 696 500 667 500 q 718 518 718 500 m 651 500 q 643 513 651 507 q 626 519 635 519 q 601 500 601 519 q 628 478 601 478 q 651 500 651 478 m 747 431 l 644 447 l 617 408 l 725 393 l 747 431 m 421 700 q 390 724 421 724 q 364 700 364 724 q 390 683 364 683 q 410 688 399 683 q 421 700 421 693 m 785 321 q 757 344 785 344 q 732 321 732 344 q 758 300 732 300 q 785 321 785 300 m 601 458 q 575 481 601 481 q 551 458 551 481 q 578 439 551 439 q 594 444 586 439 q 601 458 601 450 m 717 596 q 707 618 708 610 l 715 633 q 703 658 714 647 q 675 676 693 668 q 643 688 657 683 q 606 697 629 692 q 578 704 583 703 q 571 728 576 707 q 561 760 565 749 q 549 785 557 771 q 533 804 542 800 l 521 794 q 517 761 517 778 q 544 718 517 749 q 572 661 572 688 q 557 614 572 625 q 365 511 461 549 q 344 530 353 518 q 327 558 335 542 q 314 583 319 575 q 297 592 313 586 q 276 601 281 599 q 271 668 271 622 q 276 694 271 685 q 289 710 282 704 q 301 742 296 717 q 307 810 307 767 q 314 820 307 814 q 332 833 321 826 l 343 842 l 272 864 q 146 511 146 713 q 174 346 146 436 q 553 500 233 469 q 626 547 581 528 q 710 567 672 567 l 717 596 m 415 653 q 382 668 415 668 q 350 647 350 668 q 361 638 350 642 q 376 637 363 638 q 392 636 389 636 q 415 653 415 636 m 869 346 q 864 356 869 353 q 851 351 861 356 q 838 347 842 347 q 785 375 799 347 l 775 372 q 806 336 775 350 l 835 322 q 783 282 835 303 q 707 261 732 261 q 622 272 671 261 q 557 303 572 283 l 551 301 l 550 293 q 707 240 617 240 q 810 273 751 240 q 869 346 869 306 m 717 304 q 708 319 717 313 q 690 325 699 325 q 664 304 664 325 q 690 281 664 281 q 717 304 717 281 m 560 386 q 582 406 582 386 q 554 425 582 425 q 532 406 532 425 q 560 386 532 386 m 650 314 q 624 336 650 336 q 599 314 599 336 q 625 293 599 293 q 650 314 650 293 m 596 347 q 569 371 596 371 q 547 346 547 371 q 572 325 547 325 q 596 347 596 325 z "},"L":{"ha":1276,"x_min":69,"x_max":1207,"o":"m 1150 932 l 1143 913 l 1081 932 l 1085 942 l 1150 932 m 1078 808 l 1060 797 l 1031 850 l 1039 857 l 1078 808 m 964 760 l 944 758 l 943 822 l 951 824 l 964 760 m 1207 536 q 1121 249 1207 378 q 1160 216 1150 231 q 1172 171 1171 201 q 1082 131 1150 143 q 1003 115 1014 119 q 893 59 964 99 q 768 3 822 19 q 638 -14 714 -14 q 235 147 401 -14 q 69 543 69 307 q 237 938 69 776 q 638 1100 404 1100 q 814 1072 743 1100 q 915 1114 876 1114 q 1000 1073 942 1114 q 1058 1004 1058 1032 q 1012 899 1058 946 q 907 851 965 851 q 872 870 888 851 q 841 916 856 889 q 821 950 826 943 q 781 911 801 938 q 735 841 761 885 q 706 792 710 797 l 711 725 q 663 668 696 696 l 658 631 q 622 614 643 621 l 614 594 q 624 565 613 588 l 657 556 q 685 508 681 524 q 690 451 690 493 q 665 361 690 404 q 594 318 639 318 q 490 336 558 318 q 444 397 465 363 q 454 449 444 419 l 447 456 l 439 442 l 410 476 q 382 436 392 463 q 414 379 413 383 q 393 355 406 367 q 363 330 381 343 q 338 310 346 317 l 347 281 q 390 267 368 267 q 471 278 417 267 q 553 289 525 289 q 649 261 593 289 l 668 267 q 681 290 671 271 q 694 314 690 308 q 707 335 697 319 q 722 356 717 350 q 739 374 728 363 q 760 390 750 385 q 783 399 769 394 q 811 407 796 404 l 813 446 q 808 452 806 449 q 813 463 810 456 q 814 475 815 471 q 752 512 799 494 q 690 551 706 529 l 686 642 q 719 651 697 651 q 728 648 722 651 q 736 644 735 644 l 738 628 l 756 625 l 758 589 q 865 572 821 572 q 972 583 932 572 l 974 615 q 983 620 976 618 q 992 624 990 622 q 990 636 993 626 l 1019 649 l 1044 639 q 1041 568 1044 590 q 1029 536 1038 546 q 1010 524 1021 526 q 979 510 1000 522 q 938 476 958 499 q 936 419 933 463 l 938 403 q 993 366 971 394 q 1025 301 1015 338 q 1051 281 1028 300 q 1088 256 1075 261 q 1174 543 1174 383 q 1128 760 1174 658 l 1156 775 q 1207 536 1207 653 m 1014 939 l 982 956 l 978 956 q 976 950 976 956 l 999 917 q 1014 939 1014 924 m 1039 1013 q 1025 1018 1033 1018 q 944 972 992 1018 q 896 892 896 926 q 901 878 896 883 l 928 878 l 928 885 q 913 897 913 885 q 935 944 913 914 q 963 955 951 944 q 974 982 974 965 q 1029 997 1006 1006 l 1039 1013 m 919 986 l 913 992 q 863 925 874 975 l 874 919 q 890 956 875 935 q 919 986 906 976 m 1031 628 l 1014 628 l 1011 558 l 1028 558 l 1031 628 m 643 913 l 642 914 q 624 915 636 915 q 595 892 614 906 q 569 871 576 878 q 596 865 582 865 l 643 913 m 954 518 l 954 526 q 897 481 897 526 l 919 481 q 954 518 919 513 m 729 556 l 724 628 l 707 628 l 711 556 l 729 556 m 786 1054 q 638 1074 711 1074 q 287 944 436 1074 q 106 615 138 815 q 124 626 110 617 q 142 635 139 635 q 160 641 144 636 q 182 640 176 646 q 286 728 236 672 q 372 832 336 783 q 454 926 408 881 q 569 992 500 971 q 729 1006 638 1014 l 786 1054 m 900 296 l 817 296 l 824 339 l 900 339 q 846 365 885 365 q 801 351 822 365 q 781 315 781 338 q 844 265 781 265 q 900 296 881 265 m 717 990 q 668 996 686 996 q 573 974 622 996 q 484 923 524 953 q 397 844 444 893 q 318 760 349 796 q 244 671 288 725 q 182 596 200 617 q 174 615 174 604 l 167 618 l 158 607 q 156 582 156 590 q 210 469 156 532 q 314 406 265 407 q 349 444 325 411 q 244 522 289 478 q 246 526 243 525 q 251 526 249 528 q 318 489 276 501 q 353 516 333 492 q 382 546 374 540 q 415 564 392 551 q 456 588 439 576 q 482 615 472 600 q 510 660 497 638 q 527 691 522 682 q 544 712 532 700 q 574 734 556 724 q 629 761 593 744 q 674 799 646 769 q 703 844 703 828 q 688 872 703 864 q 644 847 674 869 q 663 821 653 832 q 689 832 678 824 l 692 828 q 664 814 683 819 q 638 851 639 822 l 663 871 l 657 875 q 578 828 629 864 q 496 782 526 793 q 463 776 489 779 q 425 764 438 774 l 414 769 q 508 866 429 797 q 618 950 588 935 l 668 944 q 717 990 676 950 m 672 443 l 672 449 q 667 460 672 461 l 632 453 q 628 450 628 453 q 631 446 628 446 l 668 433 l 671 439 q 672 443 672 442 m 1000 263 l 988 267 q 844 197 950 197 q 731 233 771 197 l 722 226 q 850 179 769 179 q 941 201 897 179 q 1000 263 985 222 m 640 360 l 636 364 q 625 358 631 358 q 604 415 604 358 q 618 442 618 429 q 608 468 618 458 q 640 514 618 514 l 638 532 q 604 499 617 532 q 592 442 592 467 q 621 343 592 347 q 640 360 636 350 m 574 364 l 571 385 q 525 392 536 385 l 522 378 q 574 364 542 364 m 540 472 l 535 476 q 507 450 515 458 q 490 424 499 442 q 481 388 481 407 q 521 347 481 347 l 518 350 q 503 365 510 350 q 496 392 496 381 q 540 472 496 428 m 943 108 q 844 101 911 101 q 676 117 786 101 q 567 158 567 133 q 567 191 567 181 q 573 215 568 201 q 588 238 578 229 q 617 251 599 246 q 560 268 594 268 q 472 257 531 268 q 385 246 413 246 q 341 258 361 246 q 321 292 321 269 q 215 217 303 282 q 638 13 385 13 q 943 108 807 13 z "},"M":{"ha":1543,"x_min":69,"x_max":1474,"o":"m 1474 304 q 1422 185 1474 232 q 1297 138 1371 138 q 1227 156 1257 138 q 1178 214 1197 175 q 1151 282 1160 253 q 1131 365 1142 311 q 1115 433 1119 418 q 1078 462 1111 438 q 1029 501 1046 486 q 988 539 1013 515 q 951 585 963 563 q 939 628 939 607 q 982 748 939 696 q 1092 800 1025 800 q 1197 774 1157 800 q 1249 714 1236 747 q 1281 629 1261 681 q 1321 547 1300 578 q 1369 491 1339 522 q 1421 440 1400 460 q 1458 383 1442 419 q 1474 304 1474 347 m 756 938 q 784 916 756 938 q 811 815 811 894 q 764 692 811 736 q 656 635 717 647 q 514 606 596 624 q 389 563 432 589 q 236 499 283 499 q 118 547 167 499 q 69 663 69 594 q 92 765 69 729 q 154 812 115 801 q 234 824 193 822 q 321 832 275 825 q 393 858 367 839 q 432 888 401 864 q 478 923 463 913 q 522 950 494 933 q 574 974 550 967 q 621 981 597 981 q 756 938 701 981 m 876 335 q 869 272 876 297 q 835 223 861 246 q 799 192 810 200 q 742 158 788 185 q 651 -24 708 40 q 483 -89 593 -89 q 378 -54 411 -89 q 344 54 344 -19 q 354 113 344 86 q 390 163 364 139 q 431 197 417 186 q 488 232 446 208 q 538 260 531 256 q 726 475 608 475 q 833 436 789 475 q 876 335 876 397 m 1422 304 q 1414 353 1422 328 q 1397 397 1406 379 q 1367 441 1389 414 q 1337 478 1346 468 q 1299 517 1328 488 q 1268 551 1271 547 q 1249 629 1260 596 q 1219 697 1239 663 q 1167 750 1200 732 q 1089 768 1133 768 q 1017 731 1047 768 q 988 650 988 693 q 997 604 988 626 q 1015 567 1006 582 q 1048 534 1025 553 q 1082 508 1071 515 q 1123 481 1093 500 q 1160 458 1153 463 q 1213 250 1185 304 q 1285 192 1243 192 q 1422 304 1422 192 m 760 814 q 722 916 760 875 q 622 957 683 957 q 510 897 583 957 q 421 829 438 838 q 334 810 393 815 q 230 800 275 804 q 149 765 185 796 q 113 675 113 735 q 149 578 113 615 q 246 540 186 540 q 361 589 293 540 q 463 644 429 638 q 518 653 479 647 q 584 665 557 660 q 647 681 611 669 q 706 709 683 693 q 744 752 728 725 q 760 814 760 779 m 832 315 q 729 439 832 439 q 656 411 682 439 q 608 324 629 383 q 581 250 588 264 q 550 233 578 249 q 513 210 522 217 q 478 186 503 203 q 441 158 453 169 q 414 129 429 146 q 392 95 399 113 q 386 60 386 78 q 419 -22 386 10 q 503 -53 451 -53 q 567 -42 540 -53 q 614 -4 594 -31 q 643 41 633 22 q 668 101 653 60 q 690 158 683 143 q 737 189 724 179 q 778 222 750 199 q 819 267 807 244 q 832 315 832 290 m 1207 675 l 1178 661 q 1157 692 1168 681 l 1183 713 l 1207 675 m 1164 721 l 1133 708 q 1107 724 1131 715 l 1111 753 q 1164 721 1147 753 m 1222 617 l 1193 610 l 1188 639 l 1214 656 q 1219 636 1217 653 q 1222 617 1221 619 m 1157 654 l 1126 644 l 1113 667 l 1139 685 q 1144 677 1140 682 q 1149 669 1147 672 q 1157 654 1156 656 m 1313 467 l 1281 454 q 1264 476 1267 468 l 1293 490 q 1313 467 1307 478 m 1347 426 l 1321 407 q 1315 419 1321 408 q 1306 433 1308 431 l 1332 450 q 1347 426 1346 442 m 1381 383 l 1349 369 q 1338 397 1349 386 l 1360 415 q 1381 383 1371 408 m 1400 329 l 1368 319 q 1364 334 1367 324 q 1360 350 1361 344 l 1386 367 q 1400 329 1388 365 m 1335 363 l 1304 350 l 1292 375 l 1324 389 q 1328 375 1324 383 q 1335 363 1333 367 m 1403 307 l 1400 275 l 1368 278 q 1374 304 1368 297 l 1403 307 m 1346 315 l 1314 304 l 1313 331 l 1342 342 q 1346 315 1346 329 m 617 886 q 594 872 600 878 l 567 893 q 599 915 578 904 l 617 886 m 574 856 q 544 836 567 849 l 531 865 l 551 881 l 574 856 m 607 811 l 569 786 l 556 817 q 583 838 568 822 l 607 811 m 518 821 q 485 800 497 813 l 472 829 l 506 850 l 518 821 m 800 375 l 769 367 q 757 385 764 379 l 774 415 q 800 375 799 396 m 813 329 q 806 307 813 318 l 775 315 l 779 329 q 775 351 779 331 l 806 357 q 813 329 813 346 m 371 761 l 326 753 l 324 783 l 365 790 l 371 761 m 760 351 q 751 319 760 339 l 719 332 q 726 351 724 338 l 760 351 m 306 783 l 303 753 l 257 751 l 260 782 l 306 783 m 800 286 q 767 242 796 271 l 742 261 q 756 277 746 267 q 769 293 765 288 l 800 286 m 303 708 l 261 707 l 260 736 l 303 736 l 303 708 m 239 750 q 211 742 224 747 l 196 768 q 236 779 211 776 l 239 750 m 239 704 q 222 697 225 704 l 200 724 q 233 735 207 731 l 239 704 m 643 131 l 632 88 l 601 97 l 611 140 l 643 131 m 625 65 l 601 26 l 569 39 q 594 82 576 60 l 625 65 m 574 75 l 556 54 l 531 72 l 549 94 l 574 75 m 546 43 q 513 24 539 33 l 506 54 q 519 61 514 54 l 546 43 m 583 6 q 535 -17 571 -11 l 526 13 q 560 28 551 19 l 583 6 z "},"N":{"ha":1486,"x_min":69,"x_max":1417,"o":"m 1417 725 l 1404 642 q 1333 613 1358 628 q 1294 583 1307 597 q 1278 541 1281 568 q 1278 490 1276 514 q 1285 415 1281 465 q 1289 319 1289 365 l 1304 310 l 1304 283 l 1289 275 l 1289 231 l 1278 219 l 1257 217 l 1228 221 l 1218 231 l 1218 253 l 1054 133 l 1054 483 l 824 556 q 688 488 776 488 q 554 567 600 488 l 521 560 l 511 574 l 547 575 l 536 594 l 500 592 l 490 607 l 532 606 l 522 624 l 485 626 l 475 649 l 517 638 q 511 663 513 646 q 511 706 510 681 q 513 733 513 732 l 442 731 l 442 721 l 483 706 l 449 672 l 288 724 l 288 738 l 318 765 q 299 824 299 782 l 301 854 l 313 869 l 313 885 l 353 917 q 242 964 244 956 q 247 1054 261 1010 l 263 1058 l 283 1031 l 282 993 l 283 978 q 336 958 306 956 l 390 983 l 390 1000 l 596 1064 q 648 1147 615 1108 q 717 1185 681 1185 q 901 1171 804 1185 q 1140 1128 999 1157 q 1325 1093 1282 1100 l 1329 1079 q 1294 1040 1317 1065 q 1252 994 1271 1015 q 1217 954 1233 974 l 1272 940 l 1272 911 l 1321 899 l 1321 890 l 1158 804 l 1200 793 l 1344 875 l 1350 871 l 1332 808 l 1375 790 q 1369 740 1382 763 l 1417 725 m 1044 93 l 1028 82 l 1026 33 l 1017 21 q 993 13 996 13 q 951 22 974 13 l 951 54 l 772 -82 l 772 -10 q 886 113 822 8 q 982 297 950 218 l 963 303 q 865 125 929 226 q 750 6 800 24 l 640 44 l 621 33 l 751 -19 l 751 -82 l 69 214 l 69 265 q 190 366 119 281 q 299 518 261 451 l 299 700 l 456 651 q 547 510 496 560 q 683 461 597 461 q 831 526 776 461 l 1026 458 l 1028 129 l 1044 119 l 1044 93 m 1340 735 q 1317 779 1340 778 q 1283 714 1292 760 l 1265 714 q 1297 779 1275 760 l 1290 779 q 1258 748 1269 779 q 1246 693 1246 717 q 1267 653 1246 653 l 1293 653 q 1326 683 1313 653 q 1340 735 1340 713 m 1299 1078 q 1119 1111 1243 1086 q 899 1150 996 1136 q 718 1164 801 1164 q 635 1083 678 1164 q 576 942 593 1003 l 568 976 q 558 979 567 976 q 544 982 549 982 q 528 979 535 982 q 517 969 522 976 q 511 958 513 961 q 506 942 510 954 q 503 928 503 929 l 586 907 q 611 950 589 938 l 632 944 q 604 901 608 926 l 1039 792 q 1067 843 1042 817 l 1090 836 q 1061 786 1068 819 l 1126 769 l 1126 811 l 1157 832 l 1126 838 l 1100 811 q 1156 909 1115 853 q 1222 993 1197 965 q 1299 1078 1246 1021 m 1051 539 q 1032 600 1032 571 q 1047 649 1032 642 l 1017 658 q 1003 608 1003 650 q 1021 551 1003 578 l 1051 539 m 1035 732 l 399 899 l 371 876 l 1010 694 l 1035 732 m 882 628 l 882 635 q 850 656 860 635 l 694 699 l 694 693 q 733 653 694 679 q 829 617 781 617 l 839 617 q 882 628 860 617 m 983 414 l 983 422 q 963 433 983 433 q 942 422 942 433 l 942 414 q 963 404 942 404 q 983 414 983 404 m 793 588 q 696 630 747 588 q 643 717 644 672 l 610 703 q 665 606 610 647 q 778 564 721 564 l 793 588 m 856 447 l 856 457 q 836 468 844 468 q 817 461 826 468 q 814 457 817 460 l 814 447 q 819 443 817 446 q 836 439 826 439 q 856 447 844 439 m 589 713 q 567 731 589 726 q 555 733 564 732 q 543 735 546 735 l 543 686 q 589 713 589 697 m 603 650 l 596 665 l 550 643 l 558 628 l 603 650 m 614 624 l 606 638 l 565 614 l 576 603 l 614 624 m 631 600 l 619 611 l 589 592 l 601 583 l 631 600 m 896 297 l 896 307 q 876 318 885 318 q 858 311 868 318 q 856 307 858 310 l 856 297 q 862 294 860 296 q 867 290 864 292 q 876 289 871 289 q 896 297 885 289 m 849 314 l 849 322 q 824 335 849 335 q 800 322 800 335 l 800 314 q 828 303 800 303 q 849 314 849 303 m 796 329 l 796 338 q 772 350 796 350 q 750 338 750 350 l 750 329 q 772 318 750 318 q 796 329 796 318 m 744 346 l 744 356 q 722 367 744 367 q 699 356 699 367 l 699 346 q 725 335 699 335 q 744 346 744 335 m 838 239 l 838 249 q 813 261 838 261 q 789 249 789 261 l 789 239 q 817 228 789 228 q 838 239 838 228 m 694 363 l 694 372 q 669 385 694 385 q 646 372 646 385 l 646 363 q 674 351 646 351 q 694 363 694 351 m 785 256 l 785 265 q 761 278 785 278 q 739 265 739 278 l 739 256 q 761 246 739 246 q 785 256 785 246 m 642 381 l 642 390 q 618 403 642 403 q 596 390 596 403 l 596 381 q 618 371 596 371 q 642 381 642 371 m 733 274 l 733 282 q 711 294 733 294 q 688 282 688 294 l 688 274 q 714 263 688 263 q 733 274 733 263 m 815 176 l 815 185 q 793 197 815 197 q 769 185 769 197 l 769 176 q 796 165 769 165 q 815 176 815 165 m 590 399 l 590 407 q 568 419 590 419 q 543 407 543 419 l 543 399 q 571 388 543 388 q 590 399 590 388 m 682 292 l 682 301 q 658 314 682 314 q 635 301 635 314 l 635 292 q 663 281 635 281 q 682 292 682 281 m 765 193 l 765 203 q 738 214 765 214 q 718 203 718 214 l 718 193 q 746 182 718 182 q 765 193 765 182 m 539 417 l 539 426 q 515 439 539 439 q 492 426 492 439 l 492 417 q 519 406 492 406 q 539 417 539 406 m 631 310 l 631 319 q 607 332 631 332 q 585 319 585 332 l 585 310 q 607 300 585 300 q 631 310 631 300 m 819 114 l 819 124 q 785 139 819 139 q 758 124 758 139 l 758 114 q 790 99 758 99 q 819 114 819 99 m 714 210 l 714 219 q 690 232 714 232 q 667 219 667 232 l 667 210 q 694 199 667 199 q 714 210 714 199 m 488 433 l 488 443 q 464 456 488 456 q 442 443 442 456 l 442 433 q 464 422 442 422 q 488 433 488 422 m 579 331 l 579 339 q 557 351 579 351 q 532 339 532 351 l 532 331 q 560 319 532 319 q 579 331 579 319 m 661 228 l 661 238 q 639 250 661 250 q 615 238 615 250 l 615 228 q 642 218 615 218 q 661 228 661 218 m 436 453 l 436 461 q 414 474 436 474 q 389 461 389 474 l 389 453 q 417 442 389 442 q 436 453 436 442 m 751 129 l 751 139 q 728 151 751 151 q 704 139 704 151 l 704 129 q 732 119 704 119 q 751 129 751 119 m 528 349 l 528 358 q 504 371 528 371 q 481 358 481 371 l 481 349 q 508 338 481 338 q 528 349 528 338 m 611 247 l 611 256 q 588 268 611 268 q 564 256 564 268 l 564 247 q 592 236 564 236 q 611 247 611 236 m 385 468 l 385 476 q 361 489 385 489 q 338 476 338 489 l 338 468 q 365 457 338 457 q 385 468 385 457 m 700 149 l 700 157 q 675 169 700 169 q 653 157 653 169 l 653 149 q 675 138 653 138 q 700 149 700 138 m 476 369 l 476 378 q 453 390 476 390 q 431 378 431 390 l 431 369 q 453 358 431 358 q 476 369 476 358 m 560 267 l 560 276 q 535 289 560 289 q 513 276 513 289 l 513 267 q 535 256 513 256 q 560 267 560 256 m 647 168 l 647 178 q 625 190 647 190 q 601 178 601 190 l 601 168 q 628 157 601 157 q 647 168 647 157 m 425 388 l 425 397 q 397 408 425 408 q 378 397 378 408 l 378 388 q 406 376 378 376 q 425 388 425 376 m 507 286 l 507 294 q 485 307 507 307 q 461 294 461 307 l 461 286 q 488 275 461 275 q 507 286 507 275 m 597 189 l 597 197 q 574 210 597 210 q 550 197 550 210 l 550 189 q 578 178 550 178 q 597 189 597 178 m 374 407 l 374 417 q 350 429 374 429 q 326 417 326 429 l 326 407 q 354 397 326 397 q 374 407 374 397 m 457 306 l 457 315 q 433 328 457 328 q 410 315 410 328 l 410 306 q 438 294 410 294 q 457 306 457 294 m 544 208 l 544 218 q 521 231 544 231 q 499 218 499 231 l 499 208 q 521 197 499 197 q 544 208 544 197 m 322 425 l 322 433 q 299 446 322 446 q 276 433 276 446 l 276 425 q 299 414 276 414 q 322 425 322 414 m 404 324 l 404 333 q 381 346 404 346 q 358 333 358 346 l 358 324 q 381 314 358 314 q 404 324 404 314 m 493 228 l 493 238 q 471 250 493 250 q 447 238 447 250 l 447 228 q 474 218 447 218 q 493 228 493 218 m 353 344 l 353 353 q 331 365 353 365 q 307 353 307 365 l 307 344 q 333 333 307 333 q 353 344 353 333 m 443 249 l 443 258 q 415 269 443 269 q 394 258 394 269 l 394 249 q 422 238 394 238 q 443 249 443 238 m 303 361 l 303 371 q 279 383 303 383 q 254 371 254 383 l 254 361 q 282 350 254 350 q 303 361 303 350 m 390 268 l 390 278 q 367 290 390 290 q 344 278 344 290 l 344 268 q 367 258 344 258 q 390 268 390 258 m 697 75 l 679 100 q 588 138 668 104 q 442 198 508 171 q 308 249 375 225 q 222 274 240 274 l 204 274 l 204 267 l 696 69 l 697 75 m 339 289 l 339 297 q 317 310 339 310 q 293 297 293 310 l 293 289 q 319 278 293 278 q 339 289 339 278 m 289 307 l 289 317 q 264 329 289 329 q 240 317 240 329 l 240 307 q 268 296 240 296 q 289 307 289 296 m 633 67 l 633 72 l 293 213 l 282 204 l 260 206 l 249 236 l 200 236 q 218 204 200 213 l 601 46 l 633 67 m 232 319 l 232 329 q 201 343 232 343 q 179 329 179 343 l 179 319 q 207 306 179 306 q 232 319 232 306 z "},"O":{"ha":1858,"x_min":69,"x_max":1789,"o":"m 1789 528 q 1758 413 1789 457 l 1700 413 q 1721 536 1721 479 q 1700 642 1721 579 l 1758 642 q 1789 528 1789 581 m 1694 528 q 1675 413 1694 478 q 1425 401 1508 401 q 1157 407 1335 401 q 1146 547 1146 460 q 1157 643 1146 592 q 1274 647 1196 643 q 1392 651 1353 651 q 1675 642 1582 651 q 1694 528 1694 569 m 1132 407 l 1072 407 q 1063 518 1063 460 q 1062 547 1063 525 q 1061 581 1061 569 q 1064 611 1061 593 q 1072 642 1067 629 l 1132 642 q 1124 538 1124 601 q 1132 407 1124 436 m 1044 419 l 772 439 l 772 615 l 1044 629 q 1042 593 1044 617 q 1040 557 1040 569 l 1040 528 l 1044 419 m 749 439 l 656 443 q 636 433 646 433 q 614 443 626 433 l 599 436 l 578 443 l 558 433 q 536 443 543 436 l 479 443 l 468 433 l 413 433 l 396 461 q 354 454 382 460 q 303 446 326 449 q 263 443 281 443 q 178 466 232 443 q 94 490 124 489 q 69 528 69 492 q 75 554 69 543 q 94 563 78 558 q 131 573 111 568 q 157 579 151 578 q 263 614 238 614 q 396 596 308 614 l 413 624 l 468 624 l 482 611 l 507 611 q 572 626 517 626 q 592 621 586 626 q 638 611 622 629 l 749 615 l 749 439 m 1650 528 q 1638 555 1650 544 q 1610 565 1626 565 l 1496 565 q 1398 558 1463 565 q 1325 551 1333 551 l 1307 565 l 1260 565 q 1221 528 1221 565 q 1260 490 1221 490 l 1307 490 l 1325 504 q 1398 497 1333 504 q 1496 490 1463 490 l 1610 490 q 1650 528 1650 490 m 642 471 q 638 485 642 472 q 631 513 635 499 q 628 531 628 528 q 619 593 619 572 q 610 606 619 606 q 600 593 600 606 q 613 525 600 586 q 626 461 625 464 q 639 456 629 456 q 642 471 642 458 m 604 471 q 601 487 604 475 q 594 513 599 499 q 589 529 590 526 q 581 593 581 558 q 572 606 581 606 q 563 593 563 606 q 572 525 563 581 q 586 461 582 469 q 600 456 589 456 q 604 471 604 458 m 564 471 q 561 487 564 475 q 554 513 558 499 q 549 529 550 526 q 540 593 540 558 q 532 606 540 606 q 521 593 521 606 q 532 524 521 578 q 549 461 543 471 q 560 456 551 456 q 564 471 564 458 m 389 476 l 381 506 l 381 532 q 389 579 381 565 q 263 597 301 597 q 185 575 244 597 q 94 550 125 553 q 86 536 92 544 l 239 536 l 243 536 q 272 542 261 536 l 286 528 l 272 514 q 226 522 256 522 l 86 522 q 94 508 89 513 q 184 483 125 508 q 263 458 243 458 q 389 476 314 458 m 1610 522 l 1351 522 l 1351 531 q 1496 542 1478 542 l 1610 542 l 1610 522 z "},"P":{"ha":1978,"x_min":69,"x_max":1908,"o":"m 1908 486 q 1874 317 1908 393 q 1785 192 1839 242 q 1649 106 1731 143 q 1490 49 1568 68 q 1315 17 1413 29 q 1144 3 1217 6 q 989 0 1072 0 q 69 486 69 0 q 104 655 69 579 q 193 781 139 731 q 328 867 247 831 q 488 924 410 904 q 664 955 565 943 q 833 969 763 967 q 989 972 904 972 q 1145 969 1074 972 q 1315 955 1217 967 q 1491 924 1414 943 q 1649 867 1568 904 q 1785 781 1731 831 q 1874 656 1839 732 q 1908 486 1908 581 m 1822 328 q 1839 364 1822 328 q 1856 486 1856 399 q 1822 644 1856 574 q 1738 760 1789 715 q 1610 839 1688 806 q 1460 890 1532 872 q 1294 917 1389 907 q 1135 928 1199 926 q 989 931 1071 931 q 843 928 907 931 q 685 917 779 926 q 519 890 590 907 q 369 839 447 872 q 240 760 290 806 q 156 644 189 714 q 122 486 122 574 q 156 328 122 399 q 240 213 189 258 q 369 135 290 168 q 519 84 447 101 q 685 56 590 67 q 844 44 779 46 q 989 42 908 42 q 1133 44 1069 42 q 1292 56 1197 46 q 1458 84 1386 67 q 1608 135 1531 101 q 1738 213 1686 168 q 1822 328 1789 258 m 1810 486 q 1790 368 1810 422 q 1740 275 1771 314 q 1659 205 1708 236 q 1561 153 1610 174 q 1447 119 1513 133 q 1328 98 1381 106 q 1205 86 1275 90 q 1092 81 1135 82 q 989 81 1049 81 q 854 82 911 81 q 706 92 797 83 q 547 115 614 100 q 405 161 481 131 q 281 233 329 192 q 201 340 233 275 q 169 486 169 404 q 201 633 169 568 q 281 740 233 699 q 404 813 328 782 q 546 858 481 843 q 704 881 611 872 q 853 890 797 889 q 989 892 908 892 q 1125 890 1069 892 q 1274 881 1181 889 q 1432 858 1367 872 q 1574 813 1497 843 q 1698 740 1650 782 q 1778 633 1746 699 q 1810 486 1810 568 m 1676 668 q 1658 688 1678 681 q 1625 696 1639 696 q 1613 690 1619 696 q 1600 674 1607 685 q 1589 655 1593 663 q 1579 635 1585 647 l 1574 622 q 1536 453 1536 539 q 1546 440 1536 440 q 1560 449 1554 440 q 1574 474 1567 460 q 1588 508 1581 489 q 1600 535 1596 526 q 1676 668 1644 625 m 1560 331 q 1548 355 1560 344 q 1522 365 1536 365 q 1497 355 1508 365 q 1485 331 1485 344 q 1496 303 1485 315 q 1522 292 1507 292 q 1549 303 1538 292 q 1560 331 1560 315 m 1451 532 q 1429 584 1451 563 q 1375 606 1407 606 q 1274 548 1306 606 q 1242 415 1242 490 q 1321 289 1242 289 q 1397 319 1357 289 q 1436 386 1436 350 q 1417 401 1436 401 q 1398 388 1403 401 q 1393 359 1393 375 q 1383 330 1393 343 q 1353 317 1374 317 q 1326 326 1336 317 q 1312 356 1315 335 q 1308 385 1308 376 q 1307 417 1307 393 l 1307 439 q 1322 449 1307 449 q 1339 451 1325 449 q 1357 453 1353 453 q 1374 456 1361 454 q 1392 460 1386 458 q 1407 465 1397 461 q 1422 473 1417 469 q 1433 483 1426 476 q 1443 496 1440 489 q 1449 512 1446 503 q 1451 532 1451 521 m 1200 503 q 1192 569 1200 529 q 1169 608 1185 608 q 1147 588 1157 608 q 1136 553 1136 567 l 1142 542 q 1157 449 1157 519 q 1136 374 1157 414 q 1083 333 1115 333 q 1051 383 1051 333 q 1057 492 1051 414 q 1068 581 1063 571 l 1067 592 l 1054 592 q 1013 585 1051 592 q 953 578 974 578 q 947 564 947 572 q 948 559 947 563 q 949 554 949 556 l 954 550 l 996 560 q 1003 543 1003 553 q 997 451 1003 513 q 990 358 990 389 q 1003 314 990 340 q 1033 288 1017 288 q 1152 358 1104 288 q 1200 503 1200 429 m 946 365 q 933 385 946 385 q 917 374 921 385 q 916 351 914 364 q 912 327 918 338 q 886 317 906 317 q 872 350 872 317 q 900 583 872 436 q 865 606 892 606 l 849 553 l 844 551 q 816 579 842 564 q 776 594 790 594 q 708 554 735 594 q 674 471 682 514 q 667 386 667 428 q 718 292 667 292 q 774 310 744 292 q 815 351 803 328 q 817 342 815 350 q 819 331 818 333 q 821 322 819 329 q 824 313 822 315 q 828 305 826 310 q 834 298 831 300 q 841 292 838 296 q 850 288 844 289 q 861 288 856 288 q 917 314 888 288 q 946 365 946 340 m 617 665 q 570 708 617 694 q 483 722 524 722 q 383 694 426 722 q 339 611 339 665 q 372 533 339 565 q 444 485 406 500 q 517 443 483 469 q 550 383 550 417 q 529 335 550 356 q 481 314 508 314 q 388 342 426 314 q 363 422 349 369 q 351 432 360 432 q 339 429 342 432 q 333 396 339 414 q 320 366 326 378 q 314 353 314 354 q 372 303 314 321 q 472 286 431 286 q 571 321 529 286 q 613 411 613 356 q 579 490 613 457 q 506 538 546 522 q 433 578 467 553 q 400 636 400 604 q 426 681 400 667 q 485 694 451 694 q 559 668 529 694 q 589 597 589 642 q 603 590 593 590 q 617 665 617 590 m 1399 519 q 1378 481 1399 494 q 1331 467 1357 467 q 1313 481 1313 467 q 1367 581 1313 581 q 1399 519 1399 581 m 835 518 q 818 399 835 464 q 764 333 801 333 q 725 414 725 333 q 725 419 725 418 q 779 569 725 569 q 817 553 799 569 q 835 518 835 538 z "},"Q":{"ha":1151,"x_min":69,"x_max":1082,"o":"m 1082 458 q 933 103 1082 250 q 576 -43 785 -43 q 218 103 367 -43 q 69 458 69 249 q 153 735 69 611 q 379 919 236 858 l 379 978 q 401 996 392 985 q 417 1022 410 1007 q 427 1048 424 1038 q 436 1079 431 1058 q 443 1106 442 1100 q 576 1133 510 1133 q 711 1106 644 1133 q 772 978 731 1006 l 772 919 q 997 736 911 864 q 1082 458 1082 608 m 708 975 l 708 985 q 695 1002 701 990 q 685 1024 689 1014 q 676 1051 682 1035 q 669 1071 671 1067 q 576 1089 610 1089 q 483 1071 525 1089 q 446 985 465 1001 l 446 975 l 489 976 l 489 1008 q 576 1033 517 1033 q 664 1008 632 1033 l 664 976 l 708 975 m 604 956 l 604 1014 l 583 1017 l 583 957 l 604 956 m 568 957 l 568 1017 l 546 1014 l 546 954 l 568 957 m 529 953 l 529 1011 l 507 1001 l 507 947 l 529 953 m 1050 460 q 988 693 1050 589 l 968 682 q 1028 458 1028 578 q 967 235 1028 339 q 801 71 906 131 l 813 53 q 987 224 924 115 q 1050 460 1050 333 m 993 449 l 974 453 l 978 468 l 993 471 q 940 656 993 564 l 922 649 l 918 663 l 932 672 q 793 810 876 761 l 781 793 l 768 801 l 776 819 q 588 871 690 867 l 585 847 l 569 847 l 567 871 q 376 819 475 871 l 385 801 l 372 793 l 360 808 q 221 672 272 757 l 235 663 l 231 649 l 211 656 q 161 471 161 567 l 176 468 l 181 453 l 161 449 q 211 261 161 351 l 231 268 l 235 254 l 221 244 q 360 107 271 158 l 372 124 l 385 115 l 376 96 q 567 46 479 46 l 569 69 l 585 69 l 588 46 q 776 97 689 46 l 768 115 l 781 124 l 793 107 q 932 244 874 154 l 918 254 l 922 268 l 940 261 q 993 449 990 347 m 350 846 l 339 864 q 167 692 231 801 q 103 458 103 583 q 167 224 103 332 l 185 235 q 125 457 125 338 q 185 682 125 579 q 350 846 244 785 m 911 582 l 907 571 l 849 571 l 849 579 q 858 588 851 582 q 869 598 865 594 q 876 608 872 601 q 881 621 879 614 q 872 626 875 626 q 856 617 863 626 l 847 625 q 878 640 863 640 q 906 615 906 640 q 881 582 906 600 l 911 582 m 764 696 l 739 696 l 739 751 l 731 751 l 749 763 l 764 763 l 764 696 m 639 767 l 633 756 l 575 756 l 575 764 q 608 801 601 790 l 608 806 q 600 811 603 811 q 583 803 592 811 l 574 810 q 604 825 589 825 q 632 801 632 825 q 608 767 632 786 l 639 767 m 946 443 q 910 421 946 421 q 881 432 894 421 l 890 442 q 907 435 896 438 q 918 444 918 440 q 894 454 918 454 l 897 463 q 917 472 917 463 q 904 482 917 482 q 892 475 899 482 l 882 483 q 913 494 896 494 q 940 476 940 494 q 926 460 940 465 q 946 443 946 460 m 554 756 l 528 756 l 528 811 l 519 811 l 519 817 l 538 822 l 554 822 l 554 756 m 433 696 l 408 696 l 408 751 l 400 751 l 418 763 l 433 763 l 433 696 m 894 267 l 890 256 l 883 256 l 883 244 l 858 244 l 858 256 l 826 256 l 826 265 l 863 311 l 883 311 l 883 267 l 894 267 m 385 696 l 360 696 l 360 751 l 351 751 l 369 763 l 385 763 l 385 696 m 904 346 l 900 335 q 837 351 881 342 q 772 369 793 360 q 768 385 768 376 q 726 397 753 389 q 685 409 700 404 q 647 422 669 414 q 606 442 625 431 q 576 425 600 425 q 547 442 560 425 q 484 415 521 424 q 435 401 447 406 q 415 378 435 385 q 364 368 394 371 q 324 361 333 365 l 319 372 q 370 399 338 379 q 419 425 403 418 q 432 413 428 421 q 467 430 444 417 q 500 447 489 443 q 522 451 507 450 q 542 454 536 453 q 576 492 542 492 q 603 481 593 492 q 611 453 613 469 q 640 446 621 449 q 667 440 658 443 q 728 414 688 433 q 772 393 768 394 l 785 401 q 851 373 810 394 q 904 346 892 351 m 700 297 q 689 289 700 289 q 678 297 678 289 q 689 308 678 308 q 700 297 700 308 m 650 346 l 642 338 l 633 346 l 642 353 l 650 346 m 714 235 l 707 226 q 700 231 704 226 l 700 232 q 699 235 699 233 q 707 242 706 242 l 714 235 m 588 361 q 576 351 588 351 q 567 361 567 351 q 576 372 567 372 q 588 361 588 372 m 358 607 q 321 569 358 569 q 293 580 304 569 q 282 607 282 590 q 293 632 282 622 q 321 642 304 642 q 358 607 358 642 m 776 168 q 740 143 776 143 q 711 154 725 143 l 721 164 q 736 157 725 160 q 750 167 750 164 q 721 178 750 178 l 731 214 l 769 214 l 774 204 l 749 203 l 744 190 q 776 168 776 190 m 700 171 q 689 161 700 161 q 678 171 678 161 q 689 182 678 182 q 700 171 700 182 m 518 346 l 511 338 q 504 342 508 338 l 503 343 q 503 346 503 344 q 511 353 508 353 l 518 346 m 265 571 l 239 571 l 239 626 l 232 626 l 249 638 l 265 638 l 265 571 m 608 335 q 594 283 603 288 q 586 249 590 256 q 594 235 594 244 q 578 218 594 218 q 564 176 575 194 l 571 164 l 557 154 l 549 169 l 560 178 q 568 219 560 208 q 560 235 560 224 q 575 251 560 246 q 588 286 575 267 l 583 294 q 601 336 590 308 l 608 335 m 650 124 l 642 115 l 633 124 l 642 131 l 650 124 m 475 297 q 464 289 475 289 q 454 297 454 289 q 464 308 454 308 q 475 297 475 308 m 275 460 q 263 433 275 444 q 238 421 251 421 q 207 432 226 421 l 217 442 q 235 433 225 433 q 249 450 246 433 q 239 447 247 450 l 231 446 q 207 469 207 446 q 238 494 207 494 q 275 460 275 494 m 588 108 q 576 97 588 97 q 567 108 567 97 q 576 117 567 117 q 588 108 588 117 m 456 235 l 447 226 l 440 235 l 447 242 l 456 235 m 475 171 q 464 161 475 161 q 454 171 454 161 q 464 182 454 182 q 475 171 475 182 m 518 124 l 511 115 q 504 119 508 115 l 503 121 q 503 124 503 122 q 511 131 508 131 l 518 124 m 442 204 l 407 144 l 379 144 l 413 200 l 378 200 l 383 213 l 442 213 l 442 204 m 324 263 q 292 242 324 242 q 258 263 258 242 q 274 278 258 269 q 263 294 263 289 q 292 315 263 315 q 322 297 322 315 q 310 282 322 289 q 324 263 324 275 m 858 267 l 858 289 l 842 267 l 858 267 m 576 443 q 594 460 594 443 q 576 476 594 476 q 560 460 560 476 q 576 443 560 443 m 333 608 q 321 633 333 633 q 308 608 308 633 q 321 581 308 581 q 332 593 329 581 q 333 601 332 594 q 333 608 333 607 m 249 460 l 249 472 q 238 485 249 485 q 231 472 231 478 q 239 460 231 460 l 249 460 m 306 296 q 293 307 306 300 l 283 300 q 289 296 283 299 l 292 293 q 300 289 296 293 q 306 296 306 294 m 301 260 q 299 263 301 261 q 294 267 297 264 l 292 268 q 282 272 286 268 q 278 264 278 269 q 290 253 278 253 q 301 260 301 253 z "},"R":{"ha":1788,"x_min":69,"x_max":1718,"o":"m 1718 646 q 1699 611 1715 629 q 1664 580 1682 593 q 1614 551 1646 567 q 1564 527 1582 535 q 1513 506 1546 519 q 1475 490 1479 492 q 1597 263 1597 382 q 1550 115 1597 178 q 1427 18 1503 51 q 1274 -31 1351 -15 q 1118 -47 1196 -47 q 897 4 1000 -47 q 729 150 794 56 q 585 89 672 89 q 465 136 572 89 q 236 238 358 183 q 79 306 114 293 l 69 318 q 132 364 83 347 q 214 372 181 381 q 245 386 231 381 q 269 394 260 392 q 294 399 279 397 q 317 400 310 400 q 346 400 325 400 q 378 400 367 400 q 422 410 390 400 q 469 421 453 421 q 566 401 504 421 q 653 379 628 382 q 694 497 653 444 q 800 578 736 550 q 940 624 864 606 q 1085 640 1015 642 q 1208 629 1156 638 q 1190 668 1190 647 q 1225 724 1204 717 l 1214 756 q 1257 815 1229 806 l 1251 832 q 1271 872 1251 856 q 1315 893 1290 889 q 1701 672 1658 694 l 1718 646 m 1678 639 q 1668 654 1678 646 q 1643 671 1658 663 q 1613 687 1628 679 q 1583 701 1599 694 q 1564 711 1568 708 q 1368 825 1443 769 q 1349 839 1365 826 q 1320 860 1333 851 q 1301 868 1307 868 q 1285 840 1285 868 q 1308 792 1285 806 l 1528 658 l 1529 653 q 1504 646 1511 646 q 1388 718 1488 646 q 1269 790 1288 790 q 1249 779 1257 790 q 1240 754 1240 768 q 1284 702 1240 728 q 1373 655 1328 676 q 1421 619 1418 633 q 1397 607 1417 607 q 1318 656 1378 607 q 1244 703 1258 704 q 1218 674 1218 696 q 1266 625 1218 656 q 1375 560 1314 594 q 1454 511 1436 526 q 1493 526 1458 513 q 1553 550 1528 539 q 1611 576 1579 561 q 1660 608 1643 592 q 1678 639 1678 625 m 1232 440 q 1184 472 1232 457 q 1113 486 1136 486 q 1038 473 1079 486 q 997 435 997 460 q 1019 394 997 408 q 1069 381 1042 381 q 1073 381 1071 381 q 1076 382 1075 382 q 1052 397 1075 386 q 1029 421 1029 408 q 1058 443 1029 436 q 1110 450 1088 450 q 1192 417 1192 450 q 1190 407 1192 414 q 1188 397 1188 400 q 1219 410 1207 397 q 1232 440 1232 422 m 1328 356 q 1307 374 1328 374 q 1294 363 1303 374 q 1278 337 1286 351 q 1264 318 1269 322 q 1176 278 1235 292 q 1067 265 1118 265 q 901 319 990 265 q 882 315 886 319 q 878 293 878 310 q 960 251 878 268 q 1086 233 1043 233 q 1241 267 1154 233 q 1328 356 1328 300 m 1557 263 q 1522 360 1557 332 l 1499 361 l 1496 354 q 1505 314 1496 340 q 1514 274 1514 288 q 1453 265 1500 265 l 1432 253 q 1449 169 1432 236 l 1438 150 q 1422 146 1425 146 q 1397 152 1414 146 q 1371 158 1381 158 l 1354 140 q 1326 100 1344 100 q 1282 113 1311 100 q 1236 126 1253 126 q 1219 99 1225 117 q 1202 71 1213 81 q 1167 61 1192 61 q 1123 73 1150 61 q 1089 85 1096 85 q 1047 80 1075 85 q 1004 75 1019 75 q 964 99 997 75 q 919 124 931 124 l 911 119 q 891 113 903 117 q 871 108 879 108 q 840 144 854 119 q 785 178 826 169 l 774 163 q 922 39 801 88 q 1138 -10 1043 -10 q 1245 -1 1190 -10 q 1357 27 1300 7 q 1458 77 1414 47 q 1529 156 1501 107 q 1557 263 1557 204 m 839 325 q 803 357 829 350 q 726 359 776 364 q 675 354 676 354 q 573 376 638 354 q 474 397 508 397 q 435 386 447 397 q 607 310 438 378 l 608 297 q 596 285 606 290 q 579 283 586 281 q 506 320 561 292 q 408 363 450 349 q 328 378 367 378 q 274 364 282 378 q 413 300 282 351 q 556 229 544 249 l 551 218 l 532 211 q 433 261 513 219 q 295 323 353 303 q 185 343 238 343 q 142 333 156 343 q 247 288 146 326 q 353 235 271 278 q 507 159 435 193 q 597 125 579 125 q 739 201 649 125 q 839 325 829 278 z "},"S":{"ha":1971,"x_min":69,"x_max":1901,"o":"m 1840 804 q 1870 753 1840 804 q 1901 571 1901 701 q 1840 337 1901 440 q 1683 172 1778 233 q 1463 71 1589 111 q 1222 16 1338 31 q 988 1 1106 1 q 754 16 871 1 q 511 71 638 31 q 289 172 385 111 q 131 336 193 233 q 69 571 69 439 q 112 771 69 681 q 228 922 154 861 q 394 1026 303 982 q 592 1094 485 1071 q 795 1129 699 1118 q 988 1140 892 1140 q 1220 1126 1104 1140 q 1463 1071 1336 1111 q 1683 969 1589 1031 q 1840 804 1778 907 m 1708 872 l 1708 881 q 988 1099 1476 1099 q 265 881 496 1099 l 269 872 l 414 876 l 432 860 q 415 828 422 843 q 401 801 407 813 q 392 776 396 790 q 384 754 388 761 q 378 731 381 747 q 376 709 376 714 q 374 683 375 704 q 374 658 374 663 q 374 626 374 653 q 374 590 374 599 q 399 372 374 432 q 501 307 431 299 l 511 292 l 494 243 q 463 225 485 232 q 423 216 440 218 q 374 213 406 214 q 339 211 343 211 l 332 208 q 481 124 332 165 q 781 63 631 83 q 988 43 931 43 q 1328 81 1106 43 q 1575 174 1550 118 q 1524 203 1554 178 l 1506 253 l 1524 269 q 1560 277 1543 269 q 1588 302 1576 285 q 1607 338 1599 319 q 1620 385 1615 356 q 1628 435 1625 414 q 1633 488 1632 456 q 1633 535 1633 519 q 1633 580 1633 551 q 1633 613 1633 608 q 1538 863 1633 767 l 1553 875 l 1708 872 m 1549 454 q 1546 350 1549 385 l 1526 336 l 1507 347 q 1464 422 1497 422 q 1365 399 1410 422 q 1274 349 1356 349 q 1243 298 1274 319 q 1185 283 1213 276 q 1134 247 1167 257 q 1072 251 1101 238 q 1021 235 1049 235 q 971 256 989 235 q 921 242 939 242 q 868 265 894 242 l 849 263 q 767 310 808 263 q 681 389 713 310 q 635 411 650 394 q 617 444 619 428 q 597 474 614 461 q 546 488 581 488 q 535 480 539 488 q 528 460 531 472 q 526 436 526 447 q 524 410 525 425 q 524 393 524 396 l 501 375 l 478 394 q 456 622 456 528 q 478 821 456 781 q 750 874 564 821 q 1026 926 936 926 q 1263 868 1111 926 q 1493 810 1415 810 l 1501 807 q 1549 454 1549 739 m 1517 483 q 1514 546 1517 508 q 1502 641 1511 583 q 1470 728 1493 699 q 1415 736 1447 757 q 1369 785 1401 746 q 1301 838 1338 825 q 1208 864 1271 847 q 1115 890 1146 881 q 1067 903 1086 903 q 1018 890 1047 903 q 975 876 989 878 q 925 869 944 874 q 890 853 906 865 q 867 833 874 840 q 841 800 860 825 q 813 761 822 775 q 840 751 821 757 q 868 740 860 746 q 835 703 856 718 l 817 703 q 803 706 813 703 q 793 708 794 708 l 790 714 l 800 717 l 822 713 l 847 728 q 794 744 829 747 l 776 732 l 769 710 l 786 689 q 833 679 813 679 q 960 786 908 679 l 969 790 q 997 774 981 790 q 1056 775 1019 769 q 1104 781 1092 781 l 1110 772 q 1222 662 1150 713 q 1358 608 1293 611 l 1365 600 l 1356 592 q 1244 564 1303 592 q 1183 626 1222 581 q 1106 703 1144 672 q 1025 733 1068 733 q 974 726 1015 733 q 833 657 890 657 q 782 672 804 657 q 750 713 760 686 q 803 778 758 731 q 851 850 847 825 q 824 858 843 858 q 789 857 807 858 q 757 853 771 856 q 723 847 743 851 q 691 840 703 843 q 656 831 679 838 q 625 822 633 824 q 592 810 617 819 q 561 799 567 801 q 528 787 556 797 q 497 775 500 776 q 490 688 490 751 q 501 588 490 629 q 646 529 557 546 q 703 499 669 525 q 750 467 736 472 q 885 397 843 428 q 978 292 926 367 l 1006 279 l 1021 303 q 1001 344 1021 332 l 1006 353 l 1022 351 q 1086 286 1079 294 l 1114 279 l 1133 307 q 1061 404 1121 356 l 1068 422 l 1086 425 q 1192 321 1164 332 q 1225 361 1225 325 q 1129 494 1225 418 l 1136 510 l 1149 515 q 1220 451 1164 510 q 1303 382 1276 393 l 1314 385 q 1331 418 1331 401 q 1289 511 1331 458 l 1289 517 l 1299 521 q 1471 478 1399 478 q 1517 483 1496 478 m 935 296 q 919 337 935 317 q 883 357 904 357 q 876 353 881 357 q 867 349 871 349 q 846 376 864 349 q 807 403 828 403 q 786 390 793 403 l 778 392 q 769 413 776 394 q 751 441 761 432 q 721 450 740 450 q 696 417 696 450 q 746 356 696 356 q 767 368 754 356 q 772 347 769 367 q 785 310 774 328 q 822 293 797 293 q 849 301 835 293 q 863 319 863 308 l 867 324 l 872 319 q 885 282 874 300 q 915 264 897 264 q 935 296 935 264 m 682 446 q 668 461 682 447 q 650 468 658 468 q 639 446 639 468 q 656 422 639 422 q 682 446 682 422 z "},"T":{"ha":1364,"x_min":69,"x_max":1294,"o":"m 1294 308 q 1217 116 1294 221 q 1056 3 1140 11 q 972 2 1040 -1 q 889 6 904 6 q 632 -6 804 6 q 375 -18 460 -18 q 308 18 358 -18 q 264 48 297 26 q 220 77 231 69 q 184 104 210 85 q 150 134 158 124 q 124 165 142 144 q 99 202 106 185 q 84 244 93 219 q 72 296 75 268 q 69 356 69 324 q 74 449 69 408 q 94 526 79 490 q 121 587 108 563 q 162 642 133 611 q 208 690 190 674 q 268 744 226 707 q 333 803 310 781 q 229 753 299 800 l 203 783 q 325 843 250 817 l 317 847 q 307 850 310 850 q 200 821 269 850 l 190 858 q 293 890 244 886 q 403 879 342 894 q 376 921 397 890 q 339 978 356 951 q 322 1014 322 1004 l 326 1039 q 628 1164 615 1164 q 733 1141 647 1164 q 915 1118 818 1118 q 978 1093 946 1118 q 1010 1038 1010 1068 q 958 958 1010 1026 q 897 864 906 889 q 994 814 940 840 q 1068 776 1047 788 q 1117 743 1089 764 q 1159 696 1146 722 q 1189 627 1172 669 q 1224 518 1206 585 q 1262 426 1229 497 q 1294 308 1294 354 m 960 1047 q 931 1087 960 1074 q 871 1100 901 1100 q 834 1094 858 1100 q 799 1089 810 1089 q 707 1113 767 1089 q 615 1138 647 1138 q 574 1121 599 1138 q 549 1104 560 1111 q 525 1091 538 1097 q 507 1082 513 1085 q 486 1074 501 1079 q 467 1067 471 1068 q 442 1058 464 1065 q 415 1050 421 1051 q 372 1018 372 1038 q 413 935 372 1003 q 468 853 453 867 q 539 840 481 840 q 556 843 550 840 l 556 889 q 553 920 556 904 q 545 955 551 936 q 528 985 539 974 q 500 997 517 997 q 468 990 489 997 q 438 983 447 983 q 411 994 419 983 l 411 1003 q 511 1054 438 1010 q 614 1099 585 1099 q 692 1081 639 1099 q 771 1063 746 1064 q 818 1061 776 1063 q 863 1058 860 1060 l 896 1046 q 901 1060 899 1050 q 906 1072 904 1069 l 924 1069 l 932 1057 q 901 1015 925 1015 q 860 1024 889 1015 q 818 1033 832 1033 q 736 967 789 1033 l 721 968 q 711 1013 721 1004 q 685 1010 706 1013 q 656 1007 665 1007 q 610 1021 651 1007 q 576 926 576 1013 q 593 839 576 871 l 611 838 q 842 860 719 829 q 854 874 843 861 q 869 890 865 886 q 883 908 872 894 q 899 928 894 921 q 914 948 904 935 q 929 969 924 961 q 942 990 935 978 q 951 1010 949 1001 q 957 1029 954 1019 q 960 1047 960 1039 m 1232 315 q 1183 431 1232 378 q 1074 485 1135 485 l 1074 510 q 1169 589 1169 518 q 1047 743 1169 650 q 858 836 924 836 q 782 823 835 836 q 708 808 729 810 l 733 790 l 718 778 q 443 819 649 778 q 404 714 410 786 l 383 704 q 384 735 381 717 q 388 760 388 754 l 378 763 q 328 610 328 665 l 315 611 l 301 629 q 329 732 308 688 l 318 735 q 228 666 263 696 q 163 585 194 636 q 132 479 132 535 q 147 418 132 458 l 126 404 l 124 329 q 238 144 118 153 l 272 108 l 250 99 q 296 64 271 83 q 329 38 321 44 q 358 24 338 32 q 400 15 378 17 q 463 14 422 14 q 558 38 511 14 l 550 61 q 647 45 583 61 q 743 29 711 29 q 852 58 789 29 q 943 124 915 88 l 964 106 l 953 76 l 971 49 q 1017 38 999 38 q 1108 68 1058 38 q 1167 136 1158 99 l 1160 144 l 1135 129 l 1122 144 q 1155 179 1125 149 q 1195 223 1185 210 q 1219 263 1206 236 q 1232 315 1232 290 m 846 361 q 721 247 846 274 q 722 233 721 244 q 723 209 722 221 q 723 185 724 197 q 718 166 722 174 q 707 158 714 158 l 696 168 l 696 242 q 606 244 653 238 l 606 171 q 592 158 606 158 l 581 168 l 581 247 q 503 278 540 256 q 467 333 467 300 q 497 364 467 364 q 538 329 506 364 q 582 288 569 294 l 589 413 q 476 506 476 431 q 606 613 476 592 q 606 626 606 615 q 606 649 606 638 q 608 673 607 661 q 613 692 610 685 q 622 700 617 700 q 633 696 628 700 q 638 686 639 692 l 631 615 q 721 614 668 619 q 721 628 721 617 q 722 650 721 639 q 724 673 722 661 q 728 692 725 685 q 738 700 732 700 q 748 692 744 700 q 751 672 751 685 q 751 649 751 660 q 748 626 750 639 q 746 611 746 613 q 813 585 781 604 q 844 538 844 567 q 818 513 844 513 q 778 539 807 513 q 740 569 749 565 q 738 516 740 550 q 735 471 735 482 q 846 361 846 454 m 718 575 q 674 581 690 581 q 651 580 667 581 q 628 579 636 579 l 619 482 l 710 474 l 718 575 m 601 575 q 538 522 538 567 q 594 485 538 492 l 601 575 m 793 343 q 729 397 793 381 l 722 282 q 793 343 793 299 m 706 400 l 614 408 l 607 279 q 658 275 657 275 q 697 278 672 275 l 706 400 z "},"U":{"ha":1786,"x_min":69,"x_max":1717,"o":"m 1717 538 q 1665 440 1717 478 q 1551 399 1614 401 q 1514 359 1539 375 q 1472 337 1489 343 q 1418 321 1454 331 q 1386 226 1396 300 q 1378 101 1376 151 q 1243 71 1336 76 l 1238 6 q 1097 -51 1186 -51 q 1000 -33 1044 -51 l 997 56 q 825 36 938 36 q 567 89 678 36 l 551 -22 q 472 -43 519 -43 q 362 -26 406 -43 q 297 21 318 -10 q 267 93 276 51 q 258 183 257 135 q 258 288 258 232 q 182 508 182 383 q 240 728 182 639 l 189 739 l 161 776 q 97 795 124 776 q 69 851 69 814 q 101 922 69 893 l 119 908 l 100 850 l 113 811 l 154 800 l 142 842 q 171 897 143 869 q 181 901 174 899 q 194 906 188 904 q 204 908 200 908 q 257 883 235 908 q 261 874 258 881 q 265 860 264 867 q 267 850 267 854 q 233 788 267 821 l 194 778 l 208 757 l 239 751 l 256 753 q 479 915 335 863 q 781 967 624 967 q 1208 892 1046 967 q 1424 917 1351 922 l 1556 1022 q 1604 803 1633 971 q 1664 644 1642 753 q 1717 538 1717 622 m 1686 546 q 1579 639 1686 639 q 1486 612 1529 639 q 1443 538 1443 585 q 1472 456 1443 485 q 1554 426 1500 426 q 1646 461 1606 426 q 1686 546 1686 496 m 1347 219 q 1253 151 1293 165 l 1249 110 q 1342 126 1289 110 l 1347 219 m 1619 669 q 1574 796 1610 750 q 1588 874 1588 832 q 1556 978 1588 938 l 1471 901 q 1528 867 1507 892 l 1503 843 q 1354 889 1422 889 q 1153 831 1263 889 l 1165 803 l 1140 790 q 1123 806 1132 799 q 1102 818 1114 813 q 1083 826 1090 824 q 1060 833 1076 829 q 1040 839 1044 838 q 1016 844 1035 840 q 994 849 997 849 l 993 832 q 1033 669 988 765 l 1010 649 q 974 747 988 685 q 961 861 961 810 l 963 876 q 1103 849 1031 872 q 1143 874 1131 860 q 1103 893 1125 885 q 1062 907 1081 901 q 1014 917 1043 913 q 968 923 985 921 q 918 926 951 925 q 872 926 885 926 q 824 926 860 926 q 781 926 788 926 q 572 901 668 926 q 394 826 475 876 q 268 686 314 775 q 222 479 222 597 q 308 293 222 393 l 296 93 q 375 29 322 57 q 472 1 428 1 q 494 7 479 1 q 511 13 510 13 q 535 163 531 113 l 567 167 q 601 116 567 136 q 690 87 636 96 q 781 75 743 78 q 853 72 819 72 q 1033 99 954 72 l 1040 -10 q 1094 -15 1076 -15 q 1149 -7 1126 -15 q 1183 12 1171 1 q 1203 44 1196 22 q 1211 83 1210 67 q 1215 133 1213 99 q 1219 185 1217 167 q 1299 228 1271 197 q 1353 315 1328 258 l 1329 314 q 1212 331 1274 310 q 1125 394 1150 353 l 1153 417 q 1360 351 1229 351 q 1506 399 1439 351 q 1432 449 1461 415 q 1403 528 1403 483 q 1475 644 1403 601 q 1619 669 1547 686 m 236 847 q 219 875 236 865 q 199 883 206 883 q 178 868 188 883 q 168 840 168 853 q 182 794 168 825 q 236 847 236 807 m 1542 724 q 1514 692 1535 692 q 1486 699 1493 692 q 1471 751 1471 713 q 1477 779 1471 765 q 1496 793 1483 793 q 1535 768 1524 793 l 1504 746 l 1542 724 m 1629 586 q 1656 564 1656 586 q 1640 535 1656 542 l 1636 533 q 1611 557 1611 533 q 1629 586 1611 586 m 1550 539 q 1547 515 1550 522 q 1540 506 1546 511 q 1529 500 1533 500 q 1497 515 1506 500 q 1496 519 1497 517 q 1494 524 1494 522 q 1497 547 1494 540 q 1506 556 1499 551 q 1517 561 1514 561 q 1547 547 1542 561 l 1549 544 q 1550 539 1550 540 m 1376 683 q 1365 661 1376 671 q 1340 651 1353 651 q 1303 713 1303 651 q 1311 748 1303 731 q 1335 765 1319 765 q 1376 735 1364 765 l 1336 711 l 1376 683 m 1110 769 l 1088 744 q 1062 773 1083 757 q 1024 797 1040 789 l 1032 825 q 1110 769 1088 811 m 915 860 l 821 739 q 589 761 783 761 q 493 754 511 761 l 554 846 q 765 871 686 871 q 915 860 835 871 m 957 363 q 851 260 957 282 l 858 192 q 849 179 861 179 q 840 185 843 179 q 835 202 836 192 q 833 222 833 213 q 832 241 832 231 q 832 254 832 251 q 750 256 797 250 q 753 224 750 244 q 756 192 756 203 q 744 179 756 179 q 735 186 739 179 q 730 204 732 193 q 727 225 728 215 q 726 246 726 235 q 725 260 725 257 q 652 286 688 265 q 617 340 617 307 q 640 364 617 361 q 682 329 657 356 q 724 294 707 303 l 722 407 q 613 492 613 426 q 640 560 613 540 q 721 588 668 581 l 719 657 l 729 667 q 740 660 736 667 q 745 644 744 654 q 745 625 746 635 q 744 605 744 615 q 743 592 743 594 q 824 589 782 596 l 824 657 l 833 667 q 844 660 840 667 q 848 642 847 654 q 849 621 849 631 q 848 600 849 611 q 847 586 847 589 q 909 561 876 581 q 942 518 942 542 q 918 499 942 499 q 881 522 906 499 q 846 550 856 546 l 847 460 q 925 428 893 453 q 957 363 957 404 m 857 824 q 694 831 789 831 q 567 817 579 831 q 536 781 556 806 q 665 790 585 790 q 813 769 749 790 l 857 824 m 826 463 l 824 556 q 783 558 799 558 q 763 558 776 558 q 743 557 750 557 l 743 471 q 826 463 785 469 m 911 346 q 850 393 911 379 l 851 292 q 911 346 911 304 m 721 556 q 665 506 665 547 q 719 474 665 483 l 721 556 m 831 288 l 828 397 l 744 406 l 749 289 q 771 286 756 289 q 794 283 786 283 q 831 288 797 283 z "},"V":{"ha":1383,"x_min":69,"x_max":1314,"o":"m 1314 0 l 978 0 q 1029 94 1029 32 q 996 175 1029 139 l 1039 194 q 956 257 1017 228 q 871 260 896 286 l 810 426 l 844 432 l 844 499 l 819 503 q 764 489 810 503 l 738 450 l 638 481 l 618 558 q 642 594 639 569 l 651 594 l 639 650 l 599 672 l 560 660 q 553 646 556 653 q 550 631 550 639 q 551 619 550 624 q 553 603 551 614 q 554 589 554 593 l 535 578 q 515 583 533 578 q 489 588 497 588 q 433 574 469 588 q 378 561 397 561 q 326 573 360 561 q 279 585 293 585 q 214 571 233 585 l 189 526 q 256 540 215 540 q 304 528 271 540 q 354 517 338 517 q 428 540 371 517 q 518 564 486 563 q 501 532 515 557 q 473 481 486 507 q 446 427 460 456 q 426 376 432 399 q 424 346 419 354 l 347 346 l 347 304 l 153 304 l 153 253 l 251 253 q 172 179 194 224 q 147 67 150 135 l 218 67 q 267 0 231 24 l 69 0 l 69 1235 l 1314 1235 l 1314 0 m 781 272 q 722 143 781 174 l 665 168 l 681 315 l 574 371 l 604 440 q 665 416 624 424 q 736 413 707 408 q 781 272 781 374 m 608 265 q 608 233 608 254 q 606 194 607 211 q 604 163 606 176 l 590 139 l 518 139 l 546 283 l 608 265 m 856 0 l 389 0 q 438 67 424 22 l 693 67 l 731 89 l 744 67 l 807 67 q 856 0 819 24 m 1211 1085 l 1201 1117 l 1038 1117 l 1019 1085 l 1079 1085 l 1061 922 l 1135 922 l 1151 1085 l 1211 1085 m 1171 878 l 1146 879 l 1124 842 l 1103 879 l 1063 879 l 1094 819 l 1090 790 l 1125 790 l 1128 819 l 1171 878 m 1000 1092 q 910 1122 968 1122 q 840 1106 869 1122 q 810 1056 810 1090 q 828 1013 810 1028 q 868 993 846 997 q 910 981 890 989 q 931 960 929 974 q 892 946 921 946 q 826 978 850 946 l 794 953 q 896 914 828 914 q 967 932 936 914 q 997 988 997 950 q 967 1033 997 1018 q 906 1056 936 1049 q 876 1075 876 1064 q 913 1092 876 1092 q 969 1071 949 1092 l 1000 1092 m 1054 790 l 1026 828 q 1051 856 1051 843 q 1006 879 1051 879 l 961 879 l 953 790 l 986 790 l 990 822 q 1015 790 992 822 l 1054 790 m 936 804 l 889 804 l 892 828 l 933 828 l 935 842 l 893 842 l 896 864 l 936 864 l 931 879 l 863 879 l 854 790 l 928 790 l 936 804 m 775 922 l 721 1117 l 649 1117 l 546 925 l 593 922 l 611 956 l 688 956 l 696 922 l 775 922 m 849 878 l 826 879 l 793 814 l 776 879 l 738 879 l 767 790 l 801 790 l 849 878 m 724 879 l 690 879 l 681 790 l 715 790 l 724 879 m 563 1085 l 554 1117 l 413 1117 l 392 922 l 461 922 l 469 1006 l 554 1006 l 557 1036 l 472 1036 l 478 1085 l 563 1085 m 668 804 l 632 804 l 639 879 l 603 879 l 593 790 l 661 790 l 668 804 m 578 804 l 533 804 l 536 828 l 575 828 l 576 842 l 538 842 l 539 864 l 578 864 l 575 879 l 507 879 l 497 790 l 569 790 l 578 804 m 483 836 q 433 879 483 879 l 388 879 l 379 790 l 424 790 q 463 801 447 790 q 483 836 483 815 m 1014 850 q 990 833 1014 833 l 994 865 l 1001 865 q 1014 850 1014 865 m 679 988 l 626 988 l 663 1064 l 679 988 m 449 836 q 417 804 449 808 l 419 865 q 449 836 449 865 z "},"W":{"ha":1283,"x_min":69,"x_max":1214,"o":"m 1214 601 q 1049 180 1214 357 q 642 3 885 3 q 234 180 399 3 q 69 601 69 357 q 237 1002 69 838 q 642 1167 404 1167 q 1047 1002 879 1167 q 1214 601 1214 838 m 1032 214 q 1113 293 1032 214 q 1193 601 1193 372 q 1032 990 1193 831 q 642 1149 871 1149 q 251 990 413 1149 q 90 601 90 831 q 251 215 90 374 q 642 56 413 56 q 1032 214 871 56 m 1026 865 q 1012 842 1026 850 q 981 833 997 833 q 949 839 971 833 q 943 849 943 840 q 953 858 943 858 q 969 857 958 858 q 985 856 981 856 q 1011 864 1011 856 q 994 872 1011 871 q 978 881 978 872 q 988 889 978 889 q 1026 865 1026 889 m 914 946 q 903 934 914 939 q 885 929 893 929 q 850 939 860 929 q 849 947 849 940 l 849 951 q 858 954 851 954 q 885 946 867 946 q 897 949 890 946 q 911 951 904 951 q 914 946 914 951 m 1047 846 q 992 799 1047 799 q 961 803 981 799 q 942 815 942 808 q 953 824 942 824 q 963 821 956 824 q 972 818 971 818 q 994 817 978 817 q 1028 829 1019 817 q 1030 836 1029 831 q 1032 847 1031 842 q 1036 851 1033 851 q 1047 846 1047 851 m 858 983 q 807 968 858 968 q 753 978 778 968 q 717 1000 729 989 q 704 1011 706 1011 q 691 1001 696 1011 q 676 992 686 992 q 669 1003 669 992 q 681 1021 669 1014 q 703 1028 692 1028 q 739 1004 725 1028 q 770 991 739 997 q 815 985 801 985 q 842 990 831 985 l 851 990 q 858 983 856 988 m 850 864 q 834 858 850 860 q 814 844 818 856 q 794 819 804 819 q 746 838 757 819 q 744 842 746 839 q 743 846 743 844 q 753 851 743 851 l 767 844 q 790 836 779 836 q 798 851 794 843 q 803 861 801 858 q 808 867 806 864 q 815 872 811 871 q 826 874 819 874 q 844 875 833 875 q 850 864 850 875 m 929 867 q 912 857 929 860 q 894 844 894 854 q 885 811 894 821 q 851 801 875 801 q 850 772 850 799 q 844 753 850 764 q 819 739 828 744 q 788 688 819 688 q 768 700 768 688 q 774 705 768 704 q 788 706 779 706 q 800 710 796 707 q 806 746 800 736 q 820 758 811 756 q 832 765 829 761 q 829 786 829 776 q 839 812 829 804 q 861 821 849 819 q 875 824 874 822 q 882 865 875 856 q 919 875 889 875 q 929 867 929 875 m 721 985 q 729 976 729 985 q 722 968 729 968 q 646 963 672 963 q 613 969 631 963 q 583 981 594 975 q 571 986 572 986 q 503 957 547 986 q 492 961 496 957 q 526 988 492 972 q 574 1003 560 1003 q 604 990 576 1003 q 656 978 632 978 q 689 981 667 978 q 721 985 711 985 m 1067 808 q 1038 769 1067 788 q 1035 740 1038 744 q 1010 728 1032 736 q 1011 708 1011 721 q 989 644 1011 665 q 922 611 967 624 q 924 596 924 606 q 915 564 924 576 q 894 547 906 551 q 873 536 882 542 q 864 524 864 531 q 869 494 864 506 q 840 473 868 486 q 800 460 811 460 q 744 478 775 460 l 742 490 l 754 494 q 800 476 783 476 q 823 487 803 476 q 851 499 843 497 q 846 521 846 510 q 855 544 846 536 q 874 553 864 551 q 894 569 885 554 q 903 614 903 585 q 915 627 903 621 q 943 638 926 633 q 964 646 960 643 q 989 684 982 657 q 992 735 996 711 l 997 746 l 1017 747 l 1019 765 l 1003 764 q 913 790 967 761 l 911 801 l 924 806 q 1004 782 964 782 q 1050 808 1050 782 l 1058 818 q 1067 808 1067 815 m 864 893 q 854 886 864 886 q 805 890 839 886 q 754 894 771 894 q 668 844 668 894 q 685 816 668 832 q 721 776 703 800 q 739 721 739 751 q 717 690 739 713 q 694 657 694 668 q 702 629 694 647 q 710 599 710 611 q 669 557 710 582 q 657 560 665 557 q 674 582 657 569 q 692 606 692 594 q 683 631 692 614 q 675 657 675 647 q 699 696 675 672 q 722 725 722 719 q 688 786 722 753 q 654 846 654 819 q 767 913 654 913 q 828 908 792 913 q 864 893 864 903 m 945 727 q 955 723 945 727 q 965 715 965 718 q 961 704 965 713 q 939 711 950 704 q 924 719 928 718 q 900 697 917 704 q 878 703 883 700 q 858 662 863 668 q 848 659 853 656 q 825 649 843 663 q 826 640 825 646 q 826 632 826 635 q 822 617 826 624 q 815 609 818 611 q 801 603 811 607 q 788 597 790 599 q 783 569 788 575 q 753 556 778 564 q 748 535 753 542 q 738 526 743 528 q 722 522 733 524 q 704 518 710 519 q 700 531 700 519 q 732 540 703 533 q 738 559 735 553 q 742 567 740 565 q 753 573 744 569 q 768 579 763 576 q 774 604 768 594 q 784 616 779 614 q 807 625 789 618 q 808 641 807 635 q 810 651 810 647 q 815 658 811 654 q 822 663 819 661 q 832 667 824 664 q 844 672 840 671 q 853 694 850 681 q 863 713 857 708 q 888 718 869 718 l 899 714 q 907 724 901 717 q 919 736 913 732 q 945 727 925 736 m 1165 601 q 1075 311 1165 438 l 1058 315 q 1100 393 1075 340 l 1075 449 l 1035 467 l 1031 476 l 1039 482 l 1079 463 l 1103 486 l 1113 486 l 1113 475 l 1089 454 l 1108 414 q 1146 614 1146 503 q 1139 678 1146 651 l 1128 679 l 1118 706 l 1057 693 l 1049 701 l 1053 708 l 1113 719 q 1107 738 1111 725 q 1103 782 1094 781 q 1106 781 1104 782 q 1007 921 1068 864 l 1003 913 l 972 901 l 975 889 l 968 881 l 960 888 q 954 919 954 907 l 964 921 l 986 917 l 990 919 l 989 932 l 964 947 l 932 914 l 922 913 l 922 922 q 956 961 935 940 q 646 1064 828 1060 l 646 1053 l 674 1053 l 681 1046 l 674 1038 l 644 1038 l 644 1024 l 638 1015 l 631 1024 l 632 1064 q 358 983 488 1064 l 376 976 q 358 969 376 969 l 321 944 l 358 899 q 370 908 363 904 q 381 917 378 913 q 385 933 385 922 l 372 936 l 356 931 l 344 933 l 347 943 q 378 953 357 950 l 397 942 l 400 926 l 390 901 q 350 883 372 883 l 303 943 q 160 733 197 860 l 226 708 q 243 718 231 718 l 246 708 q 226 692 240 694 l 154 718 q 139 590 139 649 q 160 457 139 526 l 222 482 l 215 517 l 207 514 l 196 521 l 203 529 l 217 533 l 226 528 l 239 476 q 165 442 238 469 q 224 317 185 379 l 208 311 q 118 601 118 447 q 271 970 118 819 q 642 1121 424 1121 q 1013 970 860 1121 q 1165 601 1165 819 m 581 803 q 568 792 581 796 q 564 791 567 792 q 561 790 561 790 q 545 792 556 790 q 529 794 535 794 q 518 799 522 794 l 518 801 q 546 813 518 813 q 561 810 557 813 l 564 808 l 578 808 q 581 803 581 806 m 594 778 q 582 765 594 771 q 561 758 569 758 q 533 765 551 758 q 513 771 515 771 q 500 763 504 771 l 486 763 q 483 768 483 765 q 496 780 483 775 q 517 785 508 785 q 542 779 525 785 q 567 774 560 774 q 576 782 575 774 q 590 783 581 783 q 594 778 594 783 m 650 694 q 626 665 650 675 q 585 657 608 657 q 563 669 563 657 q 572 676 563 676 q 608 678 597 676 q 632 697 631 681 q 644 703 633 703 q 650 694 650 703 m 450 908 q 446 897 450 900 q 430 890 443 896 q 408 877 417 883 q 399 864 399 871 q 406 858 401 863 q 414 853 411 854 q 424 848 417 851 q 436 842 431 844 q 446 835 442 839 q 449 824 449 832 q 438 821 446 821 q 417 831 436 821 q 397 842 399 840 q 387 853 393 844 q 381 867 381 863 q 406 896 381 879 q 440 913 432 913 q 450 908 447 913 m 567 744 l 567 742 q 564 733 567 735 q 543 729 558 729 q 511 738 531 729 q 510 746 510 740 l 510 750 q 519 753 513 753 l 526 750 q 535 749 533 749 q 550 748 536 749 q 567 744 564 747 m 610 607 q 599 606 607 606 q 585 610 596 608 q 561 612 575 611 q 544 613 547 613 q 536 621 536 613 q 544 629 536 629 l 571 629 q 608 617 600 629 q 610 607 610 615 m 465 711 q 468 709 465 711 q 472 701 472 707 q 465 691 472 696 q 444 681 457 686 q 431 676 432 676 q 422 678 428 675 q 417 685 417 681 q 444 700 417 690 q 429 706 438 703 q 420 709 421 708 q 415 713 419 710 q 413 721 410 717 q 414 735 415 725 l 383 744 q 376 754 375 747 l 389 800 q 400 804 390 804 q 407 794 410 804 l 394 760 q 410 755 401 757 q 422 752 418 753 q 428 750 425 751 q 432 745 432 749 q 433 738 432 742 q 432 724 433 733 q 445 719 433 722 q 465 711 457 715 m 894 450 q 814 408 872 418 l 814 397 q 823 349 814 381 q 832 303 832 317 q 822 293 832 293 q 804 338 811 293 q 797 407 797 382 q 740 423 758 413 q 703 456 722 433 q 665 492 683 478 q 628 510 657 497 q 583 544 600 524 l 585 557 l 597 556 q 637 525 610 539 q 672 506 664 511 q 705 475 682 499 q 748 439 728 451 q 792 426 768 426 q 881 461 856 426 l 892 463 q 894 450 894 454 m 601 461 q 599 450 601 456 q 461 407 501 407 q 412 419 435 407 q 389 457 389 432 q 401 508 389 478 q 390 519 393 511 l 392 543 q 381 545 385 542 q 376 555 376 549 q 375 567 375 561 q 376 581 375 572 q 376 592 376 589 q 369 592 375 592 q 358 592 363 592 q 347 594 353 593 q 340 599 342 596 q 339 607 338 603 q 343 625 340 611 q 349 652 346 639 q 358 679 353 665 q 368 701 363 693 q 379 710 374 710 q 386 699 390 710 l 358 611 q 411 593 411 604 q 393 586 411 586 l 394 560 q 404 558 397 558 q 417 558 411 558 q 426 553 422 557 q 431 546 431 550 q 408 539 431 535 l 407 525 l 419 518 q 422 506 422 510 q 407 461 407 489 q 424 434 407 443 q 461 425 442 425 q 536 444 485 425 q 590 464 588 464 q 601 461 596 464 m 853 240 q 844 231 853 233 q 718 192 754 213 q 526 107 579 107 q 471 126 471 107 q 483 133 471 133 q 508 129 490 133 q 535 125 525 125 q 681 183 581 125 q 833 247 782 240 q 833 251 833 249 q 832 256 832 254 q 838 265 832 265 q 853 240 853 265 m 546 275 q 529 200 546 200 q 519 211 519 200 q 522 225 519 215 q 525 236 525 235 q 528 297 528 257 q 515 393 528 375 q 519 404 515 400 q 531 401 528 404 q 546 275 546 383 m 1010 939 l 1010 949 l 982 972 l 971 972 q 969 967 969 971 l 969 963 l 1001 939 l 1010 939 m 1149 699 l 1129 768 q 1118 774 1128 774 q 1113 764 1110 774 l 1133 694 q 1143 690 1135 690 q 1148 694 1146 690 q 1149 699 1150 697 m 686 1078 q 681 1086 686 1086 q 639 1089 653 1089 q 633 1083 633 1089 q 640 1074 633 1074 l 681 1072 q 686 1078 686 1072 m 346 981 l 346 989 q 336 992 343 992 l 303 968 l 303 958 q 314 956 306 956 l 346 981 z "},"X":{"ha":1965,"x_min":69,"x_max":1896,"o":"m 1896 539 q 1514 454 1543 454 l 272 454 l 272 640 l 311 640 l 311 551 l 331 551 l 331 640 l 353 640 l 353 551 l 374 551 l 374 640 l 397 640 l 397 551 l 418 551 l 418 640 l 468 640 l 468 551 l 488 551 l 488 640 l 511 640 l 511 551 l 531 551 l 531 640 l 554 640 l 554 551 l 578 551 l 578 640 l 1514 640 q 1896 557 1535 640 l 1896 539 m 244 454 l 117 454 q 101 459 108 454 q 89 469 93 464 q 78 485 85 475 q 69 499 72 494 q 78 557 69 528 q 94 596 85 581 q 114 619 104 611 q 140 631 124 626 q 167 635 156 635 q 203 638 179 636 q 244 640 228 639 l 244 454 m 1865 543 l 1865 553 l 1725 557 l 1725 540 l 1865 543 m 1718 514 q 1710 546 1710 522 q 1718 582 1710 574 l 1511 625 l 1489 622 q 1464 619 1467 619 q 1554 572 1554 583 q 1483 529 1554 561 q 1501 523 1486 526 q 1528 516 1515 519 q 1540 508 1540 513 q 1483 471 1540 500 l 1493 464 l 1718 514 m 1528 569 q 1480 597 1514 583 q 1426 611 1446 611 l 613 611 l 613 529 l 1440 529 q 1483 547 1444 529 q 1528 569 1521 565 m 578 488 l 578 508 l 311 508 l 311 488 l 578 488 z "},"Y":{"ha":1214,"x_min":69,"x_max":1144,"o":"m 1144 963 q 1116 774 1144 874 q 1037 584 1088 674 q 906 431 986 494 q 733 360 826 368 l 689 300 l 707 250 q 681 200 699 217 q 774 103 713 147 q 892 58 835 60 l 892 0 l 322 0 l 322 58 q 439 103 378 58 q 532 200 500 147 q 507 250 507 225 q 524 300 507 272 q 481 360 499 329 q 260 474 358 371 q 116 710 163 578 q 69 963 69 842 q 215 1194 69 1194 q 339 1068 292 1194 q 406 1096 379 1068 q 435 1164 432 1124 q 495 1167 456 1165 q 567 1171 535 1169 q 626 1172 599 1172 q 779 1164 704 1172 q 806 1096 779 1121 q 875 1068 832 1071 q 999 1194 917 1194 q 1071 1172 1040 1194 q 1117 1113 1101 1150 q 1138 1038 1132 1075 q 1144 963 1144 1001 m 1088 963 q 1004 1144 1088 1144 q 930 1092 968 1144 q 886 1001 892 1040 q 877 864 879 957 q 868 726 875 771 q 758 397 838 533 q 897 461 832 397 q 1002 617 963 525 q 1065 801 1042 708 q 1088 963 1088 894 m 665 706 q 658 708 664 706 q 650 710 651 710 q 644 713 649 711 q 637 717 639 715 q 632 722 635 718 q 628 728 629 725 q 628 738 628 732 l 628 876 q 635 918 628 883 l 625 921 q 547 888 615 908 l 550 876 q 572 881 571 881 q 589 864 589 881 l 589 738 q 550 706 589 718 l 554 697 q 582 700 564 697 q 608 703 600 703 q 638 700 618 703 q 663 697 658 697 l 665 706 m 608 39 l 608 58 l 479 58 q 540 119 513 78 q 576 200 568 161 q 567 300 557 257 q 485 1078 485 497 q 522 1138 514 1078 l 467 1138 q 400 1078 456 1079 q 433 647 400 869 q 542 300 465 425 q 529 250 529 258 q 563 200 529 239 q 490 113 551 167 q 394 58 428 60 l 394 39 l 608 39 m 456 397 q 347 725 379 526 q 336 867 339 774 q 328 1001 333 960 q 283 1092 322 1040 q 210 1144 244 1144 q 125 963 125 1144 q 148 801 125 894 q 210 617 171 708 q 315 463 250 526 q 456 397 381 399 z "},"Z":{"ha":1861,"x_min":69,"x_max":1792,"o":"m 1792 1001 q 1383 828 1636 893 l 1383 760 l 1296 714 q 1247 782 1274 753 l 1792 1235 l 1792 1001 m 1643 1235 l 1219 815 q 1153 867 1194 839 l 1411 1235 l 1643 1235 m 1750 579 l 1642 721 l 1642 744 l 1750 596 l 1750 579 m 1732 528 l 1642 638 l 1642 661 l 1732 544 l 1732 528 m 1317 1235 l 1117 892 q 1040 926 1082 911 l 1153 1235 l 1317 1235 m 1696 500 l 1642 557 l 1642 581 l 1696 517 l 1696 500 m 1658 474 l 1642 494 l 1642 517 l 1658 490 l 1658 474 m 1792 0 l 1774 0 l 1774 614 l 1608 857 l 1608 388 l 1676 349 l 1676 0 l 1658 0 l 1658 339 l 1408 483 l 1408 807 l 1615 878 l 1647 831 l 1792 897 l 1792 717 l 1735 703 l 1792 621 l 1792 0 m 1383 611 l 1346 597 q 1314 676 1336 644 l 1383 704 l 1383 611 m 872 1136 l 767 1093 l 739 1235 l 872 1235 l 872 1136 m 1383 558 l 1382 514 l 1360 518 l 1354 556 l 1383 558 m 1633 0 l 1621 0 l 1621 315 l 1633 306 l 1633 0 m 1597 0 l 1585 0 l 1585 333 l 1597 324 l 1597 0 m 1561 0 l 1546 0 l 1546 353 l 1561 344 l 1561 0 m 746 940 q 667 911 711 933 l 514 1235 l 667 1235 l 746 940 m 1517 0 l 1497 0 l 1497 378 l 1517 369 l 1517 0 m 1338 0 l 1018 0 l 1018 453 l 1174 486 l 1174 592 l 1057 671 l 1057 506 l 975 536 l 975 918 l 944 936 l 944 1003 l 857 1085 l 857 1024 l 874 1029 l 874 572 l 829 594 l 829 810 l 767 844 l 767 981 l 794 996 l 794 1074 l 860 1101 l 925 1043 l 942 1235 l 1076 1235 l 990 929 l 994 928 l 994 667 l 1057 693 l 1194 600 l 1194 490 l 1338 524 l 1338 0 m 1461 0 l 1443 0 l 1443 406 l 1461 397 l 1461 0 m 1399 0 l 1381 0 l 1381 439 l 1399 429 l 1399 0 m 628 892 q 560 843 585 867 l 226 1235 l 426 1235 l 628 892 m 526 815 q 472 750 521 810 l 69 1029 l 69 1235 l 103 1235 l 526 815 m 982 0 l 964 0 q 965 65 964 7 q 965 183 965 122 q 965 309 965 243 q 963 419 965 375 q 957 468 961 464 l 982 457 l 982 0 m 935 0 l 918 0 q 919 67 918 7 q 919 190 919 126 q 919 322 919 253 q 917 436 919 390 q 911 486 915 482 l 935 475 l 935 0 m 879 0 l 863 0 q 863 69 863 7 q 864 198 864 132 q 864 336 864 264 q 862 456 864 408 q 856 508 860 504 l 879 497 l 879 0 m 818 0 l 801 0 q 802 73 801 7 q 803 208 803 139 q 803 352 804 276 q 800 477 803 428 q 793 531 797 526 l 818 519 l 818 0 m 449 714 q 414 639 429 682 l 69 763 l 69 932 l 449 714 m 753 0 l 526 0 l 526 339 l 371 379 l 371 399 l 526 356 l 526 392 l 335 446 l 335 -10 l 69 -10 l 69 361 l 335 468 l 526 413 l 526 531 l 604 565 l 604 806 l 729 858 l 729 613 l 753 621 l 753 0 m 400 597 q 386 515 389 540 l 69 542 l 69 685 l 400 597 m 476 307 l 371 333 l 371 351 l 476 322 l 476 307 m 442 268 l 371 288 l 371 306 l 442 283 l 442 268 m 261 475 l 69 401 l 69 474 l 261 475 z "},"[":{"ha":1139,"x_min":69,"x_max":1069,"o":"m 1069 597 q 1051 545 1069 578 q 1031 497 1033 513 q 1049 429 1049 453 q 1020 374 1049 390 q 944 349 992 357 l 894 6 l 850 -6 l 847 -28 l 799 -25 l 792 -43 l 738 -40 l 735 -56 l 692 -43 l 679 -65 l 649 -46 l 636 -68 l 607 -50 l 594 -68 l 574 -50 l 558 -68 l 536 -46 l 492 -65 l 474 -40 l 408 -46 l 401 -25 l 349 -28 l 344 -6 l 289 -3 l 289 25 l 261 40 q 204 339 221 275 q 110 400 150 353 q 69 503 69 447 q 83 575 69 544 q 107 618 96 606 q 154 658 118 631 q 203 697 190 686 q 232 734 214 706 q 264 771 250 763 q 415 819 293 790 q 586 847 538 847 q 765 817 654 847 q 972 726 875 788 q 1069 597 1069 665 m 900 676 l 900 699 l 872 704 l 872 681 l 900 676 m 774 746 l 774 768 l 746 774 l 746 750 l 774 746 m 896 596 q 889 606 896 600 q 878 611 882 611 l 858 611 q 843 582 843 611 l 843 574 q 849 565 843 571 q 858 558 856 558 q 882 560 878 558 q 896 596 896 564 m 663 744 q 657 754 663 749 q 647 760 651 760 l 624 760 q 612 750 618 760 q 606 735 606 740 q 638 706 606 706 q 649 708 644 706 q 663 744 663 715 m 746 601 l 714 621 l 694 593 l 718 574 l 746 601 m 560 760 l 532 782 l 513 754 l 532 746 l 560 760 m 582 635 l 546 649 l 532 621 l 554 607 l 582 635 m 392 732 l 358 750 l 339 722 l 364 704 l 392 732 m 483 518 l 456 542 l 438 514 l 456 504 l 483 518 m 388 611 q 386 633 388 626 q 364 651 381 651 q 349 649 357 651 q 339 641 346 647 q 332 632 332 635 q 338 603 332 613 q 361 594 343 594 q 388 611 378 594 m 899 333 q 668 303 735 292 q 671 204 668 276 q 674 90 674 132 q 671 -3 675 49 l 707 0 l 714 260 q 729 274 714 274 q 744 260 744 274 l 738 3 l 779 11 l 786 278 q 801 292 786 292 q 817 278 817 292 l 811 19 q 860 46 846 29 q 871 80 865 53 q 881 147 876 107 q 889 219 886 186 q 895 290 892 253 q 899 333 899 328 m 228 607 l 228 629 l 199 635 l 199 611 l 228 607 m 539 8 q 535 94 539 47 q 526 197 532 140 q 518 283 521 254 q 504 297 518 297 q 490 293 496 297 q 485 281 483 289 l 508 6 q 522 -7 511 -7 q 539 8 539 -7 m 467 25 l 442 268 q 428 282 439 282 q 411 265 408 282 l 436 22 q 450 8 439 8 q 467 25 469 8 z "},"\\":{"ha":1558,"x_min":69,"x_max":1489,"o":"m 1489 746 l 1482 721 q 1440 710 1457 710 q 1306 732 1389 710 q 1313 663 1313 694 q 1263 545 1313 588 q 1138 503 1214 503 q 902 599 1008 503 q 794 822 796 696 l 756 819 q 709 843 736 818 q 653 910 682 868 q 600 993 625 953 q 550 1078 575 1033 q 517 1136 525 1122 l 521 1150 l 544 1153 q 611 1122 575 1153 q 683 1103 647 1121 q 738 1069 718 1086 q 792 1017 757 1053 q 840 969 828 981 q 964 1019 881 1019 q 1100 984 1028 1019 q 1218 899 1172 949 q 1227 930 1218 922 q 1261 942 1236 938 q 1269 965 1261 957 q 1286 974 1278 972 q 1311 976 1294 975 l 1322 994 q 1344 1003 1339 1003 q 1388 951 1360 1003 q 1451 827 1417 900 q 1489 746 1485 754 m 893 407 q 879 385 889 396 q 853 367 869 375 q 825 352 838 358 q 794 339 813 346 q 769 329 775 332 q 832 213 832 272 q 808 139 832 171 q 744 91 783 107 q 665 67 704 75 q 586 60 625 60 q 397 158 465 60 q 326 129 364 129 q 72 236 310 129 l 69 247 q 141 275 85 261 q 221 283 197 289 q 268 294 243 294 q 317 285 286 294 q 358 274 347 275 q 393 344 361 314 q 468 387 425 375 q 558 403 511 399 q 638 399 604 408 l 628 418 q 646 446 635 440 q 640 461 640 454 q 661 490 647 486 l 660 506 l 671 524 q 703 528 685 528 q 767 485 718 514 q 854 433 815 456 q 893 407 893 410 m 1465 750 l 1400 875 q 1386 912 1397 881 q 1365 967 1375 943 q 1349 990 1354 990 q 1333 980 1339 990 q 1326 958 1326 969 q 1340 919 1326 951 q 1374 844 1354 886 q 1394 800 1393 803 l 1392 796 q 1371 807 1375 796 q 1363 831 1369 811 q 1349 872 1356 851 q 1333 915 1342 893 q 1315 950 1324 936 q 1300 964 1306 964 q 1279 932 1279 964 q 1324 821 1279 918 l 1321 817 q 1292 844 1300 817 q 1277 899 1283 872 q 1256 926 1271 926 q 1235 903 1235 926 q 1265 833 1235 890 q 1301 750 1296 775 q 1435 724 1411 724 q 1460 731 1449 724 q 1465 750 1472 738 m 1161 793 q 1124 853 1161 825 q 1056 882 1088 882 q 1042 877 1050 882 q 1035 867 1035 872 q 1040 835 1035 840 q 1060 818 1057 818 l 1060 824 q 1054 835 1060 825 q 1049 850 1049 844 q 1069 858 1049 858 q 1110 838 1086 858 q 1135 801 1135 817 q 1128 790 1135 794 q 1124 788 1124 790 q 1131 782 1124 782 l 1150 782 q 1157 786 1153 782 q 1161 793 1161 790 m 1181 714 q 1163 732 1181 732 q 1121 718 1149 718 q 1052 738 1092 718 q 990 781 1013 757 q 974 804 986 785 q 950 839 961 824 q 936 854 939 854 q 924 844 924 854 q 965 778 924 824 q 1136 697 1042 697 q 1181 714 1164 697 m 918 883 q 851 940 918 893 q 796 999 831 954 q 739 1051 761 1043 l 732 1043 l 792 949 l 789 943 l 779 940 l 767 946 q 749 976 763 953 q 728 1014 736 1000 q 706 1047 719 1028 q 678 1078 692 1065 q 649 1096 664 1090 l 642 1086 l 736 933 l 731 922 l 718 925 q 674 992 700 943 q 620 1081 649 1042 q 563 1129 592 1121 l 560 1126 q 565 1114 563 1118 q 706 869 613 1039 q 774 843 721 843 q 847 851 792 843 q 913 867 903 860 q 918 883 918 871 m 1283 647 q 1271 656 1278 653 q 1258 631 1264 650 q 1246 606 1251 613 q 1221 615 1236 607 q 1196 625 1206 624 q 1187 606 1193 621 q 1174 581 1181 592 q 1161 569 1168 569 q 1150 574 1156 569 q 1139 587 1144 579 q 1131 597 1133 594 q 1111 590 1124 597 q 1085 583 1099 583 q 1067 608 1079 588 q 1049 629 1054 629 q 1028 622 1042 629 q 1001 614 1015 614 q 971 643 990 614 q 940 667 963 656 q 913 683 918 679 q 899 713 906 689 q 885 740 893 738 q 872 743 882 742 q 854 750 861 744 q 850 761 850 753 q 851 781 850 769 q 853 793 853 792 q 831 821 853 810 q 821 788 821 814 q 931 608 821 692 q 1142 524 1042 524 q 1240 559 1196 524 q 1283 647 1285 594 m 872 403 q 863 415 872 408 q 839 430 854 422 q 811 444 824 438 q 783 456 799 450 q 765 464 768 463 q 723 492 758 467 q 683 518 688 518 q 675 504 675 518 q 796 414 675 481 l 793 407 l 779 407 l 675 476 l 660 476 q 654 460 654 471 q 661 447 654 454 q 680 431 668 439 q 703 416 692 422 q 726 403 714 410 q 742 394 739 397 l 742 390 q 725 389 736 389 l 661 433 l 649 433 q 642 419 642 429 q 671 389 642 408 q 694 378 676 385 q 719 368 713 372 q 760 339 732 361 q 872 403 872 381 m 649 304 q 626 319 649 313 q 590 326 603 326 q 551 319 583 326 q 537 312 540 317 q 533 294 533 307 q 540 283 533 288 q 556 278 546 279 q 568 275 565 276 q 547 294 553 286 q 589 308 547 308 q 619 301 606 308 q 626 290 625 299 q 633 282 626 282 q 644 290 639 282 q 649 304 649 299 m 697 261 q 689 271 697 271 q 680 267 683 271 q 672 255 676 263 q 665 244 667 247 q 622 224 654 232 q 568 217 590 217 q 524 222 539 217 q 483 244 510 226 q 471 231 471 244 q 515 210 471 219 q 581 200 560 200 q 654 217 611 200 q 697 261 697 235 m 811 221 q 782 264 811 264 q 786 241 782 256 q 790 221 790 226 q 769 217 786 219 q 749 210 753 215 l 749 200 q 756 169 749 190 l 751 158 q 719 164 742 158 q 710 149 718 163 q 696 135 701 135 q 673 141 688 135 q 651 147 658 147 q 642 130 649 144 q 626 115 635 115 q 599 120 614 115 q 578 126 585 125 q 556 125 572 128 q 536 122 540 122 q 515 133 531 122 q 493 144 500 144 q 468 138 482 144 q 453 157 461 142 q 429 172 444 172 q 419 165 422 172 q 494 101 433 124 q 607 78 554 78 q 748 114 685 78 q 811 221 811 150 m 453 246 q 439 260 450 256 q 417 264 428 264 q 391 263 407 264 q 371 261 375 261 q 320 272 353 261 q 271 283 288 283 q 251 281 256 283 l 254 274 q 293 257 264 269 q 338 239 322 244 q 333 228 338 233 q 324 225 329 224 q 287 244 315 229 q 237 265 258 258 q 196 272 215 272 q 174 269 178 272 l 176 261 q 307 204 218 240 q 310 194 310 199 q 300 190 304 189 q 251 215 290 194 q 181 245 211 235 q 126 256 151 256 q 103 250 110 256 q 153 228 119 240 q 203 207 188 215 l 314 150 q 333 146 322 146 q 403 184 358 146 q 453 246 449 222 z "},"]":{"ha":1308,"x_min":69,"x_max":1239,"o":"m 1068 951 q 1153 867 1068 951 q 1239 540 1239 783 q 1068 129 1239 297 q 654 -39 897 -39 q 240 129 411 -39 q 69 540 69 297 q 240 951 69 783 q 654 1119 411 1119 q 1068 951 897 1119 m 983 213 q 1052 281 983 213 q 1121 540 1121 349 q 983 867 1121 732 q 654 1003 846 1003 q 325 867 463 1003 q 188 540 188 732 q 325 213 188 349 q 654 78 463 78 q 983 213 846 78 m 1015 540 q 910 290 1015 392 q 658 189 806 189 q 407 291 511 189 q 303 540 303 393 q 407 790 303 688 q 658 892 511 892 q 910 790 806 892 q 1015 540 1015 688 m 819 376 q 854 410 819 376 q 889 540 889 444 q 819 704 889 636 q 654 772 750 772 q 489 704 558 772 q 419 540 419 636 q 489 376 419 444 q 654 308 558 308 q 819 376 750 308 m 771 540 q 737 459 771 493 q 654 425 703 425 q 571 458 604 425 q 538 540 538 490 q 572 622 538 588 q 654 656 606 656 q 738 623 704 656 q 771 540 771 590 z "},"^":{"ha":1136,"x_min":69,"x_max":1067,"o":"m 1067 596 q 1049 546 1067 583 q 1029 497 1032 508 q 1050 422 1050 453 q 1035 381 1050 397 q 1004 360 1021 365 q 961 349 988 354 l 911 6 l 867 -6 l 864 -28 l 815 -25 l 808 -43 l 754 -40 l 751 -56 l 708 -43 l 696 -65 l 665 -46 l 653 -68 l 624 -50 l 611 -68 l 590 -50 l 575 -68 l 553 -46 l 508 -65 l 490 -40 l 425 -46 l 418 -25 l 365 -28 l 361 -6 l 306 -3 l 306 25 l 278 40 q 221 339 238 275 q 115 403 161 353 q 69 515 69 454 q 84 571 69 544 q 133 625 99 597 q 181 662 167 653 q 235 697 194 671 q 274 781 257 757 l 485 825 q 603 888 514 888 q 669 868 639 888 q 711 815 699 849 q 928 725 790 799 q 1067 596 1067 651 m 665 822 q 624 850 658 829 l 599 825 q 639 797 621 814 l 665 822 m 1014 436 q 999 476 1014 451 q 985 517 985 500 q 992 556 985 531 q 999 593 999 582 q 895 706 999 647 q 717 779 792 764 q 676 711 711 736 q 596 686 640 686 q 514 711 550 686 q 476 779 478 736 q 342 768 425 768 q 331 765 339 768 q 322 763 324 763 q 239 667 294 714 q 147 582 183 621 q 110 494 110 543 q 154 409 110 439 q 257 376 199 379 q 301 349 264 376 q 358 321 339 321 q 393 335 367 321 q 429 350 419 350 q 504 333 450 350 q 589 317 558 317 q 669 335 621 317 q 719 353 718 353 q 751 344 728 353 q 779 333 774 335 l 776 321 q 715 309 749 318 q 681 283 681 300 q 684 140 681 236 q 688 -3 688 44 l 724 0 l 731 260 l 746 274 l 761 260 l 754 3 l 796 11 l 803 278 l 818 292 l 833 278 l 828 19 q 874 57 856 28 q 900 132 892 86 q 912 215 908 178 q 917 305 915 253 q 919 371 918 357 q 931 374 921 371 q 944 379 940 378 q 957 384 947 381 q 972 390 967 388 q 984 397 976 392 q 996 405 992 401 q 1005 414 1000 408 q 1012 425 1010 419 q 1014 436 1014 431 m 490 14 l 468 289 q 454 303 468 303 q 438 288 438 303 q 441 202 438 249 q 450 98 444 156 q 458 11 456 40 q 472 -3 458 -3 q 486 2 481 -3 q 490 14 492 7 m 418 29 l 394 274 q 381 286 393 286 q 366 282 372 286 q 361 269 360 278 l 388 26 q 401 13 390 13 q 418 29 419 13 z "}}}
